<?xml version="1.0" encoding="utf-8"?>
<!-- Generator: Adobe Illustrator 26.0.2, SVG Export Plug-In . SVG Version: 6.00 Build 0)  -->
<svg version="1.1" id="Слой_1" xmlns="http://www.w3.org/2000/svg" xmlns:xlink="http://www.w3.org/1999/xlink" x="0px" y="0px"
	 viewBox="0 0 1383.7 328.8" style="enable-background:new 0 0 1383.7 328.8;" xml:space="preserve">
<style type="text/css">
	.st0{fill:#389EA0;}
	.st1{fill:none;stroke:#FFFFFF;stroke-width:3;stroke-miterlimit:10;}
	.st2{fill:#FFFFFF;}
</style>
<g>
	<circle class="st0" cx="166.4" cy="164.4" r="164.4"/>
</g>
<path id="XMLID_1_" class="st1" d="M160.2,160.7L160.2,160.7 M210.4,168.4L210.4,168.4 M211.5,165.7l-0.1,0.2 M228.9,162.8l-0.4-0.1
	 M95.4,170.8l1.2-0.3 M239,175.9l-0.2-0.1 M241.3,172.3l-5.4-1.7 M139.8,131.6L139.8,131.6 M220,154l-0.2-0.1 M231,156.4l-3.3-0.7
	 M93.4,165.8l7.1-1.9 M147.5,166.8l-0.2,0.5 M243.4,167.3l-11.5-3.6 M231,156.4l-1.1,3.6 M85.3,179.3l8-3.1 M95.4,170.8l0.4,0.9
	 M96.2,172.3l0.1,0.2 M104.8,147l5.1-1 M99.6,177L99.6,177 M87.7,181.5l2.9-1.1 M91.2,159.4l13.6-3.7 M104.8,147l1.2,6.1
	 M82.8,175.7l12.6-4.9 M93.4,165.8l2.1,5 M232.7,148.3l-10.1-2.2 M217.2,134.9l-0.1,1 M250.6,180.9l-11.5-5 M238.9,176.1l0.2-0.2
	 M241.3,172.3l-2.2,3.6 M245.6,161l-14.7-4.5 M232.7,148.3l-1.8,8.1 M248,183.1l-6.3-2.7 M235,179.3l0.2-0.1 M80.4,170.8l13-5.1
	 M91.2,159.4l2.1,6.4 M253.2,177.4l-11.9-5.1 M243.4,167.3l-2.1,5 M245.5,184.2l-1.4-0.6 M147.7,166v0.2 M147.4,166.8L147.4,166.8
	 M217.2,134.9l-0.7-0.2 M89.2,151.4l15.7-4.4 M103.1,137.3l1.7,9.7 M255.7,172.7l-12.4-5.3 M245.6,161l-2.1,6.4 M103.1,137.3
	l12.8-2.5 M119.7,122.2l0.4,4.8 M105.6,177.9l0.2-0.1 M224.1,176.4l-0.5-0.2 M77.9,164.5l13.3-5.2 M89.2,151.4l2.1,8 M89.3,182.2
	l-1.6-0.7 M77.9,186.7l9.8-5.2 M85.3,179.3l2.4,2.2 M247.8,153l-15.1-4.7 M234.5,138.6l-1.8,9.7 M75.2,184.7l10.1-5.4 M82.8,175.7
	l2.5,3.5 M234.5,138.6l-17.3-3.7 M218.6,123.1l-1.3,11.7 M80.7,187.8l7.8-4.2 M230.3,179.1l-0.2-0.1 M72.4,181.3l10.4-5.6
	 M80.4,170.8l2.4,4.9 M164.2,118.8h-0.8 M172.3,118.9h-0.7 M258.3,166.4l-12.7-5.4 M247.8,153l-2.2,8 M257.2,188.6l-9.1-5.5
	 M245.5,184.2l2.5-1.1 M250.6,180.9L248,183 M190.9,165l-0.6-0.1 M260,186.6l-9.4-5.6 M253.2,177.4l-2.6,3.5 M123.1,168.1l-0.3,0.5
	 M83.4,187.7l3.1-1.7 M254.4,189.5l-8.9-5.2 M244.5,184.2h1 M119.7,122.2l3.4-0.4 M69.6,176.6l10.8-5.8 M77.9,164.5l2.5,6.3
	 M262.9,183.3l-9.8-5.9 M255.7,172.7l-2.6,4.8 M216.1,172.3l-1.4-0.4 M87.1,141.8l16.1-4.4 M101.5,125.7l1.6,11.6 M218.6,123.1
	l-9.2-1.3 M75.5,156.8l13.7-5.3 M87.1,141.8l2.1,9.6 M251.5,189.4l-5.3-3.2 M265.7,178.7l-10-6 M258.3,166.4l-2.6,6.3 M250.1,143.5
	l-15.5-4.9 M236.4,127l-1.9,11.6 M161.9,156.8L161.9,156.8 M260.9,158.7l-13.1-5.6 M250.1,143.5l-2.1,9.5 M101.5,125.7l18.2-3.6
	 M107.2,175.2l0.4-0.2 M100.6,177.7l0.4-0.1 M66.9,170.6l11-6 M75.5,156.8l2.4,7.8 M122.9,168.2l0.2-0.1 M246.3,187l-0.3-0.1
	 M80.7,187.8l-2.8-1 M70.4,192.6l7.5-5.9 M75.2,184.7l2.8,2.1 M67.3,190.7l7.8-6 M72.4,181.3l2.8,3.3 M198.1,162.9l-0.6-0.2
	 M236.4,127l-17.8-3.9 M83.4,187.7l-2.8,0.1 M73.4,193.4l7.3-5.6 M64.4,187.5l8.1-6.2 M69.6,176.6l2.8,4.7 M268.5,172.6l-10.2-6.2
	 M260.9,158.7l-2.6,7.7 M85.8,186.9l-2.3,0.8 M76.4,193.2l7.1-5.5 M263.9,194.6l-6.8-6 M254.4,189.5l2.8-1 M260,186.6l-2.8,2
	 M267,192.7l-7-6.1 M262.9,183.3l-2.9,3.3 M73,147.2l14-5.4 M85,130.3l2.1,11.5 M236.3,180.3l0.3,0.3 M260.9,195.4l-6.5-5.9
	 M251.5,189.4l2.9,0.1 M85,130.3l16.6-4.6 M61.4,183.1l8.2-6.4 M66.9,170.6l2.8,6 M270,189.7l-7.2-6.4 M265.7,178.7l-2.8,4.6
	 M64.1,162.8l11.4-6 M73,147.2l2.5,9.5 M79.3,192.1l5.9-4.5 M257.9,195.1l-6.4-5.6 M248.6,188.4l2.8,1 M161.8,156.8L161.8,156.8
	 M100.6,177.3l-0.3,0.2 M263.4,149.1l-13.3-5.6 M252.3,132l-2.2,11.5 M221.4,168.8l0.4,0.5 M252.3,132l-15.9-5 M254.8,193.9
	l-6.1-5.4 M247.4,187.5l1.2,0.9 M236.6,180.2l-0.3-0.2 M273.2,185.1l-7.4-6.5 M268.5,172.6l-2.8,6 M271.5,164.9l-10.6-6.3
	 M263.4,149.1l-2.5,9.5 M88.8,185l0.2-0.2 M84.2,188.7l0.4-0.3 M58.5,177.1l8.4-6.6 M64.1,162.8l2.8,7.7 M73.4,193.4l-3-0.8
	 M66,198.1l4.4-5.5 M67.3,190.7l3,1.9 M76.4,193.2l-3,0.2 M68.6,199.4l4.8-6 M204.8,160.9l-0.4-0.2 M62.8,196.4l4.6-5.7 M64.4,187.5
	l3,3.2 M79.3,192.1l-3,1.1 M71.6,199.1l4.7-5.9 M59.1,194.2l5.3-6.7 M61.4,183.1l3,4.4 M70.5,135.9l14.4-5.6 M61.3,153.5l11.6-6.3
	 M70.5,135.9l2.4,11.3 M276.2,179.3l-7.6-6.8 M271.5,164.9l-2.9,7.6 M126,161.1l0.4-0.1 M266.4,198.3l-2.5-3.7 M260.9,195.4l3-0.8
	 M267,192.7l-3,1.9 M85.9,187l0.2-0.1 M86.7,186.4l0.4-0.3 M263.7,199.5l-2.8-4.2 M257.9,195.1l3,0.3 M269.6,196.6l-2.6-3.9
	 M270,189.7l-3,3 M82.4,190.1l-3,2 M74.8,197.8l4.5-5.7 M261.5,200.6l-3.7-5.5 M254.8,193.9l3,1.2 M55.3,169.6l8.8-6.8 M61.3,153.5
	l2.8,9.3 M266,137.9l-13.7-5.9 M55.9,189.9l5.5-6.8 M58.5,177.1l3,6 M273.2,194.3l-3.1-4.6 M273.2,185.1l-3,4.4 M240.1,180.8
	l0.7,0.8 M274.2,155.6l-10.8-6.6 M266,137.9l-2.6,11.2 M258.7,199.5l-3.8-5.7 M251.7,191.8l3,2 M85.4,187.4l-3,2.7 M78,195.5
	l4.4-5.5 M279.2,171.9l-7.8-6.9 M274.2,155.6l-2.8,9.2 M277.4,191.6l-4.3-6.4 M276.2,179.3l-3,5.9 M219.3,165l-0.2-0.1 M71.6,199.1
	l-3,0.4 M255.4,197.4l-3.7-5.6 M248.6,189l3,2.8 M52.7,184.2l5.7-7 M55.3,169.6l3,7.5 M241.1,181.6l-1-0.9 M59.1,194.2l0.3,0.2
	 M74.8,197.8l-3.2,1.3 M71.1,200.7l0.5-1.7 M87.4,185.1l-2,2.2 M81.1,192.6l4.3-5.2 M58.6,142.4l12-6.4 M52.4,160.4l9-6.9
	 M58.6,142.4l2.8,11.1 M59,194.2L59,194.2 M55.9,189.9l3.2,4.4 M78,195.5l-3.1,2.1 M73.3,201.8l1.5-4.1 M98.7,173.2l-0.2,0.3
	 M280.9,186.5l-4.7-7.2 M279.2,171.9l-3,7.5 M252.2,194.4l-3.5-5.3 M245.6,185.6l3,3.4 M258.7,199.5l2.5,1.1 M277.1,144.6l-11.1-6.8
	 M87.1,185.6l0.3-0.2 M81.1,192.6l-3.1,2.9 M75.8,201.2l2.1-5.6 M49.6,176.9l5.8-7.2 M52.4,160.4l3,9.2 M259.1,201.7l-0.4-2.1
	 M255.4,197.4l3.2,2.1 M282.3,162.8l-8.1-7.1 M277.1,144.6l-2.8,11 M55.3,191.5l0.5-1.7 M52.7,184.2l3.1,5.7 M249.1,190.7l-3.5-5.1
	 M242.5,181.6l3,4 M179.4,144.4l-0.3-0.1 M256.7,202.7l-1.2-5.3 M252.2,194.4l3.2,3 M95,175.2l0.3-0.2 M106.8,164.5l0.2-0.1
	 M150.7,144.5l0.9-0.1 M84.2,189l-3.1,3.5 M79.1,198.1l2-5.5 M284.2,179.3l-4.9-7.4 M282.3,162.8l-3,9.2 M280.9,186.5l-2.5,4.4
	 M62.8,205.3l0.2,0.1 M89.5,182.4l0.5-0.7 M122.5,150l-0.2,0.3 M51.1,188.5l1.6-4.4 M49.6,176.9l3.1,7.3 M222.4,159.1l0.1,0.2
	 M49.4,149.4l9.2-7.1 M253.6,199.9l-1.3-5.6 M249.1,190.7l3.1,3.6 M75.8,201.2l-1.2,1 M245.9,186.6l-3.3-4.9 M87.4,185l-3.1,4.1
	 M82.3,194.4l1.9-5.2 M46.5,167.8l5.9-7.4 M49.4,149.4l3,11 M281.3,188.2l-0.4-1.8 M284.2,179.3l-3.2,7.2 M79.1,198.1l-3.3,3.1
	 M75.9,202.7l-0.1-1.5 M285.3,151.8l-8.3-7.2 M101.8,167.5l0.3-0.2 M250.3,196.1l-1.2-5.3 M245.9,186.6l3.2,4.2 M287.3,170.3l-5-7.6
	 M285.3,151.8l-3,10.9 M46.9,183.9l2.7-7.1 M46.5,167.8l3.1,9.1 M53.3,197.7l-0.1-0.7 M253.6,199.9l3,2.9 M223.8,159.9l-1.2-0.8
	 M82.3,194.4l-3.2,3.7 M79.2,203.7l-0.2-5.6 M122.2,150.1l0.4-0.2 M90.6,180.3l-3.2,4.6 M85.5,190l1.9-5.1 M247.1,191.7l-1.2-5.1
	 M242.7,181.9l3.1,4.6 M252.8,204.2l0.7-4.4 M250.3,196.1l3.2,3.8 M282.7,193.8l-0.4,0.7 M285.3,184.3l-1.2-5.1 M287.3,170.3l-3.1,9
	 M85.5,190l-3.2,4.4 M82.4,199.7l-0.2-5.3 M98.5,169l-0.3,0.4 M96.9,171.4l0.4-0.5 M43.3,157.1l6.1-7.6 M93.7,175.4l-3.1,5
	 M88.7,185.2l1.9-4.9 M79.2,203.7l-0.3,0.2 M249.4,201.4l0.9-5.2 M247.1,191.7l3.2,4.4 M43.5,175.5l2.9-7.7 M43.3,157.1l3.1,10.7
	 M272.3,212.5l-0.4,0.2 M243.8,186.7l-1.1-4.9 M239.5,176.9l3.2,5.1 M88.7,185.2l-3.2,4.8 M85.7,195.2l-0.2-5.1 M290.5,159.6
	l-5.1-7.7 M252.7,205.4L252.7,205.4 M82.4,199.7l-3.2,4 M79.4,204.1l-0.2-0.4 M101.7,163.3l-0.4,0.8 M278.3,206.5l-0.3,0.4 M111,151
	l-0.1,0.2 M50.3,198.8L51,200 M246.2,196.8l0.9-5.1 M243.8,186.7l3.3,4.9 M96.9,169.9l-3.1,5.3 M91.9,180.1l1.8-4.7 M289.2,178
	l-2-7.7 M290.5,159.6l-3.2,10.7 M43.5,175.5l2.8,7.7 M252.5,205.6l0.2-0.2 M249.4,201.4l2.5,3.2 M85.7,195.2l-3.2,4.5 M84.9,204.9
	l-2.4-5.2 M71.6,224.6l-0.4-0.4 M91.9,180.1l-3.2,5.2 M88.9,190.1l-0.2-4.9 M240.6,181.5l-1.1-4.6 M236.3,171.5l3.2,5.4
	 M276.9,208.8l1.3-2.3 M262.1,220.3h-0.4 M246.6,206.4l2.9-5 M246.2,196.8l3.2,4.5 M154.5,124.6v0.2 M289.2,178l-0.7,2 M183.4,130.2
	l-0.4-0.1 M243,191.7l0.8-4.9 M240.6,181.5l3.2,5.2 M268.1,219.2l-0.4,0.2 M50.6,199.6l-0.4-0.8 M50,198.2l0.4,0.6 M88.9,190.1
	l-3.2,5 M88,200.2l-2.3-5.1 M205.9,135.2l0.3,0.6 M100,164.4l-3.1,5.6 M95.2,174.5l1.7-4.4 M40.3,165l3-8 M110.9,151.1L110.9,151.1
	 M84.9,204.9l-0.6,0.9 M65.6,221.5l-5.9-6.6 M56.7,211.2l3.1,3.6 M252.3,214.6l0.4-0.3 M267.2,220.1l0.9-0.9 M95.2,174.5l-3.2,5.6
	 M92.1,184.7l-0.2-4.7 M243.4,201.8l2.9-5 M243,191.7l3.2,5.1 M237.4,175.9l-1.1-4.4 M233.2,165.7l3.1,5.7 M138,127.1l-0.2,0.5
	 M135.2,132.7l0.2-0.1 M116.3,144.3l0.2-0.1 M43.7,179.7l-0.2-4.2 M40.3,165l3.2,10.6 M277.3,208.3l4.2-7.2 M284.7,194.3l-3.2,6.8
	 M88,200.2l-3.1,4.7 M86.3,206.5l-1.4-1.7 M239.8,186.2l0.8-4.7 M237.4,175.9l3.2,5.6 M92.1,184.7l-3.2,5.4 M91.1,195l-2.2-4.9
	 M264.4,223.5l6.7-6.4 M274.1,213.4l-3,3.6 M292.4,167.5l-2-8 M80.8,225.6l-0.8-0.6 M82.3,229.9l-0.3-0.2 M72,224.5l1.1-0.1
	 M62.7,218l-6-6.8 M53.6,206l3,5.1 M103.2,158.7l-3.2,5.8 M98.5,168.7l1.5-4.3 M154,124.6l0.4-0.1 M243.4,201.8l3,4.6 M50.5,199.4
	l-3.4-7.5 M43.9,183.4l3.2,8.5 M240.2,196.5l2.8-4.9 M239.8,186.2l3.2,5.5 M289.1,179l0.2-1 M292.4,167.5l-3.2,10.5 M98.5,168.7
	l-3.3,5.8 M95.4,178.9l-0.3-4.4 M257.4,226.4L257.4,226.4 M91.1,195l-3.1,5.2 M92.3,205l-4.3-4.9 M249.7,222.8l0.3-0.2 M76.8,229.6
	l-8.2-6 M65.6,221.5l3,2.1 M234.2,170l-1.1-4.4 M229.9,159.9l3.2,5.8 M193.5,127l-0.4-0.1 M267.3,220l6.8-6.6 M277.3,208.3l-3.1,5.1
	 M95.4,178.9l-3.3,5.8 M94.3,189.3l-2.1-4.6 M244.2,215.9L244.2,215.9 M217.4,141.1l0.3,0.4 M236.6,180.4l0.7-4.4 M234.2,170
	l3.2,5.9 M238.3,206.5l5-4.7 M240.2,196.5l3.1,5.2 M280.3,201.8l4.4-7.5 M287.9,185.9l-3.2,8.4 M137.8,127.3l0.4-0.2 M252.5,231.3
	l9-5.8 M264.4,223.5l-2.9,2.1 M59.8,213l-6.2-6.9 M50.5,199.4l3.1,6.8 M74.1,227.6l-8.4-6.1 M62.7,218l3,3.5 M244.1,216L244.1,216
	 M237.2,190.8l2.7-4.6 M236.6,180.4l3.1,5.8 M92.3,205l-1.7,2.8 M94.3,189.3l-3.1,5.6 M95.2,199.6l-4.1-4.6 M106.3,152.7l-3.1,5.9
	 M101.7,162.7l1.5-4.1 M40.7,173l-0.4-8 M101.7,162.7l-3.2,6 M98.6,173l-0.1-4.3 M108,150.7l0.2-0.2 M171,119.3h-0.4 M235.6,201
	l4.7-4.4 M237.2,190.8l3,5.7 M155.7,116.3l-0.4,2.1 M155,119.7h0.2 M238.3,206.5l1.2,2.1 M98.6,173l-3.2,6 M97.4,183.4l-1.9-4.4
	 M255.2,229.4l9.2-6 M267.3,220l-2.9,3.5 M270.1,215.2l7.2-6.8 M280.3,201.8l-3,6.6 M230.9,164l-1-4.1 M226.8,154l3.1,6
	 M204.1,130.1l-0.4-0.2 M85.1,233.2l-5.5-2.9 M47.3,191l-3.5-7.6 M40.7,173l3.2,10.4 M233.4,174.3l0.7-4.3 M230.9,164l3.3,6
	 M95.2,199.6l-3,5.4 M98.6,209.6l-6.3-4.4 M234,231.5l1.1-0.5 M71.4,224.3l-8.8-6.3 M59.8,213l2.9,5 M217.6,141.3l-0.3-0.2
	 M186.4,116l0.1,0.2 M97.4,183.4l-3,6 M98.2,193.8l-3.9-4.4 M234.1,184.8l2.6-4.4 M233.4,174.3l3.2,6 M291,175.5l1.3-8 M87.4,234.9
	l-10.6-5.3 M74.1,227.6l2.8,2 M250.1,232H250 M232.5,210.3l5.9-3.8 M235.6,201l2.8,5.5 M56.9,206.5l-6.4-7.2 M47.3,191l3.1,8.4
	 M232.6,195.2l4.5-4.4 M234.1,184.8l3,6 M207.2,127l0.2,0.5 M283.4,193.4l4.5-7.5 M291,175.5l-3.1,10.3 M104.9,156.5l-3.2,6.1
	 M101.9,166.8l-0.2-4.1 M109.5,146.8l-3.1,5.9 M104.9,156.5l1.4-3.8 M98.2,193.8l-3,5.9 M101.2,204l-5.9-4.4 M257.8,226.2l9.6-6.1
	 M270.1,215.2l-2.8,4.9 M98.6,209.6l-0.3,0.4 M101.9,166.8l-3.2,6.1 M100.5,177.2l-1.9-4.3 M111,144.9l0.4-0.4 M241.4,236.5
	l11.2-5.1 M255.2,229.4l-2.7,2 M85,233.1l-10.8-5.5 M71.4,224.3l2.7,3.3 M227.7,157.9l-0.9-3.9 M223.6,147.9l3.2,6 M230.2,168.1
	l0.6-4.1 M227.7,157.9l3.2,6.1 M100.5,177.2l-3.1,6.2 M101.2,187.6l-3.8-4.2 M228.9,205.2l6.6-4.2 M232.6,195.2l2.9,5.9
	 M117.7,135.7l0.4-0.2 M273.1,208.8l7.3-7 M283.4,193.4l-3,8.4 M231,178.5l2.5-4.2 M230.2,168.1l3.2,6.2 M68.8,219.5l-9-6.5
	 M56.9,206.5l3,6.5 M206.3,126.7l-0.4-0.2 M200.8,123.2l0.6,1.4 M101.2,204l-2.7,5.6 M100.2,210.4l-1.6-0.9 M232.3,232.3l0.2,0.2
	 M102,239.9l-0.4-0.2 M101.2,187.6l-3,6.1 M103.9,197.9l-5.7-4.2 M149.6,111v0.2 M145.9,116.2l0.4-0.1 M229.7,189l4.4-4.1
	 M231,178.5l3.1,6.3 M243.6,234.7l11.5-5.2 M257.8,226.2l-2.6,3.3 M186.5,116.1l-0.3-0.1 M228.9,205.2l2.5,5.3 M108.1,150.4
	l-3.2,6.1 M105.1,160.4l-0.2-3.9 M260.4,221.5l9.8-6.3 M273.1,208.8l-2.9,6.4 M44.1,180.8l-3.6-7.9 M105.1,160.4l-3.2,6.4
	 M103.7,170.8l-1.8-4 M112.6,140.8l-3.1,5.9 M108.1,150.4l1.3-3.6 M226.3,199.2l6.3-4.1 M229.7,189l2.9,6.2 M99.9,239.5l-12.5-4.6
	 M85,233.1l2.4,1.8 M82.6,229.9l-11.2-5.6 M68.8,219.5l2.8,4.8 M204.6,121.8l0.1,0.2 M103.9,197.9l-2.8,6 M108.9,207.8l-7.7-3.8
	 M191.4,112.8l0.2,0.5 M103.7,170.8l-3.1,6.4 M104.1,181.2l-3.6-4.1 M118.3,131.8l-0.4,1 M114.1,138.9l0.4-0.5 M227,161.7l0.6-3.8
	 M224.5,151.6l3.2,6.3 M53.8,198.3l-6.5-7.3 M44.1,180.8l3.1,10.2 M224.5,151.6l-0.9-3.6 M220.4,142l3.2,6 M227.9,172.1l2.3-4
	 M227,161.7l3.2,6.4 M220.8,208.9l8.1-3.7 M226.3,199.2l2.6,6 M104.1,181.2l-2.9,6.4 M106.7,191.6l-5.5-4 M114.3,242l-1.8-0.4
	 M102,239.9l0.3-0.1 M228.1,240.8l13.2-4.4 M243.6,234.7l-2.2,1.8 M226.9,182.5l4.1-4 M227.9,172.1l3,6.4 M108.9,207.8l-1.8,4.2
	 M246,231.6l11.8-5.4 M260.4,221.5l-2.7,4.7 M124.9,123.5l-0.3,0.4 M164,105.3v0.2 M286.6,183.3l4.5-7.8 M66,213.1l-9.1-6.7
	 M53.8,198.3l3,8.2 M97.9,237.8l-13-4.8 M82.6,229.9l2.3,3.2 M115.8,243.6l-1.7-0.4 M106.7,191.6l-2.8,6.4 M111.3,201.7L104,198
	 M214.9,242.8l9.6-2.3 M177.3,105.9l0.2,1 M223.8,192.9l6-3.9 M226.9,182.5l2.9,6.4 M220.8,208.9l1.4,3.7 M275.9,200.6l7.5-7.2
	 M286.6,183.3l-3.1,10.1 M108.3,154l-3.2,6.4 M106.8,164.3l-1.7-3.8 M111.4,144.4l-3.2,6 M108.3,154l-0.2-3.6 M106.8,164.3l-3.1,6.5
	 M107.1,174.7l-3.5-3.9 M211.9,244.6l1.9-0.4 M218.6,202.7l7.8-3.5 M223.8,192.9l2.7,6.4 M115.7,134.9l-3.1,5.9 M111.4,144.4
	l1.2-3.5 M230.1,239.1l13.5-4.4 M246,231.6l-2.3,3.1 M111.3,201.7l-2.3,6.1 M118.1,211.2l-9.1-3.4 M80.2,225.4l-11.5-5.9 M66,213.1
	l2.8,6.4 M107.1,174.7l-3,6.6 M109.3,185l-5.2-3.7 M114.2,243.3l-14.3-3.7 M97.9,237.8l2,1.7 M262.9,215.2l10-6.4 M275.9,200.6
	l-2.9,8.2 M202,116.6l0.1,0.2 M223.8,155.2l0.6-3.6 M221.3,145.3l3.2,6.2 M224.8,165.5l2.1-3.8 M223.8,155.2l3.2,6.4 M121.3,126.2
	l-0.6,1.2 M117.3,133l0.4-0.5 M115.9,243.6l0.3-0.2 M221.3,145.3l-0.9-3.4 M217.2,136l3.1,5.9 M223.9,175.8l3.9-3.7 M224.8,165.5
	l3,6.6 M189.7,108.6l0.1,0.3 M211.2,212.1l9.6-3.2 M218.6,202.7l2.2,6.2 M118.1,211.2l-0.9,2.6 M109.3,185l-2.7,6.6 M113.7,195.2
	l-7-3.5 M95.9,234.8l-13.2-4.9 M80.2,225.4l2.4,4.5 M221.2,186.2l5.7-3.6 M223.9,175.8l2.9,6.7 M213.5,244.3l14.7-3.5 M230.1,239.1
	l-2,1.7 M248.2,227l12.3-5.6 M262.9,215.2l-2.6,6.3 M131,246.4l-15.1-2.8 M114.2,243.3l1.6,0.3 M127.6,118.2l-0.3,0.4 M124.2,123.9
	l0.4-0.2 M211.2,212.1l0.7,2.1 M113.7,195.2l-2.4,6.5 M120,204.9l-8.8-3.3 M216.3,196.2l7.4-3.4 M221.2,186.2l2.6,6.7 M163.8,105.3
	h0.2 M202,116.6l-0.4-0.2 M112.7,241.7l-14.8-3.8 M95.9,234.8l2,3 M111.5,147.7l-3.2,6.4 M109.9,157.7l-1.6-3.6 M196.6,247l15.5-2.4
	 M213.5,244.3l-1.4,0.3 M109.9,157.7l-3.1,6.6 M110.1,168l-3.3-3.6 M231.9,236.2l14-4.6 M248.2,227l-2.2,4.5 M120,204.9l-2,6.3
	 M128.4,213.9l-10.4-2.8 M114.6,138.1l-3.2,6.1 M111.5,147.7l-0.2-3.4 M176.5,102l0.1,0.4 M209.4,205.8l9.1-3 M216.3,196.2l2.2,6.5
	 M191.8,233.2L191.8,233.2 M191.8,233.2L191.8,233.2 M50.9,188.3l-6.7-7.5 M131.1,246.2l0.2-0.1 M110.1,168l-3,6.8 M112.1,178.3
	l-5-3.6 M119,129.2l-3.2,5.8 M114.6,138.1l1.2-3.3 M150.5,106.5l0.4-0.1 M63.3,205.2l-9.5-6.8 M50.9,188.3l3,10 M128.4,213.9
	l-0.4,1.4 M181.8,234.1l9.9-0.9 M130,246.1l-15.7-2.8 M112.7,241.7l1.5,1.6 M131.6,116l0.4-0.2 M112.1,178.3l-2.8,6.8 M116.1,188.4
	l-6.8-3.4 M200.6,214.6l10.7-2.5 M209.4,205.8l1.9,6.4 M221.7,158.8l2.1-3.6 M220.7,148.8l3.1,6.4 M189.5,108l-0.7-0.2 M220.7,148.8
	l0.5-3.5 M218,139.3l3.2,6 M214.9,242.7l15.2-3.5 M231.9,236.2l-1.9,2.9 M221.1,169.1l3.8-3.6 M221.7,158.8l3.1,6.7 M218.5,179.3
	l5.5-3.5 M221.1,169.1l2.9,6.8 M116.1,188.4l-2.4,6.8 M122.1,198.3l-8.4-3.1 M200.6,214.6l0.4,1.2 M199.4,111.7l0.2,0.3 M147.1,248
	l-16.1-1.8 M130,246.1l1.1,0.2 M218,139.3l-0.8-3.3 M214,130.1l3.2,5.9 M77.8,219.2l-11.8-6 M63.3,205.2l2.7,8 M124.3,120.7
	l-0.2,0.4 M120.7,127l0.4-0.5 M163.8,247.1L163.8,247.1 M163.3,234.7h-0.6 M197.4,246.8l16-2.5 M214.9,242.7l-1.4,1.6 M147.2,247.9
	L147.2,247.9 M214,189.4l7.2-3.3 M218.5,179.3l2.7,6.8 M122.1,198.3l-2,6.7 M130,207.5l-10-2.6 M190.2,108.3l-0.6-0.2 M180.2,248.4
	l16.3-1.4 M197.4,246.8l-0.9,0.2 M197.4,246.8l-0.9,0.2 M93.9,230.4l-13.7-5 M77.8,219.2l2.4,6.2 M163.6,248.7l0.1-1 M207.6,199.1
	l8.8-2.9 M214,189.4l2.3,6.8 M278.8,190.6l7.7-7.4 M130,207.5l-1.6,6.4 M139.8,216l-11.5-2 M139.8,216l-0.2,0.7 M265.6,207.2
	l10.3-6.7 M278.8,190.6l-2.9,9.9 M199.1,208.2l10.3-2.5 M207.6,199.1l1.9,6.7 M111.1,238.8l-15.2-4 M93.9,230.4l2,4.4 M127.1,118.6
	l0.4-0.4 M163.6,248.7L147,248 M146.5,247.9l0.5,0.2 M113.1,151.1l-3.1,6.6 M113.1,161.2l-3.1-3.5 M188.9,216.5l11.6-1.8
	 M199.1,208.2l1.4,6.4 M114.8,141.5l-3.2,6.2 M113.1,151.1l-1.5-3.4 M188.9,216.5l0.1,0.4 M188.9,216.5l0.1,0.4 M113.1,161.2l-3,6.8
	 M114.9,171.4l-4.7-3.4 M128.8,244.6l-16.1-2.8 M111.1,238.8l1.6,2.9 M250.4,220.9l12.5-5.8 M265.6,207.2l-2.7,8 M163.6,248.7
	l16.6-0.4 M180.7,248.2l-0.4,0.2 M146.5,247.9l-16.6-1.8 M128.8,244.6l1.1,1.5 M117.8,132.2l-3.2,6 M114.8,141.5l-0.2-3.3
	 M114.9,171.4l-2.8,6.9 M118.4,181.5l-6.4-3.2 M199.4,111.7l-0.5-0.2 M163.5,248.6l0.1,0.2 M176.1,101.6l-0.4-0.1 M233.8,231.8
	l14.4-4.8 M250.4,220.9l-2.2,6 M118.4,181.5l-2.3,6.9 M124.1,191.4l-8-2.9 M151.9,217.3v0.2 M180.7,248.2l16.7-1.4 M198.4,245.3
	l-1,1.4 M198.4,245.3l-1,1.4 M158.7,97.5l-0.1,0.3 M155.1,101.7h0.2 M218.2,162.2l3.5-3.4 M218.7,152.2l3,6.7 M218.7,152.2l2-3.4
	 M217.5,142.5l3.2,6.3 M176.8,217.5L176.8,217.5 M216.3,239.9l15.6-3.6 M233.8,231.8l-1.9,4.4 M122.1,123.5l-3.1,5.6 M117.8,132.2
	l1.2-3 M124.1,191.4l-2,6.8 M131.6,200.8l-9.6-2.5 M198.4,245.3l16.5-2.6 M216.3,239.9l-1.4,2.8 M215.9,172.4l5.1-3.3 M218.2,162.2
	l2.9,6.8 M141,209.5l-1.1,6.5 M151.9,217.3l-12.1-1.3 M131.6,200.8l-1.6,6.8 M141,209.5l-10.9-2 M164.2,217.7L164.2,217.7
	 M217.5,142.5l0.5-3.3 M214.7,133.2l3.3,6 M211.8,182.4l6.8-3.1 M215.9,172.4l2.6,6.9 M152.4,100.5l-0.3,0.6 M151.7,102.2l0.3-0.1
	 M136,108l-0.9,1.6 M188.1,209.9l0.9,6.5 M176.8,217.5l12.2-1 M188.1,209.9l0.9,6.5 M205.6,192.2l8.4-2.8 M211.8,182.4l2.2,7
	 M187,103.5l-0.4-0.1 M163.5,248.6l-17.1-0.7 M145.9,246.4l0.6,1.3 M197.6,201.4l9.9-2.3 M205.6,192.2l1.9,6.9 M188.1,209.9
	l11.1-1.8 M197.6,201.4l1.4,6.8 M214.7,133.2l-0.7-3.1 M210.8,124.5l3.2,5.6 M127.3,115.6l-3,5.1 M124.1,121.1l0.2-0.4 M163.5,248.6
	l17.1-0.4 M181.1,246.8l-0.4,1.3 M196.8,107.1l0.3,0.4 M152.4,210.7l-0.5,6.6 M164.2,217.7l-12.4-0.5 M163.4,247.1l0.1,1.3
	 M164.2,217.7l12.4-0.3 M176.2,211l0.4,6.5 M145.9,246.4l-17.1-1.9 M127.6,241.7l1.2,2.8 M164.3,211.2l-0.1,6.6 M142,202.6l-1.1,6.8
	 M152.4,210.7l-11.5-1.2 M115.9,154.4l-2.9,6.8 M117.4,164.4l-4.4-3.3 M116.2,144.7l-3.1,6.4 M115.9,154.4l-2.9-3.3 M117.4,164.4
	l-2.7,6.9 M120.8,174.5l-6-3.1 M118,135.3l-3.2,6.2 M116.2,144.7l-1.4-3.2 M133.2,193.8l-1.5,7 M142,202.6l-10.4-1.9 M120.8,174.5
	l-2.4,7 M126,184.3l-7.6-2.8 M127.6,241.7l-16.6-2.9 M109.5,234.4l1.6,4.4 M181.1,246.8l17.3-1.5 M199.3,242.5l-1,2.8 M199.3,242.5
	l-1,2.8 M126,184.3l-2,7.1 M133.2,193.8l-9.1-2.4 M187.1,203.1l1,6.8 M176.2,211l11.7-1 M187.1,203.1l1,6.8 M131,112l-0.7,1.1
	 M127.3,115.6l0.3-0.2 M109.5,234.4l-15.6-4.1 M91.9,224.3l1.9,6 M121.1,126.3l-3.3,5.9 M118,135.3l-0.2-3.1 M91.9,224.3l-14.1-5.2
	 M75.5,211.4l2.3,7.8 M75.5,211.4l-12.2-6.1 M60.6,195.4l2.8,9.9 M60.6,195.4l-9.8-7 M187.1,203.1l10.7-1.7 M196.2,194.4l1.4,7
	 M213.3,165.4l4.9-3.2 M215.2,155.5l2.9,6.8 M215.2,155.5l3.4-3.3 M215.5,145.6l3.1,6.6 M209.5,175.4l6.4-2.9 M213.3,165.4l2.7,6.9
	 M153.1,203.8l-0.6,6.8 M164.3,211.2l-11.9-0.5 M196.2,194.4l9.4-2.2 M203.8,185l1.9,7.1 M203.8,185l8-2.7 M209.5,175.4l2.2,7.1
	 M215.5,145.6l2-3.1 M214.3,136.2l3.2,6.3 M190.5,100.9l0.1,0.2 M199.3,242.5l17-2.6 M217.7,235.5l-1.3,4.4 M164.3,211.2l11.9-0.2
	 M175.9,204.1l0.4,6.9 M163.4,247.1l-17.6-0.7 M145.3,243.7l0.5,2.8 M125.3,118.1l-3.1,5.4 M121.1,126.3l1.1-2.8 M164.4,204.3
	l-0.1,6.8 M174.9,97.6h-0.2 M171.7,97.4h-0.4 M214.3,136.2l0.4-3 M211.5,127.3l3.2,5.9 M163.4,247.1l17.6-0.4 M181.5,244l-0.4,2.8
	 M217.7,235.5l16.1-3.7 M235.8,225.8l-2,6 M143.1,195.5l-1.1,7.1 M153.1,203.8l-11.1-1.1 M163.4,244.5l0.1,2.8 M235.8,225.8
	l14.8-4.9 M252.7,213.1l-2.2,7.8 M211.5,127.3l-0.7-2.8 M207.6,119l3.1,5.5 M186.1,196l1,7.1 M175.9,204.1l11.2-1 M186.1,196l1,7.1
	 M134.8,186.6l-1.6,7.2 M143.1,195.5l-9.9-1.8 M252.7,213.1l13-6 M268.2,197.5l-2.6,9.8 M128.4,113.9l-1.1,1.7 M184.6,99.2l-0.4-0.1
	 M128.1,177.1l-2,7.2 M134.8,186.6l-8.7-2.3 M197.7,107.5l-0.9-0.5 M194.4,102.6l0.5,1 M268.2,197.5l10.7-6.8 M123.3,167.4l-2.4,7.1
	 M128.1,177.1l-7.2-2.7 M120.2,157.5l-2.8,6.9 M123.3,167.4l-5.8-2.9 M145.3,243.7l-17.6-1.9 M126.6,237.5l1.1,4.3 M118.9,147.7
	l-3,6.8 M120.2,157.5l-4.3-3 M153.7,196.7l-0.5,7.2 M164.4,204.3l-11.4-0.5 M186.1,196l10.1-1.6 M194.8,187.2l1.3,7.2 M119.3,138.3
	l-3.1,6.4 M118.9,147.7l-2.8-3 M164.4,204.3l11.5-0.3 M175.4,196.9l0.4,7.2 M147.3,99.3l0.7-0.2 M202.8,111.3l1.2,1.9 M164.5,197.1
	l-0.1,7.2 M121.2,129.2l-3.2,6 M119.3,138.3l-1.3-3 M194.8,187.2l9-2.1 M201.8,177.9l1.9,7.2 M181.5,244l17.9-1.6 M200.3,238.3
	l-1,4.2 M200.3,238.3l-1,4.2 M201.8,177.9l7.6-2.5 M207.2,168.2l2.3,7.2 M207.2,168.2l6.1-2.8 M210.7,158.4l2.6,7 M210.7,158.4
	l4.6-2.9 M212.4,148.6l2.9,6.8 M124.3,120.6l-3.2,5.6 M121.2,129.2l-0.1-2.9 M212.4,148.6l3.1-3 M212.5,139.3l3,6.4 M144.3,188.2
	l-1.1,7.3 M153.7,196.7l-10.6-1.1 M126.6,237.5l-17.1-3 M108,228.6l1.5,6 M212.5,139.3l1.8-3 M211.1,130.2l3.2,6 M142.9,100.6
	l0.4-0.2 M185.1,188.7l1,7.3 M175.4,196.9L186,196 M185.1,188.7l1,7.3 M163.4,244.5l-18.1-0.8 M144.6,239.4l0.6,4.2 M136.3,179.3
	l-1.5,7.3 M144.3,188.2l-9.5-1.7 M211.1,130.2l0.4-2.9 M208.3,121.5l3.2,5.7 M191.2,101.3l-0.4-0.2 M128.4,112.9l-3.2,5.1
	 M124.3,120.6l1-2.6 M163.4,244.5l18.1-0.4 M182,239.8l-0.4,4.3 M154.3,189.3l-0.6,7.3 M164.5,197.1l-10.8-0.5 M130.1,169.9l-2,7.3
	 M136.3,179.3l-8.2-2.1 M200.3,238.3l17.4-2.8 M219.1,229.7l-1.4,5.9 M164.5,197.1l10.8-0.3 M175,189.6l0.4,7.3 M108,228.6l-16-4.2
	 M90,216.6l2,7.7 M170.8,93.7h-0.2 M163.4,240.2l0.1,4.2 M185.1,188.7l9.8-1.5 M193.4,179.9l1.4,7.3 M164.6,189.8l-0.1,7.4
	 M125.7,160.3l-2.4,7.2 M130.1,169.9l-6.8-2.5 M158.5,93.9l0.8-0.1 M208.3,121.5l-0.6-2.6 M204.4,113.7l3.2,5.2 M122.9,150.6
	l-2.8,6.8 M125.7,160.3l-5.5-2.8 M139.1,102.1l0.2-0.1 M121.9,141.3l-3,6.5 M122.9,150.6l-4-2.9 M193.4,179.9l8.4-2 M200,170.6
	l1.9,7.3 M122.5,132l-3.1,6.3 M121.9,141.3l-2.6-2.9 M90,216.6l-14.5-5.2 M73.1,201.8l2.4,9.6 M200,170.6l7.2-2.4 M204.9,161.1
	l2.2,7.2 M145.3,180.9l-1.1,7.4 M154.3,189.3l-10-1.1 M195.1,103.1l-0.7-0.4 M204.9,161.1l5.8-2.6 M208,151.5l2.7,6.9 M124.4,123.4
	l-3.2,5.9 M122.5,132l-1.2-2.8 M219.1,229.7l16.6-3.9 M237.5,218.1l-1.9,7.6 M204.4,113.7l-1.6-2.4 M199.8,106.5l3,4.8 M184.1,181.2
	l1,7.5 M175,189.6l10.1-0.9 M184.1,181.2l1,7.5 M208,151.5l4.4-2.8 M209.5,142.1l2.9,6.6 M209.5,142.1l3-2.8 M209.4,132.9l3,6.4
	 M144.6,239.4l-18.1-2 M125.5,231.7l1.1,5.8 M73.1,201.8l-12.4-6.4 M137.9,171.9l-1.6,7.4 M145.3,180.9l-9-1.6 M183.2,93.9l0.3,0.4
	 M127.6,115.3l-3.2,5.3 M124.4,123.4l-0.1-2.7 M154.8,181.9l-0.5,7.5 M164.6,189.8l-10.3-0.4 M209.4,132.9l1.6-2.8 M207.8,124.2
	l3.2,5.9 M164.6,189.8l10.4-0.2 M174.5,182.1l0.4,7.5 M164.7,182.4l-0.1,7.5 M182,239.8l18.3-1.5 M201.2,232.4l-0.9,5.9
	 M201.2,232.4l-0.9,5.9 M184.1,181.2l9.2-1.3 M192,172.4l1.4,7.5 M132.1,162.6l-2,7.2 M137.9,171.9l-7.8-2.1 M237.5,218.1l15.1-5
	 M255,203.5l-2.3,9.6 M147.5,93.1l-0.4,0.7 M207.8,124.2l0.4-2.7 M205,116.1l3.2,5.4 M131.6,108l-3.1,4.9 M127.6,115.3l0.9-2.5
	 M128,153.2l-2.3,7 M132.1,162.6l-6.4-2.4 M192,172.4l8.1-1.9 M198.2,163.3l1.9,7.3 M125.6,143.9l-2.7,6.8 M128,153.2l-5.1-2.6
	 M146.4,173.4l-1.1,7.5 M154.8,181.9l-9.6-1 M124.9,134.8l-3,6.4 M125.6,143.9l-3.7-2.7 M163.4,240.2l-18.6-0.8 M144.1,233.6
	l0.5,5.8 M205,116.1l-0.6-2.5 M201.3,108.7l3.1,5 M164.9,87.6l-0.1,0.8 M163.8,90.4h0.2 M198.2,163.3l6.8-2.2 M202.6,154l2.2,7.1
	 M170.5,90.5l-0.5-0.1 M255,203.5l13.2-6 M183.3,173.9l0.9,7.5 M174.5,182.1l9.7-0.9 M183.3,173.9l0.9,7.5 M163.4,240.2l18.6-0.4
	 M182.4,234.1l-0.4,5.7 M125.5,231.7l-17.5-3.2 M106.3,220.9l1.6,7.5 M160.2,89.6l-0.3,1 M159.7,90.7l0.4-0.1 M125.6,126.1l-3.1,6
	 M124.9,134.8l-2.4-2.8 M174.3,90.8l-0.4-0.1 M173.6,89.6l0.1,0.3 M144.2,94.4l-0.7,1 M202.6,154l5.4-2.5 M205.5,144.7l2.6,6.8
	 M163.3,234.5l0.1,5.7 M205.5,144.7l4-2.6 M206.6,135.6l2.9,6.5 M155.5,174.4l-0.6,7.5 M164.7,182.4l-9.8-0.4 M127.6,117.8l-3.2,5.6
	 M125.6,126.1l-1.2-2.7 M139.6,164.5l-1.6,7.4 M146.4,173.4l-8.5-1.5 M164.7,182.4l9.8-0.2 M174.1,174.6l0.4,7.5 M179.5,91.6
	l-0.5-0.1 M176.9,88.5l0.4,0.6 M201.3,108.7l-1.5-2.1 M196.7,102.1l3,4.4 M206.6,135.6l2.8-2.7 M206.3,126.9l3.1,6 M164.8,174.8
	l-0.1,7.5 M183.3,173.9l8.7-1.3 M190.5,165.1l1.4,7.4 M201.2,232.4l17.9-2.8 M220.6,222.1l-1.4,7.5 M130.8,110.2l-3.2,5.1
	 M127.6,117.8l-0.1-2.5 M134.1,155.5l-2,7.2 M139.6,164.5l-7.4-1.9 M206.3,126.9l1.5-2.6 M204.6,118.6l3.2,5.6 M180.6,89.3l0.1,0.2
	 M141.4,95.9l-1.3,1.9 M137.3,100.7l0.4-0.3 M130.4,146.3l-2.4,6.9 M134.1,155.5l-6.1-2.2 M190.5,165.1l7.6-1.8 M196.2,156l1.9,7.2
	 M106.3,220.9l-16.4-4.4 M87.9,207.2l2,9.5 M204.6,118.6l0.4-2.5 M201.7,111l3.3,5.2 M147.5,166l-1.1,7.5 M155.5,174.4l-9.1-1
	 M128.4,137.3l-2.8,6.7 M130.4,146.3l-4.8-2.4 M134.8,103.4l-3.2,4.6 M130.8,110.2l0.8-2.1 M195.1,100.6l-0.4-0.4 M148.2,92
	l-0.6,1.1 M147.1,93.2l0.4-0.2 M182.3,166.4l1,7.5 M174.1,174.6l9.1-0.8 M182.3,166.4l1,7.5 M196.2,156l6.4-2.1 M200.3,146.9l2.3,7
	 M127.8,128.5l-3,6.3 M128.4,137.3l-3.5-2.5 M184.2,90.8l0.4,0.7 M201.7,111l-0.4-2.2 M198.1,104l3.2,4.6 M156.1,166.9l-0.5,7.5
	 M164.8,174.8l-9.2-0.4 M200.3,146.9l5.1-2.2 M202.8,138.1l2.7,6.7 M144.1,233.6l-18.6-2 M124.4,224.2l1.1,7.5 M128.7,120.2
	l-3.1,5.9 M127.8,128.5l-2.2-2.4 M164.8,174.8l9.3-0.2 M173.6,167.1l0.4,7.5 M141.1,157.2l-1.5,7.3 M147.5,166l-8.1-1.4
	 M164.9,167.3l-0.1,7.5 M169,87.6h-1.4 M167.4,87.6H166 M162.9,87.7l1.6-0.1 M202.8,138.1l3.8-2.5 M203.8,129.3l2.8,6.3
	 M220.6,222.1l17-4 M239.5,208.7l-2,9.5 M139.3,97.5l-1.9,2.6 M143.7,94.6l0.4-0.2 M130.8,112.6l-3.2,5.2 M128.7,120.2l-1.2-2.4
	 M182.3,166.4l8.2-1.3 M189,157.7l1.4,7.4 M176.2,88.4l-0.4-0.1 M182.4,234.1l18.8-1.7 M202.2,225l-1,7.5 M202.2,225l-1,7.5
	 M203.8,129.3l2.5-2.5 M203.2,121l3,5.9 M87.9,207.2L73,201.7 M136.1,148.4l-2,7.1 M141.1,157.2l-6.9-1.8 M187.4,92.5l0.8,1.1
	 M198.1,104l-1.3-1.9 M193.7,98.1l3,4.1 M180.6,89.3l-0.6-0.2 M203.2,121l1.3-2.4 M201.5,113.2l3.1,5.4 M134,105.5l-3.2,4.8
	 M130.8,112.6l-0.1-2.3 M148.6,158.7l-1.1,7.4 M156.1,166.9l-8.5-1 M132.8,139.6l-2.4,6.8 M136.1,148.4l-5.7-2.1 M189,157.7l7.2-1.7
	 M194.4,149l1.9,7.1 M181.3,158.9l1,7.5 M173.6,167.1l8.7-0.7 M181.3,158.9l1,7.5 M163.3,234.5l-19.2-0.9 M143.5,226.2l0.6,7.5
	 M140.6,96.4l0.8-0.6 M180.9,89.4l-0.4-0.2 M180.2,88.8l0.4,0.5 M131,130.9l-2.8,6.4 M132.8,139.6l-4.5-2.3 M201.5,113.2l0.4-2.2
	 M198.5,106.2l3.2,4.8 M194.4,149l5.9-2 M198.1,140.2l2.2,6.8 M163.3,234.5l19.2-0.4 M182.9,226.6l-0.4,7.5 M137.9,99.2l-3.1,4.2
	 M134,105.5l0.8-2 M156.6,159.5l-0.5,7.5 M164.9,167.3l-8.8-0.4 M130.8,122.5l-2.9,5.9 M131,130.9l-3.2-2.4 M192.7,97.1l-0.9-0.8
	 M164.9,167.3l8.8-0.2 M173.2,159.6l0.4,7.5 M239.5,208.7l15.5-5.1 M142.7,150l-1.6,7.2 M148.6,158.7l-7.6-1.3 M163.2,227.1l0.1,7.5
	 M198.1,140.2l4.7-2.1 M200.2,131.6l2.6,6.5 M165,159.8l-0.1,7.5 M131.8,114.7l-3.1,5.5 M130.8,122.5l-2-2.3 M198.5,106.2l-0.4-2.1
	 M194.8,99.8l3.2,4.3 M181.7,87.5l0.6,0.9 M124.4,224.2l-18-3.3 M104.8,211.5l1.5,9.4 M181.3,158.9l7.7-1.2 M187.7,150.6l1.3,7.2
	 M200.2,131.6l3.6-2.2 M200.8,123.2l2.9,6 M134,107.5l-3.2,5 M131.8,114.7l-1.1-2.1 M138.1,141.5l-2,6.8 M142.7,150l-6.5-1.7
	 M142.3,93.9l-3,3.6 M137.9,99.2l1.3-1.8 M200.8,123.2l2.3-2.2 M200.1,115.4l3,5.6 M168.2,85.2l-3.2-0.1 M165.1,83.2l-0.2,1.9
	 M164,85.2l1.1-0.1 M146.2,91.3l0.4-0.3 M171,85.4h-0.5 M169.5,85.3l-0.9-0.1 M168.3,83.4l0.1,0.5 M149.8,151.3l-1.1,7.3
	 M156.6,159.5l-8.1-0.9 M171.6,84l0.1,0.3 M172,85.1l0.2,0.3 M194.8,99.8l-1.1-1.8 M190.6,94.4l3,3.6 M187.7,150.6l6.7-1.6
	 M192.5,142.1l1.9,6.9 M188.9,92.8l-2.3-1.3 M184.1,88.6l0.4,0.4 M135.2,133l-2.3,6.6 M138.1,141.5l-5.3-1.9 M200.1,115.4l1.2-2.2
	 M198.3,108.2l3.2,5 M202.2,225l18.4-2.9 M222.1,212.8l-1.4,9.3 M137.2,101l-3.2,4.4 M134,107.5l-0.1-2.1 M180.4,151.6l1,7.3
	 M173.2,159.6l8.1-0.7 M180.4,151.6l1,7.3 M157.1,85.9l0.8-0.2 M174.3,83.8l0.1,0.2 M174.8,84.8l0.4,0.6 M133.8,124.6l-2.8,6.2
	 M135.2,133l-4.1-2.1 M192.5,142.1l5.5-1.8 M195.8,133.5l2.2,6.7 M157.3,152.1l-0.6,7.4 M165,159.8l-8.3-0.3 M198.3,108.2l0.4-2
	 M195.3,101.6l3.2,4.4 M155.4,85.5l-0.7,0.9 M153.6,86.6l1.1-0.3 M165,159.8l8.3-0.2 M172.7,152.3l0.4,7.4 M143.5,92.9l0.6-0.5
	 M133.7,116.8l-3,5.6 M133.8,124.6l-3-2.1 M165,152.5l-0.1,7.3 M179.5,86.9l-0.7-0.2 M178.3,86l0.4,0.6 M144.2,143.1l-1.5,6.9
	 M149.8,151.3l-7.1-1.3 M141.1,95.4l-3.1,3.8 M137.2,101l0.7-1.8 M195.8,133.5l4.4-2 M197.6,125.4l2.7,6.2 M190.6,94.4l-1.7-1.5
	 M186.1,89.7l0.7,0.7 M180.4,151.6l7.3-1.1 M186.3,143.6l1.4,7 M135,109.5l-3.1,5.1 M133.7,116.8l-1.9-2.1 M151.5,87.3l0.2-0.1
	 M195.3,101.6l-0.4-1.9 M191.7,96l3.1,3.8 M197.6,125.4l3.3-2.1 M198,117.5l2.9,5.7 M182.4,87.8l-0.7-0.3 M140.2,134.8l-2,6.8
	 M144.2,143.1l-6-1.6 M104.8,211.5l-16.9-4.4 M137.2,102.9l-3.2,4.6 M135,109.5l-1-2 M143.5,226.2l-19.1-2 M123.3,214.9l1.1,9.3
	 M198,117.5l2.1-2.1 M197,110.2l3.1,5.2 M150.8,144.3l-1.1,7.1 M157.3,152.1l-7.6-0.8 M145.3,90.7l-3,3.2 M141.1,95.4l1.2-1.5
	 M186.3,143.6l6.3-1.5 M190.6,135.3l1.9,6.8 M151.5,85.8l-1.2,1.1 M148.7,88.5l0.4-0.2 M137.6,126.6l-2.4,6.4 M140.2,134.8l-5-1.8
	 M179.5,144.5l0.9,7.1 M172.7,152.3l7.6-0.6 M179.5,144.5l0.9,7.1 M167.3,83.2h-2.1 M165.2,82.4l-0.1,0.7 M164.5,83.2h0.6
	 M197,110.2l1.2-1.9 M195,103.5l3.2,4.7 M169.7,83.3l-0.4-0.1 M168.7,83.2l-0.4-0.1 M168.1,82.5l0.2,0.6 M191.7,96l-1.1-1.6
	 M187.6,91.2l3,3.3 M140.4,97l-3.3,4 M137.2,102.9l-0.1-1.9 M182.9,226.6l19.3-1.7 M203.2,215.7l-1,9.3 M203.2,215.7l-1,9.3
	 M159.5,83.6l1.1-0.1 M185.1,89.2l-1.1-0.6 M181.6,86.2l1.1,1.1 M174.3,83.8l-0.8-0.1 M172.8,83.7l-1.5-0.2 M170.6,82.1l0.1,0.2
	 M170.8,82.4l0.1,0.2 M157.9,145.1l-0.5,7.1 M165,152.5l-7.7-0.4 M136.4,118.8l-2.7,5.9 M137.6,126.6l-3.8-1.9 M190.6,135.3l5.2-1.8
	 M193.5,127.2l2.3,6.4 M165,152.5l7.7-0.2 M172.3,145.2l0.4,7.2 M160.1,82.4l-0.4,0.6 M156.3,84.2l0.7-0.2 M165.1,145.3l-0.2,7.2
	 M172.9,82.3l0.4,0.5 M173.5,82.9l0.4,0.4 M195,103.5l0.4-1.8 M192.1,97.6l3.2,4.1 M222.1,212.8l17.4-4.1 M145.8,136.2l-1.6,6.8
	 M150.8,144.3l-6.7-1.1 M136.7,111.4l-3,5.4 M136.4,118.8l-2.8-1.9 M146.4,89.8l0.4-0.4 M193.5,127.2l4.1-1.9 M195,119.4l2.6,5.9
	 M157.1,83.4l-0.8,0.9 M155.6,84.4l0.7-0.2 M144.2,92l-3.1,3.4 M140.4,97l0.5-1.7 M179.5,144.5l6.8-1 M184.8,136.6l1.4,6.8
	 M175.3,82.7l1.3,1.3 M138,104.8l-3,4.9 M136.7,111.4l-1.7-1.9 M187.6,91.2l-1.5-1.3 M183.3,87.2l2.8,2.6 M163.2,227.1l-19.7-0.9
	 M142.9,216.9l0.5,9.2 M195,119.4l3-1.9 M195.1,112.1l2.9,5.4 M192.1,97.6l-0.4-1.6 M188.5,92.5l3.2,3.5 M142.1,128.3l-2,6.5
	 M145.8,136.2l-5.6-1.4 M163.2,227.1l19.7-0.4 M183.3,217.4l-0.4,9.2 M152,137.3l-1.1,6.8 M157.9,145.1l-7-0.8 M140.4,98.7l-3.2,4.2
	 M138,104.8l-0.8-1.8 M195.1,112.1l1.9-1.9 M194,105.3l3,4.9 M181.6,86.2l-2.1-1 M177.6,83.7l1.9,1.5 M184.8,136.6l5.8-1.3
	 M188.8,128.8l1.9,6.5 M178.5,137.6l1,6.9 M172.3,145.2l7.2-0.6 M178.5,137.6l1,6.9 M163.1,217.8l0.1,9.2 M148.3,87.9l-3,2.8
	 M144.2,92l1.1-1.3 M140,120.6l-2.4,6 M142.1,128.3l-4.6-1.7 M194,105.3l1.1-1.8 M191.8,99.2l3.2,4.3 M153.9,83.9l-2.4,1.9
	 M150.3,86.5l1.2-0.6 M188.5,92.5l-0.9-1.3 M184.6,88.3l3,2.8 M158.5,138.1l-0.6,7 M165.1,145.3l-7.3-0.2 M143.7,93.5l-3.2,3.6
	 M140.4,98.7V97 M139.2,113.3l-2.8,5.6 M140,120.6l-3.6-1.8 M165.1,145.3l7.2-0.2 M171.9,138.1l0.4,6.9 M188.8,128.8l4.7-1.6
	 M191.3,121.1l2.2,6 M183.3,87.2l-1.7-1 M180.6,85.4l1,0.7 M167.9,81.6h-2.5 M165.4,81.3v0.4 M162.8,81.8l2.6-0.2 M170.5,81.9
	l-2.6-0.2 M167.6,80.7l0.1,0.3 M165.2,138.3l-0.1,6.9 M163.4,81.1l-0.4,0.7 M161.8,81.9l1.1-0.2 M147.4,129.6l-1.6,6.6 M152,137.3
	l-6.2-1.1 M172.9,82.3l-2.4-0.4 M170.2,81.5l0.4,0.4 M191.8,99.2l0.4-1.7 M188.9,93.9l3.3,3.6 M139.6,106.4l-3,5 M139.2,113.3
	l-2.5-1.8 M160.9,81.6l-0.5,0.5 M159.1,82.4l1.2-0.3 M191.3,121.1l3.8-1.8 M192.3,113.8l2.7,5.6 M175.3,82.7l-2.3-0.5 M171.6,81.1
	l1.2,1.1 M178.5,137.6l6.3-1 M183.3,130l1.4,6.7 M152.4,84.7l-2.8,2.1 M148.3,87.9l1.4-1.1 M147.3,89.1l-3.1,2.9 M143.7,93.5
	l0.4-1.4 M123.3,214.9l-18.4-3.3 M141.2,100.3l-3.1,4.4 M139.6,106.4l-1.6-1.8 M156.4,83.1l1.6-0.5 M192.3,113.8l2.8-1.8
	 M192.2,107.1l2.9,5.1 M184.6,88.3l-1.2-1.1 M180.4,84.9l2.9,2.1 M144.2,122.2l-2,6.1 M147.4,129.6l-5.2-1.3 M177.2,83.4l-2-0.6
	 M174,81.9l1.2,0.8 M188.9,93.9l-0.4-1.3 M185.3,89.5l3.2,3 M153.1,130.7l-1.1,6.8 M158.5,138.1l-6.5-0.6 M192.2,107.1l1.8-1.8
	 M190.9,100.8l3,4.4 M143.7,94.9l-3.2,3.8 M141.2,100.3l-0.7-1.6 M157.9,81.8l-1,0.6 M153.9,83.9l1.9-0.7 M183.3,130l5.4-1.2
	 M186.9,122.6l1.9,6.2 M177.6,131l1,6.7 M171.9,138.1l6.6-0.6 M177.6,131l1,6.7 M142.4,114.9l-2.4,5.7 M144.2,122.2l-4.2-1.5
	 M179,84.1l-1.8-0.7 M176.1,82.6l1.1,0.7 M151.3,85.6l-3,2.2 M147.3,89.1l1-1.2 M203.2,215.7l18.9-2.9 M190.9,100.8l0.9-1.6
	 M188.6,95.3l3.2,3.9 M159.1,131.3l-0.5,6.8 M165.2,138.3l-6.8-0.3 M146.9,90.3l-3.2,3.2 M143.7,94.9v-1.4 M165.2,138.3l6.7-0.2
	 M171.4,131.5l0.4,6.8 M185.3,89.5l-0.7-1.1 M181.5,85.9l3,2.4 M142,108.1l-2.8,5.1 M142.4,114.9l-3.2-1.7 M186.9,122.6l4.4-1.4
	 M188.9,115.3l2.2,5.8 M156.5,82.4l-2.5,1.5 M152.4,84.7l1.5-0.8 M165.3,131.6l-0.1,6.8 M148.9,123.4l-1.5,6.2 M153.1,130.7
	l-5.7-1.1 M180.4,84.9l-1.3-0.9 M176.4,82.6l2.6,1.5 M188.6,95.3l0.3-1.4 M185.6,90.7l3.2,3.2 M142.7,101.8l-3,4.6 M142,108.1
	l-2.2-1.7 M167.6,80.7h-2 M165.8,80.1l-0.2,0.5 M163.4,80.7l2.1-0.1 M188.9,115.3l3.4-1.5 M189.7,108.6l2.6,5.2 M169.6,80.8l-2-0.2
	 M167.3,80.1l0.4,0.5 M177.6,131l5.8-1 M181.9,123.8l1.4,6.3 M164.2,80.2l-0.4,0.3 M171.6,81.1l-2-0.4 M168.8,80.2l0.8,0.5
	 M150.6,86.5l-3.2,2.5 M146.9,90.3l0.4-1.1 M144.3,96.2l-3.1,4.1 M142.7,101.8l-1.4-1.5 M162.6,80.3l-1.2,0.6 M159.6,81.4l1.9-0.4
	 M155.2,83.1l-2.8,1.7 M151.3,85.6l1.2-1 M189.7,108.6l2.4-1.5 M189.3,102.3l2.9,4.7 M173.4,81.5l-1.8-0.4 M170.2,80.4l1.3,0.6
	 M146.2,116.3l-2,5.9 M148.9,123.4l-4.7-1.2 M181.5,85.9l-1.1-1 M177.6,83.3l2.8,1.7 M185.6,90.7l-0.4-1.2 M182.1,86.9l3.1,2.5
	 M161.3,80.7l-1.7,0.7 M157.9,81.8l1.7-0.4 M154.1,124.3l-1.1,6.4 M159.1,131.3l-6-0.6 M189.3,102.3l1.6-1.5 M187.8,96.8l3.1,4.1
	 M175.1,82l-1.7-0.5 M171.6,80.7l1.8,0.8 M146.9,91.5l-3.2,3.4 M144.3,96.2l-0.6-1.3 M181.9,123.8l5-1.1 M184.9,116.6l1.9,5.9
	 M176.6,124.6l1,6.4 M171.4,131.5l6.1-0.5 M176.6,124.6l1,6.4 M144.7,109.5l-2.3,5.3 M146.2,116.3l-3.8-1.3 M160,81l-2.1,0.8
	 M156.5,82.4l1.4-0.6 M154.3,83.8l-3,1.8 M150.6,86.5l0.7-1 M187.8,96.8l0.8-1.4 M185.5,92l3.1,3.4 M142.9,216.9l-19.6-2
	 M176.4,82.6l-1.3-0.6 M172.8,81.1L175,82 M159.7,124.9l-0.6,6.4 M165.3,131.6l-6.3-0.3 M150.1,87.6l-3.2,2.7 M146.9,91.5v-1.2
	 M144.6,103.2l-2.7,4.9 M144.7,109.5l-2.8-1.4 M165.3,131.6l6.1-0.2 M171,125l0.4,6.4 M184.9,116.6l4-1.3 M186.7,110l2.2,5.3
	 M182.1,86.9l-0.6-1 M178.5,84l3,1.9 M165.4,125.2l-0.1,6.4 M158.9,81.5l-2.4,1 M155.2,83.1l1.2-0.6 M150.6,117.4l-1.6,5.9
	 M154.1,124.3l-5.2-1 M185.5,92l0.2-1.2 M182.4,88l3.2,2.8 M145.5,97.6l-2.9,4.2 M144.6,103.2l-1.9-1.4 M177.6,83.3l-1.1-0.7
	 M173.8,81.6l2.6,1 M186.7,110l3-1.4 M187.2,103.7l2.7,4.9 M176.6,124.6l5.3-0.8 M180.5,117.7l1.3,6 M183.3,217.4l19.9-1.8
	 M153.7,84.6l-3.1,2 M150.1,87.6l0.4-1 M147.5,92.8l-3.1,3.6 M145.5,97.6l-1.2-1.3 M187.2,103.7l2.1-1.3 M186.4,98.1l2.9,4.3
	 M167.3,80.1h-1.5 M165.9,80.1l-0.2,0.1 M164.2,80.2l1.5-0.1 M168.8,80.2l-1.5-0.1 M166.8,80.1l0.4,0.1 M158,81.9l-2.8,1.1
	 M154.3,83.8l0.9-0.8 M164.9,80.1l-0.6,0.1 M162.6,80.3l1.5-0.2 M148.2,110.8l-2,5.5 M150.6,117.4l-4.4-1.1 M170.2,80.4l-1.4-0.2
	 M167.9,80.1l0.9,0.1 M182.4,88l-0.3-1 M178.9,84.8l3.2,2.1 M163.9,80.3l-1.2,0.1 M161.3,80.7l1.3-0.3 M178.5,84l-0.9-0.7
	 M174.7,82.1l2.8,1.2 M186.4,98.1l1.3-1.3 M184.7,93.1l3,3.6 M171.6,80.7l-1.3-0.3 M168.9,80.3l1.3,0.2 M150.1,88.6l-3.2,2.9
	 M147.5,92.8l-0.5-1.2 M155.3,118.3l-1.1,6 M159.7,124.9l-5.5-0.6 M180.5,117.7l4.4-1.1 M183.1,111.1l1.9,5.5 M162.9,80.4l-1.6,0.2
	 M160,81l1.2-0.4 M175.6,118.4l1,6 M171,125l5.5-0.5 M175.6,118.4l1,6 M147.2,104.6l-2.4,5 M148.2,110.8l-3.5-1.2 M172.8,81.1
	l-1.2-0.4 M169.8,80.5l1.9,0.2 M184.7,93.1l0.7-1.1 M182.2,88.9l3.2,2.9 M157.3,82.4l-3,1.3 M153.7,84.6l0.6-0.7 M162.1,80.7L160,81
	 M158.9,81.5l1.1-0.4 M153.3,85.4l-3.2,2.1 M150.1,88.6v-1 M160.2,118.8l-0.5,6 M165.4,125.2l-5.7-0.3 M147.3,99l-2.8,4.4
	 M147.2,104.6l-2.6-1.3 M173.8,81.6l-1.1-0.4 M170.6,80.8l2.1,0.4 M178.9,84.8l-0.4-0.8 M175.4,82.6l3,1.3 M183.1,111.1l3.6-1.1
	 M184.4,104.9l2.3,5.1 M165.4,125.2l5.6-0.2 M170.6,119l0.4,6 M163.1,217.8l-20.2-0.9 M165.5,119l-0.1,6.1 M182.2,88.9l0.2-1
	 M179.2,85.6l3.2,2.3 M148.5,93.9l-3,3.7 M147.3,99l-1.8-1.3 M152.1,111.8l-1.5,5.6 M155.3,118.3l-4.7-0.9 M161.4,80.9l-2.5,0.5
	 M158,81.9l0.9-0.5 M184.4,104.9l2.8-1.2 M184.5,99.3l2.7,4.4 M174.7,82.1l-0.9-0.5 M171.3,81.1l2.6,0.5 M163.1,217.8l20.2-0.4
	 M150.6,89.6l-3.1,3.1 M148.5,93.9l-1.1-1.1 M175.6,118.4l4.9-0.7 M179.1,112.1l1.4,5.6 M156.8,83.1l-3.1,1.5 M153.3,85.4l0.4-0.9
	 M184.5,99.3l1.9-1.2 M183.5,94.3l2.9,3.8 M160.8,81.3l-2.8,0.6 M157.3,82.4l0.7-0.5 M179.2,85.6l-0.3-0.8 M175.8,83.2l3.1,1.6
	 M150.2,105.7l-2,5.1 M152.1,111.8l-3.8-1 M153.4,86.2l-3.3,2.4 M150.6,89.6l-0.4-1 M183.5,94.3l1.2-1.1 M181.7,90l3,3.1
	 M175.4,82.6l-0.6-0.6 M171.9,81.5l2.9,0.6 M166.8,80.1h-1 M166.1,80.6l-0.3-0.5 M164.9,80.1l1.1-0.1 M167.9,80.1l-1.1-0.1
	 M166.6,80.6l0.4-0.5 M156.3,112.6l-1.1,5.7 M160.2,118.8l-5-0.5 M165.6,80.6l-0.7-0.4 M163.9,80.3l1-0.2 M168.9,80.3l-1-0.2
	 M167,80.7l0.9-0.5 M179.1,112.1l4-1 M181.2,106l1.9,5.1 M165,80.7l-1.2-0.4 M162.9,80.4l1-0.2 M181.7,90l0.5-1 M179,86.4l3.2,2.5
	 M149.6,100l-2.4,4.5 M150.2,105.7l-3-1.1 M169.8,80.5l-0.9-0.2 M167.5,80.7l1.3-0.4 M174.7,112.8l0.9,5.7 M170.6,119l5.1-0.5
	 M174.7,112.8l0.9,5.7 M160.2,81.6l-3,0.8 M156.8,83.1l0.4-0.6 M156.5,83.7l-3.2,1.8 M153.4,86.2l-0.1-0.8 M164.6,80.7l-1.7-0.3
	 M162.1,80.7l0.8-0.2 M170.6,80.8l-0.9-0.3 M168,80.8l1.8-0.3 M150,95l-2.8,4 M149.6,100l-2.2-1.1 M175.8,83.2l-0.4-0.6 M172.3,81.8
	l3,0.9 M181.2,106l3.1-1.1 M182.1,100.4l2.2,4.5 M179,86.4l0.2-0.8 M175.9,83.9l3.3,1.8 M160.9,113.1l-0.6,5.7 M165.5,119l-5.2-0.2
	 M164.2,80.9l-2.1-0.2 M161.4,80.9l0.7-0.3 M151.5,90.6l-3,3.3 M150,95l-1.5-1.1 M171.3,81.1l-0.6-0.3 M168.4,80.9l2.2-0.2
	 M165.5,119l5.1-0.1 M170.2,113.2l0.4,5.8 M165.6,113.3l-0.1,5.8 M182.1,100.4l2.3-1.1 M181.9,95.3l2.6,4 M153.7,106.6l-1.6,5.2
	 M156.3,112.6l-4.3-0.8 M153.8,87l-3.1,2.6 M151.5,90.6l-0.9-1 M163.8,81l-2.4-0.1 M160.8,81.3l0.6-0.4 M160,82l-3.1,1 M156.5,83.7
	l0.3-0.6 M171.9,81.5l-0.5-0.4 M168.8,81.1h2.5 M181.9,95.3l1.6-1.1 M180.6,90.9l2.9,3.3 M175.9,83.9l-0.1-0.6 M172.6,82.2l3.2,1.1
	 M174.7,112.8l4.4-0.6 M177.7,106.9l1.4,5.2 M156.6,84.2l-3.2,1.9 M153.8,87l-0.4-0.8 M180.6,90.9l1.1-1 M178.5,87.3l3.1,2.7
	 M163.4,81.1l-2.8,0.2 M160.2,81.6l0.4-0.4 M152.3,101l-2,4.7 M153.7,106.6l-3.5-0.9 M172.3,81.8l-0.4-0.4 M169,81.2l2.8,0.2
	 M178.5,87.3l0.4-0.9 M175.8,84.5l3.2,1.9 M159.8,82.4l-3.2,1.2 M156.6,84.2l-0.1-0.6 M163.4,81.4l-3,0.3 M160,82l0.4-0.4 M151.9,96
	l-2.3,4.1 M152.3,101l-2.7-1 M157.4,107.3l-1.1,5.2 M160.9,113.1l-4.6-0.5 M177.7,106.9l3.6-0.9 M179.3,101.3l1.9,4.7 M175.8,84.5
	l0.1-0.6 M172.7,82.6l3.2,1.3 M172.6,82.2l-0.3-0.4 M169.3,81.5l3,0.4 M152.7,91.5L150,95 M151.9,96l-1.9-1 M166.6,80.6h-0.4
	 M166.3,81.6l-0.2-1 M165.6,80.6h0.5 M167,80.7l-0.4-0.1 M166.3,81.6l0.3-1 M166.3,81.6l-0.7-1 M165,80.7l0.4-0.1 M173.8,107.5
	l1,5.2 M170.2,113.2l4.6-0.4 M173.8,107.5l1,5.2 M167.5,80.7l-0.4-0.1 M166.3,81.6l0.7-1 M154.5,87.8l-3,2.8 M152.7,91.5l-1.2-0.9
	 M166.3,81.6l-1.2-1 M164.6,80.7l0.4-0.1 M168,80.8l-0.4-0.1 M166.3,81.6l1.2-0.9 M179.3,101.3l2.8-1 M179.9,96.2l2.2,4.1
	 M166.3,81.6l-1.7-0.9 M164.2,80.9l0.4-0.2 M156.9,84.9l-3.1,2.1 M154.5,87.8l-0.7-0.8 M168.4,80.9l-0.4-0.2 M166.3,81.6l1.7-0.8
	 M163.2,81.6L160,82 M159.8,82.4L160,82 M166.3,81.6l-2.1-0.7 M163.8,81l0.4-0.2 M179.9,96.2l2-1 M179.3,91.8l2.7,3.6 M161.5,107.8
	l-0.5,5.3 M165.6,113.3l-4.7-0.2 M168.8,81.1l-0.4-0.2 M166.3,81.6l2.1-0.6 M172.7,82.6l-0.1-0.4 M169.3,81.6l3.2,0.5 M159.9,82.9
	l-3.2,1.3 M156.9,84.9l-0.3-0.6 M179.3,91.8l1.3-0.9 M177.7,88l2.9,2.9 M165.6,113.3l4.6-0.1 M169.7,107.9l0.4,5.3 M166.3,81.6
	l-2.5-0.6 M163.4,81.1l0.4-0.2 M177.7,88l0.8-0.7 M175.4,85l3,2.2 M155.3,101.8l-1.6,4.8 M157.4,107.3l-3.8-0.7 M169,81.2l-0.3-0.2
	 M166.3,81.6l2.5-0.5 M165.7,107.9l-0.1,5.3 M175.4,85l0.4-0.6 M172.6,83.1l3.2,1.4 M166.3,81.6l-2.8-0.4 M163.4,81.4l0.2-0.2
	 M163.1,81.7l-3.3,0.7 M159.9,82.9l-0.1-0.4 M169.3,81.5l-0.3-0.2 M166.3,81.6l2.8-0.4 M173.8,107.5l3.8-0.6 M176.1,102.1l1.4,4.9
	 M172.6,83.1l0.1-0.4 M169.4,81.8l3.2,0.8 M166.3,81.6l-3-0.2 M163.2,81.6l0.2-0.2 M154.2,96.8l-2,4.3 M155.3,101.8l-3-0.8
	 M169.3,81.6l-0.1-0.2 M166.3,81.6l3-0.2 M154.3,92.3l-2.4,3.6 M154.2,96.8l-2.3-0.8 M157.4,85.5l-2.9,2.3 M155.5,88.5l-1-0.7
	 M160,83.2l-3.1,1.7 M157.4,85.5l-0.4-0.6 M155.5,88.5l-2.8,2.9 M154.3,92.3l-1.6-0.8 M166.3,81.6h-3.1 M163.1,81.7l0.1-0.2
	 M163.1,81.9l-3.2,1 M160,83.2l-0.2-0.4 M169.4,81.8l-0.1-0.2 M166.3,81.6l3,0.1 M176.1,102.1l3.1-0.7 M177.5,97l1.9,4.4
	 M158.6,102.4l-1.1,4.9 M161.5,107.8l-4-0.4 M174.8,85.6l0.6-0.6 M172.3,83.4l3.1,1.7 M172.3,83.4l0.3-0.4 M169.4,82l3.1,1
	 M166.3,81.6l-3.2,0.2 M163.1,81.9v-0.2 M176.7,88.8l1.1-0.7 M174.8,85.6l2.9,2.4 M177.5,97l2.4-0.7 M177.6,92.6l2.3,3.6 M169.4,82
	v-0.2 M166.3,81.6l3.1,0.2 M177.6,92.6l1.7-0.8 M176.7,88.8l2.6,3 M172.8,102.5l1,4.9 M169.7,107.9l4.1-0.4 M172.8,102.5l1,4.9
	 M166.3,81.6l-3.2,0.4 M163.2,82.2l-0.1-0.2 M167.2,83.1l-0.9-1.4 M167.6,83l-1.3-1.3 M168.1,82.9l-1.8-1.3 M168.4,82.7l-2.1-1.1
	 M168.8,82.6l-2.5-1 M169.1,82.4l-2.8-0.9 M169.3,82.3l-3-0.6 M169.4,82l-3.1-0.4 M163.2,82.2l3.1-0.6 M163.4,82.4l3-0.8
	 M163.5,82.5l2.8-1 M163.9,82.6l2.4-1.1 M164.2,82.8l2-1.2 M164.7,83l1.6-1.3 M165.1,83.1l1.1-1.4 M165.7,83.1l0.6-1.5 M166.2,83.1
	l0.1-1.5 M166.6,83.1l-0.4-1.5 M167.2,83.1l-0.9-1.4 M163.2,82.2l-3.1,1.1 M160.3,83.7l-0.4-0.4 M169.3,82.3l0.2-0.2 M160.3,83.7
	l-3,1.8 M158.2,86l-0.8-0.5 M172,83.8l0.4-0.4 M169.3,82.3l3,1.1 M162.1,102.8l-0.6,5 M165.7,107.9l-4.2-0.2 M163.4,82.4l-0.2-0.2
	 M156.8,97.5l-1.5,4.4 M158.6,102.4l-3.3-0.6 M169.1,82.4l0.2-0.2 M165.7,107.9l4-0.1 M169.3,102.8l0.4,5 M158.2,86l-2.8,2.5
	 M156.7,89.2l-1.2-0.6 M174,86.2l0.8-0.5 M172,83.8l2.8,1.9 M165.8,102.9l-0.1,5 M163.5,82.5l-0.3-0.2 M160.3,83.7l3-1.3
	 M156.7,89.2l-2.4,3.1 M156.3,93l-1.9-0.7 M156.3,93l-2,3.7 M156.8,97.5l-2.6-0.7 M172.8,102.5l3.4-0.5 M174.8,97.6l1.3,4.4
	 M160.8,84l-0.4-0.4 M168.8,82.6l0.4-0.2 M172,83.8l-2.9-1.3 M175.3,89.3l1.4-0.5 M174,86.2l2.7,2.6 M171.4,84.1l0.5-0.4
	 M163.9,82.6l-0.4-0.2 M160.8,84l2.8-1.5 M168.4,82.7l0.4-0.2 M171.4,84.1l-2.7-1.5 M175.6,93.2l1.9-0.6 M175.3,89.3l2.2,3.3
	 M174.8,97.6l2.7-0.6 M175.6,93.2l1.9,3.7 M160.8,84l-2.7,1.9 M159.1,86.5l-1-0.5 M164.2,82.8l-0.4-0.2 M161.5,84.3l2.4-1.7
	 M168.1,82.9l0.4-0.2 M170.7,84.4l-2.2-1.7 M161.5,84.3l-0.6-0.3 M159.7,98l-1.1,4.4 M162.1,102.8l-3.6-0.4 M173,86.6l1-0.5
	 M171.4,84.1l2.6,2 M164.7,83l-0.4-0.2 M162.3,84.6l2-1.8 M170.7,84.4l0.7-0.3 M167.6,83l0.4-0.1 M169.9,84.7l-1.9-1.8 M159.1,86.5
	l-2.4,2.7 M158.2,89.6l-1.5-0.5 M171.9,98.1l1,4.4 M169.3,102.8l3.6-0.3 M171.9,98.1l1,4.4 M165.1,83.1l-0.4-0.1 M163.2,84.8
	l1.5-1.9 M167.2,83.1l0.4-0.1 M169,84.9l-1.3-1.9 M165.7,83.1l-0.4-0.1 M164.1,84.9l1.1-1.9 M158.4,93.6l-1.6,3.9 M159.7,98
	l-2.9-0.5 M166.6,83.1l0.5-0.1 M168.1,85l-0.9-2 M168.1,85l-0.9-2 M158.2,89.6l-2,3.3 M158.4,93.6l-2.1-0.6 M162.3,84.6l-0.8-0.3
	 M159.1,86.5l2.3-2.1 M166.2,83.1h-0.5 M165,85.1l0.5-2 M173.7,89.9l1.6-0.6 M173,86.6l2.2,2.7 M166.2,83.1h0.4 M167.1,85.1l-0.4-2
	 M166.1,85.2l0.1-2.1 M160.2,86.9l-1.1-0.4 M162.6,98.3l-0.5,4.4 M165.8,102.9l-3.6-0.2 M169.9,84.7l0.8-0.3 M173,86.6l-2.3-2.2
	 M165.8,102.9l3.6-0.1 M168.8,98.3l0.4,4.4 M171.9,98.1l3-0.4 M173.4,93.7l1.4,3.9 M173.4,93.7l2.2-0.5 M173.7,89.9l1.9,3.3
	 M171.9,87l1.2-0.4 M165.8,98.4l-0.1,4.4 M163.2,84.8l-0.9-0.2 M160.2,86.9l2-2.3 M169,84.9l0.9-0.2 M171.9,87l-1.9-2.3 M160.2,86.9
	l-2,2.8 M160,90.2l-1.7-0.5 M160.8,94l-1.1,4 M162.6,98.3l-3-0.3 M161.6,87.2l-1.2-0.3 M164.1,84.9l-0.9-0.2 M161.6,87.2l1.6-2.4
	 M171.9,90.3l1.8-0.4 M171.9,87l1.9,2.9 M160,90.2l-1.5,3.4 M160.8,94l-2.3-0.4 M168.1,85l1-0.2 M170.5,87.3l-1.4-2.5 M171,94.1
	l0.9,4 M168.8,98.3l3-0.3 M171,94.1l0.9,4 M170.5,87.3l1.3-0.4 M165,85.1l-1.1-0.2 M163,87.5l1.1-2.5 M171,94.1l2.4-0.4 M171.9,90.3
	l1.4,3.5 M167.1,85.1l1-0.1 M169,87.6l-1-2.5 M169,87.6l-1-2.5 M166.1,85.2l-1.1-0.1 M164.4,87.7l0.6-2.5 M163.3,94.3l-0.5,4.1
	 M165.8,98.4l-3.1-0.2 M166.1,85.2l1-0.1 M167.5,87.7l-0.4-2.6 M163,87.5l-1.4-0.3 M166,87.7l0.1-2.5 M160,90.2l1.6-2.9 M161.8,90.4
	l-1.9-0.3 M165.8,98.4l3-0.1 M168.4,94.3l0.4,4.1 M169,87.6l1.4-0.2 M171.9,90.3l-1.4-2.9 M165.9,94.4l-0.1,4.1 M170,90.6l1.9-0.4
	 M161.8,90.4l-1.1,3.6 M163.3,94.3l-2.5-0.2 M170,90.6l1,3.5 M168.4,94.3l2.6-0.2 M170,90.6l1,3.5 M164.4,87.7l-1.4-0.2 M161.8,90.4
	l1.1-2.9 M167.5,87.7l1.5-0.2 M170,90.6l-1-3 M170,90.6l-1-3 M163.9,90.7l-2-0.2 M166,87.7l-1.6-0.1 M163.9,90.7l0.5-3 M163.9,90.7
	l-0.6,3.6 M165.9,94.4l-2.7-0.2 M168,90.8l2-0.2 M166,87.7h1.4 M168,90.8l-0.4-3 M165.9,94.4l2.5-0.1 M168,90.8l0.4,3.6 M165.9,90.8
	l0.1-3.1 M165.9,90.8l-0.1,3.6 M165.9,90.8l-2.1-0.2 M165.9,90.8l2-0.1"/>
<path class="st2" d="M408.2,51h128.9v34.3H449v62.5H531v33.7H449v96.2h-40.8V51z"/>
<path class="st2" d="M576.6,51h39.8v38.2h-39.8V51z M576.6,115.8h39.8v161.9h-39.8V115.8z"/>
<path class="st2" d="M645.9,115.8h115.3v31.7l-75.5,99.8h77.4v30.5H643.9v-32.4l73.5-99.8h-71.6V115.8z"/>
<path class="st2" d="M912.7,192.9h42.8c-0.4,26.1-8.1,47.6-23,64.5c-15.1,17.7-35.5,26.5-61.2,26.2c-29.8-0.4-52.6-12.3-68.3-35.6
	c-13.6-19.4-20.4-47.3-20.4-83.6c0-36.3,6.8-64.1,20.4-83.6c15.8-23.3,38.5-35.2,68.3-35.6c25.9-0.4,46.2,8.3,60.9,26.2
	c14,16.8,21,37.9,21,63.2h-41.5c1.3-15.8-1.8-29.1-9.4-40.2c-7.8-10.8-18.4-15.8-31.7-14.9c-17.5,0.6-30,9.6-37.6,26.9
	c-5.2,12.1-7.8,31.2-7.8,57.3c0,25.3,2.6,43.8,7.8,55.7c7.6,18.6,20.3,28.1,38.2,28.5c15.8,0,27.2-6.4,34.3-19.1
	C910.4,219.4,912.7,207.4,912.7,192.9z"/>
<path class="st2" d="M979.8,196.8c0-26.1,6.5-47.1,19.4-62.8c13.2-16,31.1-24,53.8-24s40.6,8,53.8,24c13,15.8,19.4,36.7,19.4,62.8
	c0,26.1-6.5,47.1-19.4,62.8c-13.2,16-31.1,24-53.8,24s-40.6-8-53.8-24C986.3,243.9,979.8,222.9,979.8,196.8z M1021.6,196.1
	c0,14.7,1.3,25.9,3.9,33.7c1.9,6,4.8,10.9,8.6,14.4c3.8,3.6,7.1,5.8,10,6.6c2.9,0.9,5.9,1.3,8.9,1.3c13.2,0,22.3-7.5,27.5-22.4
	c2.6-7.8,3.9-19,3.9-33.7s-1.3-25.9-3.9-33.7c-5.2-14.9-14.4-22.4-27.5-22.4c-3,0-6,0.4-8.9,1.3s-6.3,3.1-10,6.6s-6.6,8.4-8.6,14.4
	C1022.9,170.2,1021.6,181.5,1021.6,196.1z"/>
<path class="st2" d="M1167.5,51h39.8v38.2h-39.8V51z M1167.5,115.8h39.8v161.9h-39.8V115.8z"/>
<path class="st2" d="M1246.2,115.8h37.9l1.9,16.5c3-5.8,7.7-10.5,13.9-13.9c8-4.8,16.9-7.1,26.9-7.1c19.6-0.2,34.1,6.8,43.4,21.1
	c1.7,2.6,3.1,5.5,4.2,8.6c1.1,3.1,1.9,5.8,2.6,8.1s1.1,5.4,1.5,9.4c0.3,4,0.5,6.7,0.5,8.1s0,4.4,0,9.1c0,4.6,0,7.1,0,7.3v94.9h-40.8
	v-94.6c0-13.4-0.8-22-2.3-25.9c-4.1-9.5-11.2-14.2-21.4-14.2c-10.8,0-18.8,4.8-24,14.2c-3,5.4-4.5,16.2-4.5,32.4v88.1h-39.8
	L1246.2,115.8L1246.2,115.8z"/>
<rect x="1147.6" y="115.8" class="st2" width="39.8" height="38.2"/>
<rect x="556.6" y="115.8" class="st2" width="39.8" height="38.2"/>
</svg>
