<?xml version="1.0" encoding="utf-8"?>
<!-- Generator: Adobe Illustrator 26.0.2, SVG Export Plug-In . SVG Version: 6.00 Build 0)  -->
<svg version="1.1" id="Слой_1" xmlns="http://www.w3.org/2000/svg" xmlns:xlink="http://www.w3.org/1999/xlink" x="0px" y="0px"
	 viewBox="0 0 1457.89 512" style="enable-background:new 0 0 1457.89 512;" xml:space="preserve">
<style type="text/css">
	.st0{fill:#00A99A;}
	.st1{fill:none;stroke:#FFFFFF;stroke-width:3;stroke-miterlimit:10;}
	.st2{fill:#FFFFFF;}
</style>
<g>
	<circle class="st0" cx="207.03" cy="256" r="164.4"/>
</g>
<path id="XMLID_1_" class="st1" d="M200.82,252.31L200.82,252.31 M251.09,260.04L251.09,260.04 M252.16,257.29l-0.09,0.18
	 M269.57,254.45l-0.44-0.09 M136.06,262.35l1.24-0.27 M279.7,267.5l-0.18-0.09 M281.92,263.86l-5.42-1.69 M180.47,223.18
	L180.47,223.18 M260.69,245.65l-0.18-0.09 M271.61,247.96l-3.29-0.71 M134.02,257.38l7.11-1.95 M188.11,258.44l-0.18,0.53
	 M284.05,258.89l-11.46-3.55 M271.61,247.96l-1.07,3.64 M125.93,270.88l7.99-3.11 M136.06,262.35l0.44,0.89 M136.86,263.86
	l0.09,0.18 M145.47,238.63l5.06-0.98 M140.23,268.57L140.23,268.57 M128.33,273.1l2.93-1.07 M131.88,250.98l13.59-3.73
	 M145.47,238.63l1.24,6.13 M123.44,267.33l12.61-4.89 M134.02,257.38l2.13,4.97 M273.39,239.88l-10.13-2.22 M257.84,226.46
	l-0.09,0.98 M291.24,272.48l-11.55-4.97 M279.52,267.68l0.18-0.18 M281.92,263.86l-2.22,3.64 M286.27,252.58l-14.66-4.53
	 M273.39,239.88l-1.78,8.08 M288.67,274.7l-6.31-2.66 M275.61,270.88l0.18-0.09 M121.05,262.44l12.97-5.06 M131.88,250.98l2.13,6.4
	 M293.82,269.01l-11.9-5.15 M284.05,258.89l-2.13,4.97 M286.18,275.85l-1.42-0.62 M188.38,257.64v0.18 M188.02,258.44L188.02,258.44
	 M257.84,226.46l-0.71-0.18 M129.84,242.99l15.72-4.44 M143.79,228.95l1.69,9.68 M296.4,264.31l-12.35-5.33 M286.27,252.58
	l-2.13,6.4 M143.79,228.95l12.79-2.49 M160.4,213.76l0.44,4.8 M146.27,269.46l0.18-0.09 M264.77,267.95l-0.53-0.18 M118.56,256.13
	l13.32-5.24 M129.84,242.99l2.13,7.99 M129.93,273.81l-1.6-0.71 M118.56,278.34l9.77-5.24 M125.93,270.88l2.4,2.22 M288.49,244.59
	l-15.1-4.71 M275.17,230.19l-1.78,9.68 M115.81,276.3l10.13-5.42 M123.44,267.33l2.49,3.55 M275.17,230.19l-17.32-3.73
	 M259.27,214.74l-1.33,11.73 M121.4,279.41l7.82-4.17 M270.99,270.7l-0.18-0.09 M113.05,272.92l10.39-5.6 M121.05,262.44l2.4,4.89
	 M204.81,210.39h-0.8 M212.99,210.47h-0.71 M298.97,258l-12.7-5.42 M288.49,244.59l-2.22,7.99 M297.82,280.21l-9.15-5.51
	 M286.18,275.85l2.49-1.15 M291.24,272.48l-2.58,2.13 M231.55,256.58l-0.62-0.09 M300.66,278.16l-9.42-5.6 M293.82,269.01
	l-2.58,3.46 M163.77,259.69l-0.27,0.53 M124.07,279.32l3.11-1.69 M295.06,281.09l-8.88-5.24 M285.2,275.85h0.98 M160.4,213.76
	l3.38-0.36 M110.3,268.21l10.75-5.77 M118.56,256.13l2.49,6.31 M303.59,274.88l-9.77-5.86 M296.4,264.31l-2.58,4.8 M256.78,263.86
	l-1.42-0.44 M127.71,233.39l16.08-4.44 M142.19,217.31l1.6,11.64 M259.27,214.74l-9.24-1.33 M116.16,248.41l13.68-5.33
	 M127.71,233.39l2.13,9.59 M292.13,281.01l-5.33-3.2 M306.35,270.26l-9.95-6.04 M298.97,258l-2.58,6.31 M290.71,235.08l-15.55-4.89
	 M277.03,218.65l-1.87,11.55 M202.59,248.41L202.59,248.41 M301.55,250.27l-13.06-5.6 M290.71,235.08l-2.13,9.5 M142.19,217.31
	l18.21-3.55 M147.87,266.79l0.36-0.18 M141.21,269.28l0.36-0.09 M107.54,262.17l11.01-6.04 M116.16,248.41l2.4,7.82 M163.6,259.78
	l0.18-0.09 M286.98,278.61l-0.27-0.09 M121.4,279.41l-2.84-0.98 M111.1,284.2l7.46-5.86 M115.81,276.3l2.75,2.13 M107.99,282.34
	l7.82-6.04 M113.05,272.92l2.75,3.29 M238.75,254.53l-0.62-0.18 M277.03,218.65l-17.77-3.91 M124.07,279.32l-2.75,0.09 M114.03,285
	l7.28-5.6 M105.06,279.14l8.08-6.22 M110.3,268.21l2.84,4.71 M309.19,264.22L298.97,258 M301.55,250.27l-2.58,7.73 M126.46,278.52
	l-2.31,0.8 M117.05,284.83l7.11-5.51 M304.57,286.16l-6.75-6.04 M295.06,281.09l2.84-0.98 M300.66,278.16l-2.84,2.04 M307.68,284.29
	l-7.02-6.13 M303.59,274.88l-2.93,3.29 M113.67,238.81l14.04-5.42 M125.67,221.93l2.13,11.46 M276.94,271.86l0.27,0.27
	 M301.55,286.96l-6.48-5.86 M292.13,281.01l2.93,0.09 M125.67,221.93l16.61-4.62 M102.04,274.7l8.17-6.4 M107.54,262.17l2.75,6.04
	 M310.7,281.27l-7.2-6.4 M306.35,270.26l-2.84,4.62 M104.79,254.45l11.37-6.04 M113.67,238.81l2.49,9.5 M119.98,283.67l5.95-4.53
	 M298.53,286.69l-6.4-5.6 M289.29,280.03l2.84,0.98 M202.5,248.41L202.5,248.41 M141.21,268.92l-0.27,0.18 M304.04,240.68
	l-13.32-5.6 M292.93,223.62l-2.22,11.46 M262.02,260.4l0.36,0.53 M292.93,223.62l-15.9-4.97 M295.42,285.45l-6.13-5.42
	 M288.05,279.14l1.24,0.89 M277.3,271.77l-0.27-0.18 M313.81,276.74l-7.37-6.48 M309.19,264.22l-2.84,6.04 M312.12,256.49
	l-10.57-6.31 M304.04,240.68l-2.49,9.5 M129.49,276.65l0.18-0.18 M124.87,280.29l0.44-0.27 M99.11,268.75l8.44-6.57 M104.79,254.45
	l2.75,7.73 M114.03,285l-3.02-0.8 M106.66,289.71l4.44-5.51 M107.99,282.34l3.02,1.87 M117.05,284.83l-3.02,0.18 M109.23,291.04
	l4.8-6.04 M245.5,252.49l-0.44-0.18 M103.46,288.02l4.62-5.69 M105.06,279.14l3.02,3.2 M119.98,283.67l-3.02,1.15 M112.25,290.69
	l4.71-5.86 M99.73,285.8l5.33-6.66 M102.04,274.7l3.02,4.44 M111.19,227.53l14.39-5.6 M101.95,245.12l11.64-6.31 M111.19,227.53
	l2.4,11.28 M316.83,270.88l-7.64-6.75 M312.12,256.49l-2.93,7.64 M166.7,252.67l0.36-0.09 M307.06,289.89l-2.49-3.73 M301.55,286.96
	l3.02-0.8 M307.68,284.29l-3.02,1.87 M126.55,278.61l0.18-0.09 M127.35,277.99l0.36-0.27 M304.39,291.13l-2.84-4.18 M298.53,286.69
	l3.02,0.27 M310.25,288.2l-2.58-3.91 M310.7,281.27l-3.02,3.02 M123.09,281.72l-3.02,1.95 M115.45,289.36l4.53-5.69 M302.17,292.2
	l-3.73-5.51 M295.42,285.45l3.02,1.24 M96,261.2l8.79-6.75 M101.95,245.12l2.84,9.33 M306.61,229.48l-13.68-5.86 M96.53,281.45
	l5.51-6.75 M99.11,268.75l3.02,5.95 M313.81,285.89l-3.11-4.62 M313.81,276.74l-3.02,4.44 M280.76,272.39l0.71,0.8 M314.87,247.25
	l-10.84-6.57 M306.61,229.48l-2.58,11.19 M299.33,291.13l-3.82-5.69 M292.4,283.4l3.02,2.04 M126.02,279.05l-3.02,2.66
	 M118.65,287.13l4.44-5.51 M319.85,263.51l-7.82-6.93 M314.87,247.25l-2.84,9.24 M318.07,283.23l-4.26-6.4 M316.83,270.88
	l-3.02,5.86 M259.98,256.58l-0.18-0.09 M112.25,290.69l-3.02,0.44 M296.04,289l-3.73-5.6 M289.29,280.56l3.02,2.84 M93.33,275.76
	l5.69-7.02 M96,261.2l3.02,7.55 M281.74,273.19l-0.98-0.89 M99.73,285.8l0.27,0.18 M115.45,289.36l-3.2,1.33 M111.72,292.29
	l0.53-1.69 M128.06,276.74l-2.04,2.22 M121.76,284.2l4.26-5.24 M99.28,234.01l11.99-6.4 M93.06,252.05l8.97-6.93 M99.28,234.01
	l2.75,11.1 M99.64,285.8L99.64,285.8 M96.53,281.45l3.2,4.35 M118.65,287.13l-3.11,2.13 M113.94,293.35l1.51-4.09 M139.35,264.84
	l-0.18,0.27 M321.54,278.07l-4.71-7.2 M319.85,263.51l-3.02,7.46 M292.84,285.98l-3.55-5.33 M286.27,277.19l3.02,3.38
	 M299.33,291.13l2.49,1.15 M317.72,236.24l-11.1-6.75 M127.71,277.19l0.27-0.18 M121.76,284.2l-3.11,2.93 M116.43,292.82l2.13-5.6
	 M90.22,268.48l5.77-7.2 M93.06,252.05l3.02,9.15 M299.77,293.26l-0.44-2.13 M296.04,289l3.2,2.13 M322.96,254.36l-8.08-7.11
	 M317.72,236.24l-2.84,11.01 M95.91,283.14l0.53-1.69 M93.33,275.76l3.11,5.69 M289.73,282.34l-3.46-5.15 M283.16,273.19l3.02,4
	 M220.09,235.97l-0.27-0.09 M297.37,294.33l-1.24-5.33 M292.84,285.98l3.2,3.02 M135.7,266.79l0.27-0.18 M147.43,256.13l0.18-0.09
	 M191.4,236.06l0.89-0.09 M124.87,280.65l-3.11,3.55 M119.71,289.71l2.04-5.51 M324.82,270.88l-4.89-7.37 M322.96,254.36l-3.02,9.15
	 M321.54,278.07l-2.49,4.44 M103.46,296.91l0.18,0.09 M130.2,273.99l0.53-0.71 M163.15,241.57l-0.18,0.27 M91.73,280.12l1.6-4.35
	 M90.22,268.48l3.11,7.28 M263.09,250.71l0.09,0.18 M90.04,241.03l9.15-7.11 M294.26,291.49l-1.33-5.6 M289.73,282.34l3.11,3.64
	 M116.43,292.82l-1.24,0.98 M286.54,278.16l-3.29-4.89 M128.06,276.56l-3.11,4.09 M123,285.98l1.95-5.24 M87.11,259.42l5.95-7.37
	 M90.04,241.03l3.02,11.01 M321.98,279.85l-0.44-1.78 M324.82,270.88l-3.2,7.2 M119.71,289.71l-3.29,3.11 M116.52,294.33l-0.09-1.51
	 M325.98,243.43l-8.26-7.2 M142.45,259.06l0.27-0.18 M290.98,287.67l-1.24-5.33 M286.54,278.16l3.2,4.18 M327.93,261.91l-4.97-7.55
	 M325.98,243.43l-3.02,10.93 M87.56,275.5l2.66-7.11 M87.11,259.42l3.11,9.06 M93.95,289.27l-0.09-0.71 M294.26,291.49l3.02,2.93
	 M264.42,251.51l-1.24-0.8 M123,285.98l-3.2,3.73 M119.89,295.31l-0.18-5.6 M162.89,241.74l0.36-0.18 M131.26,271.94l-3.2,4.62
	 M126.2,281.63l1.87-5.06 M287.78,283.32l-1.24-5.15 M283.34,273.54l3.11,4.62 M293.47,295.84l0.71-4.35 M290.98,287.67l3.2,3.82
	 M323.31,285.36l-0.44,0.71 M325.98,275.94l-1.24-5.15 M327.93,261.91l-3.11,8.97 M126.2,281.63l-3.2,4.35 M123.09,291.31
	l-0.18-5.33 M139.17,260.57l-0.27,0.36 M137.57,262.97l0.44-0.53 M84,248.67l6.13-7.55 M134.37,266.97l-3.11,4.97 M129.4,276.83
	l1.87-4.89 M119.89,295.31l-0.27,0.18 M290.09,293l0.89-5.24 M287.78,283.32l3.2,4.44 M84.18,267.15l2.93-7.73 M84,248.67
	l3.11,10.75 M312.92,304.1l-0.36,0.18 M284.49,278.34l-1.15-4.89 M280.14,268.48l3.2,5.06 M129.4,276.83l-3.2,4.8 M126.38,286.78
	l-0.18-5.15 M331.13,251.16l-5.15-7.73 M293.38,296.99L293.38,296.99 M123.09,291.31l-3.2,4 M120.07,295.66l-0.18-0.36
	 M142.37,254.89l-0.44,0.8 M318.96,298.06l-0.27,0.36 M151.69,242.63l-0.09,0.18 M90.93,290.42l0.71,1.15 M286.89,288.38l0.89-5.15
	 M284.49,278.34l3.29,4.89 M137.57,261.55l-3.11,5.33 M132.59,271.68l1.78-4.71 M329.89,269.64l-1.95-7.73 M331.13,251.16
	l-3.2,10.66 M84.18,267.15l2.84,7.73 M293.2,297.17l0.18-0.18 M290.09,293l2.49,3.2 M126.38,286.78l-3.2,4.53 M125.58,296.46
	l-2.4-5.24 M112.25,316.18l-0.36-0.36 M132.59,271.68l-3.2,5.24 M129.57,281.72l-0.18-4.89 M281.3,273.1l-1.15-4.62 M276.94,263.06
	l3.2,5.42 M317.54,300.37l1.33-2.31 M302.79,311.92h-0.36 M287.25,297.97l2.93-4.97 M286.89,288.38l3.2,4.53 M195.13,216.16v0.18
	 M329.89,269.64l-0.71,1.95 M224.09,221.76l-0.44-0.09 M283.69,283.32l0.8-4.89 M281.3,273.1l3.2,5.24 M308.74,310.85l-0.44,0.18
	 M91.29,291.22l-0.36-0.8 M90.67,289.8l0.36,0.62 M129.57,281.72l-3.2,4.97 M128.69,291.84l-2.31-5.06 M246.56,226.82l0.27,0.62
	 M140.68,256.04l-3.11,5.6 M135.88,266.08l1.69-4.44 M80.98,256.58l3.02-7.99 M151.6,242.72L151.6,242.72 M125.58,296.46l-0.62,0.89
	 M106.3,313.07l-5.86-6.57 M97.33,302.77l3.11,3.64 M292.93,306.23l0.36-0.27 M307.86,311.74l0.89-0.89 M135.88,266.08l-3.2,5.6
	 M132.77,276.3l-0.18-4.71 M284.05,293.35l2.93-4.97 M283.69,283.32l3.2,5.15 M278.1,267.5l-1.15-4.44 M273.83,257.29l3.11,5.69
	 M178.7,218.74l-0.18,0.53 M175.85,224.33l0.18-0.09 M156.93,235.88l0.18-0.09 M84.36,271.32l-0.18-4.17 M80.98,256.58l3.2,10.57
	 M317.98,299.93l4.18-7.2 M325.36,285.89l-3.2,6.84 M128.69,291.84l-3.11,4.71 M127,298.15l-1.42-1.69 M280.5,277.81l0.8-4.71
	 M278.1,267.5l3.2,5.6 M132.77,276.3l-3.2,5.42 M131.79,286.6l-2.22-4.89 M305.1,315.12l6.66-6.4 M314.78,304.99l-3.02,3.64
	 M333.08,259.15l-1.95-7.99 M121.49,317.16l-0.8-0.62 M123,321.51l-0.27-0.18 M112.61,316.09l1.07-0.09 M103.37,309.61l-6.04-6.75
	 M94.22,297.62l3.02,5.15 M143.88,250.27l-3.2,5.77 M139.17,260.31l1.51-4.26 M194.69,216.25l0.44-0.09 M284.05,293.35l3.02,4.62
	 M91.11,290.95l-3.38-7.46 M84.54,274.97l3.2,8.53 M280.85,288.11l2.84-4.89 M280.5,277.81l3.2,5.51 M329.71,270.61l0.18-0.98
	 M333.08,259.15l-3.2,10.48 M139.17,260.31l-3.29,5.77 M136.06,270.52l-0.27-4.44 M298.08,317.96L298.08,317.96 M131.79,286.6
	l-3.11,5.24 M132.95,296.64l-4.26-4.89 M290.36,314.41l0.27-0.18 M117.49,321.16l-8.17-5.95 M106.3,313.07l3.02,2.13 M274.81,261.64
	l-1.07-4.35 M270.55,251.51l3.2,5.77 M234.13,218.65l-0.36-0.09 M307.94,311.65l6.84-6.57 M317.98,299.93l-3.11,5.15 M136.06,270.52
	l-3.29,5.77 M134.99,280.92l-2.13-4.62 M284.85,307.48L284.85,307.48 M258.02,232.68l0.27,0.44 M277.3,272.03l0.71-4.44
	 M274.81,261.64l3.2,5.86 M278.99,298.06l4.97-4.71 M280.85,288.11l3.11,5.24 M321,293.35l4.35-7.46 M328.55,277.45l-3.2,8.44
	 M178.43,218.91l0.36-0.18 M293.2,322.93l8.97-5.77 M305.1,315.12l-2.93,2.13 M100.44,304.63l-6.22-6.93 M91.11,290.95l3.11,6.75
	 M114.74,319.2l-8.44-6.13 M103.37,309.61l3.02,3.46 M284.76,307.57L284.76,307.57 M277.83,282.43l2.66-4.62 M277.3,272.03
	l3.11,5.77 M132.95,296.64l-1.69,2.84 M134.99,280.92l-3.11,5.6 M135.88,291.22l-4.09-4.62 M146.98,244.32l-3.11,5.95
	 M142.37,254.27l1.51-4.09 M81.34,264.57l-0.36-7.99 M142.37,254.27l-3.2,6.04 M139.26,264.57l-0.09-4.26 M148.67,242.28l0.18-0.18
	 M211.65,210.92h-0.36 M276.23,292.64l4.71-4.44 M277.83,282.43l3.02,5.69 M196.37,207.9l-0.36,2.13 M195.66,211.27h0.18
	 M278.99,298.06l1.24,2.13 M139.26,264.57l-3.2,6.04 M138.01,275.05l-1.95-4.44 M295.86,320.98l9.24-5.95 M307.94,311.65l-2.93,3.46
	 M310.79,306.77l7.2-6.84 M321,293.35l-3.02,6.57 M271.52,255.6l-0.98-4.09 M267.44,245.56l3.11,6.04 M244.79,221.67l-0.44-0.18
	 M125.75,324.8l-5.51-2.93 M88,282.6l-3.46-7.64 M81.34,264.57l3.2,10.39 M274.1,265.9l0.71-4.26 M271.52,255.6l3.29,6.04
	 M135.88,291.22l-3.02,5.42 M139.26,301.17l-6.31-4.44 M274.63,323.11l1.07-0.53 M112.07,315.92l-8.79-6.31 M100.44,304.63
	l2.93,4.97 M258.29,232.86l-0.27-0.18 M227.02,207.63l0.09,0.18 M138.01,275.05l-3.02,5.95 M138.9,285.36l-3.91-4.44 M274.72,276.39
	l2.58-4.44 M274.1,265.9l3.2,6.04 M331.66,267.06l1.33-7.99 M128.06,326.49l-10.57-5.33 M114.74,319.2l2.75,1.95 M290.8,323.64
	h-0.18 M273.12,301.88l5.86-3.82 M276.23,292.64l2.84,5.51 M97.51,298.06l-6.4-7.2 M88,282.6l3.11,8.35 M273.3,286.78l4.53-4.35
	 M274.72,276.39l3.02,6.04 M247.81,218.65l0.18,0.53 M324.02,285l4.53-7.55 M331.66,267.06l-3.11,10.3 M145.56,248.14l-3.2,6.13
	 M142.54,258.44l-0.18-4.09 M150.18,238.37l-3.11,5.95 M145.56,248.14l1.42-3.82 M138.9,285.36l-3.02,5.86 M141.83,295.57
	l-5.95-4.35 M298.44,317.78l9.59-6.13 M310.79,306.77l-2.84,4.89 M139.26,301.17l-0.27,0.36 M142.54,258.44l-3.2,6.13
	 M141.12,268.84l-1.87-4.26 M151.69,236.5l0.36-0.44 M282.01,328.09l11.19-5.15 M295.86,320.98l-2.66,1.95 M125.67,324.71
	l-10.84-5.51 M112.07,315.92l2.66,3.29 M268.33,249.47l-0.89-3.91 M264.24,239.52l3.2,6.04 M270.9,259.69l0.62-4.09 M268.33,249.47
	l3.2,6.13 M141.12,268.84l-3.11,6.22 M141.83,279.23l-3.82-4.18 M269.57,296.82l6.57-4.18 M273.3,286.78l2.93,5.86 M158.35,227.26
	l0.36-0.18 M313.72,300.37l7.28-7.02 M324.02,285l-3.02,8.35 M271.61,270.08l2.49-4.17 M270.9,259.69l3.2,6.22 M109.41,311.12
	l-8.97-6.48 M97.51,298.06l3.02,6.48 M246.92,218.29l-0.44-0.18 M241.5,214.83l0.62,1.42 M141.83,295.57l-2.66,5.6 M140.86,301.97
	l-1.6-0.89 M272.95,323.91l0.18,0.18 M142.63,331.55l-0.44-0.18 M141.83,279.23l-3.02,6.13 M144.59,289.53l-5.69-4.18
	 M190.24,202.57v0.18 M186.6,207.81l0.36-0.09 M270.37,280.56l4.35-4.09 M271.61,270.08l3.11,6.31 M284.23,326.31l11.55-5.24
	 M298.44,317.78l-2.58,3.29 M227.2,207.72l-0.27-0.09 M269.57,296.82l2.49,5.33 M148.76,242.01l-3.2,6.13 M145.74,252.05l-0.18-3.91
	 M301.02,313.07l9.77-6.31 M313.72,300.37l-2.93,6.4 M84.8,272.39l-3.55-7.91 M145.74,252.05l-3.2,6.4 M144.32,262.35l-1.78-4
	 M153.29,232.42l-3.11,5.95 M148.76,242.01l1.33-3.64 M266.99,290.78l6.31-4.09 M270.37,280.56l2.93,6.22 M140.59,331.11
	l-12.53-4.62 M125.67,324.71l2.4,1.78 M123.27,321.51l-11.19-5.6 M109.41,311.12l2.75,4.8 M245.23,213.41l0.09,0.18 M144.59,289.53
	l-2.75,6.04 M149.56,299.39l-7.73-3.82 M232.08,204.35l0.18,0.53 M144.32,262.35l-3.11,6.4 M144.76,272.83l-3.64-4.09
	 M158.98,223.44l-0.44,0.98 M154.8,230.55l0.44-0.53 M267.7,253.29l0.62-3.82 M265.13,243.16l3.2,6.31 M94.49,289.89L88,282.6
	 M84.8,272.39l3.11,10.22 M265.13,243.16l-0.89-3.64 M261.04,233.57l3.2,6.04 M268.59,263.68l2.31-4 M267.7,253.29l3.2,6.4
	 M261.49,300.55l8.08-3.73 M266.99,290.78l2.58,6.04 M144.76,272.83l-2.93,6.4 M147.34,283.23l-5.51-4 M154.98,333.59l-1.78-0.44
	 M142.63,331.55l0.27-0.09 M268.77,332.44l13.24-4.35 M284.23,326.31l-2.22,1.78 M267.53,274.08l4.09-4 M268.59,263.68l3.02,6.4
	 M149.56,299.39l-1.78,4.18 M286.63,323.2l11.81-5.42 M301.02,313.07l-2.66,4.71 M165.55,215.09l-0.27,0.44 M204.64,196.88v0.18
	 M327.22,274.88l4.53-7.82 M106.66,304.72l-9.15-6.66 M94.49,289.89l3.02,8.17 M138.55,329.42l-12.97-4.8 M123.27,321.51l2.31,3.2
	 M156.49,335.19l-1.69-0.44 M147.34,283.23l-2.75,6.4 M151.96,293.26l-7.28-3.64 M255.53,334.39l9.59-2.31 M217.96,197.51l0.18,0.98
	 M264.42,284.47l6.04-3.91 M267.53,274.08l2.93,6.4 M261.49,300.55l1.42,3.73 M316.56,292.2l7.46-7.2 M327.22,274.88L324.11,285
	 M148.94,245.65l-3.2,6.4 M147.43,255.87l-1.69-3.82 M152.05,235.97l-3.2,6.04 M148.94,245.65l-0.18-3.64 M147.43,255.87l-3.11,6.48
	 M147.78,266.26l-3.46-3.91 M252.6,336.17l1.87-0.44 M259.27,294.33l7.82-3.55 M264.42,284.47l2.66,6.4 M156.4,226.55l-3.11,5.95
	 M152.05,235.97l1.24-3.46 M270.72,330.75l13.5-4.44 M286.63,323.2l-2.31,3.11 M151.96,293.26l-2.31,6.13 M158.71,302.77l-9.15-3.38
	 M120.87,316.98l-11.46-5.86 M106.66,304.72l2.75,6.4 M147.78,266.26l-3.02,6.57 M150,276.65l-5.24-3.73 M154.89,334.93l-14.3-3.73
	 M138.55,329.42l2.04,1.69 M303.59,306.77l10.04-6.4 M316.56,292.2l-2.93,8.17 M242.65,208.25l0.09,0.18 M264.42,246.81l0.62-3.64
	 M261.93,236.95l3.2,6.22 M265.48,257.11l2.13-3.82 M264.42,246.81l3.2,6.4 M162,217.85l-0.62,1.24 M158,224.6l0.44-0.53
	 M156.58,335.19l0.27-0.18 M261.93,236.95l-0.89-3.38 M257.84,227.62l3.11,5.95 M264.6,267.41l3.91-3.73 M265.48,257.11l3.02,6.57
	 M230.4,200.17l0.09,0.27 M251.89,303.75l9.59-3.2 M259.27,294.33l2.22,6.22 M158.71,302.77l-0.89,2.58 M150,276.65l-2.66,6.57
	 M154.36,286.78l-7.02-3.55 M136.59,326.4l-13.24-4.89 M120.87,316.98l2.4,4.53 M261.84,277.81l5.69-3.64 M264.6,267.41l2.93,6.66
	 M254.11,335.9l14.75-3.46 M270.72,330.75l-1.95,1.69 M288.85,318.58l12.26-5.6 M303.59,306.77l-2.58,6.31 M171.68,337.95
	l-15.1-2.75 M154.89,334.93l1.6,0.27 M168.21,209.85l-0.27,0.44 M164.84,215.54l0.36-0.18 M251.89,303.75l0.71,2.13 M154.36,286.78
	l-2.4,6.48 M160.66,296.46l-8.79-3.29 M256.96,287.85l7.37-3.38 M261.84,277.81l2.58,6.66 M204.46,196.88h0.18 M242.65,208.25
	l-0.44-0.18 M153.38,333.33l-14.83-3.82 M136.59,326.4l2.04,3.02 M152.14,239.34l-3.2,6.4 M150.54,249.29l-1.6-3.64 M237.24,338.57
	l15.46-2.4 M254.11,335.9l-1.42,0.27 M150.54,249.29l-3.11,6.57 M150.72,259.6l-3.29-3.64 M272.59,327.82l14.04-4.62 M288.85,318.58
	l-2.22,4.53 M160.66,296.46l-2.04,6.31 M169.1,305.52l-10.39-2.75 M155.25,229.75l-3.2,6.13 M152.14,239.34l-0.18-3.38
	 M217.16,193.6l0.09,0.36 M250.03,297.35l9.15-3.02 M256.96,287.85l2.22,6.48 M232.44,324.8L232.44,324.8 M232.44,324.8
	L232.44,324.8 M91.55,279.94l-6.66-7.55 M171.77,337.77l0.18-0.09 M150.72,259.6l-3.02,6.75 M152.76,269.9l-4.97-3.64
	 M159.69,220.78l-3.2,5.77 M155.25,229.75l1.24-3.29 M191.13,198.13l0.36-0.09 M103.99,296.82l-9.5-6.84 M91.55,279.94l3.02,9.95
	 M169.1,305.52l-0.36,1.42 M222.49,325.69l9.95-0.89 M170.61,337.68l-15.72-2.75 M153.38,333.33l1.51,1.6 M172.3,207.63l0.36-0.18
	 M152.76,269.9l-2.75,6.75 M156.76,280.03l-6.75-3.38 M241.23,306.23l10.66-2.49 M250.03,297.35l1.87,6.4 M262.37,250.45l2.13-3.64
	 M261.31,240.41l3.11,6.4 M230.13,199.64l-0.71-0.18 M261.31,240.41l0.53-3.46 M258.64,230.91l3.2,6.04 M255.53,334.3l15.19-3.55
	 M272.59,327.82l-1.87,2.93 M261.75,260.75l3.82-3.64 M262.37,250.45l3.11,6.66 M259.18,270.88l5.51-3.46 M261.75,260.75l2.93,6.75
	 M156.76,280.03l-2.4,6.75 M162.71,289.89l-8.35-3.11 M241.23,306.23l0.36,1.24 M240.08,203.28l0.18,0.27 M187.76,339.63
	l-16.08-1.78 M170.61,337.68l1.07,0.18 M258.64,230.91l-0.8-3.29 M254.65,221.67l3.2,5.95 M118.47,310.76l-11.81-6.04
	 M103.99,296.82l2.66,7.99 M164.93,212.34l-0.18,0.36 M161.38,218.65l0.44-0.53 M204.46,338.75L204.46,338.75 M203.92,326.31h-0.62
	 M238.04,338.39l15.99-2.49 M255.53,334.3l-1.42,1.6 M187.85,339.54L187.85,339.54 M254.65,281.01l7.2-3.29 M259.18,270.88
	l2.66,6.84 M162.71,289.89l-2.04,6.66 M170.7,299.13l-9.95-2.58 M230.84,199.9l-0.62-0.18 M220.89,339.99l16.34-1.42 M238.04,338.39
	l-0.89,0.18 M238.04,338.39l-0.89,0.18 M134.55,321.96l-13.68-4.97 M118.47,310.76l2.4,6.22 M204.28,340.34l0.09-0.98
	 M248.25,290.69l8.79-2.93 M254.65,281.01l2.31,6.75 M319.49,282.25l7.73-7.37 M170.7,299.13l-1.6,6.4 M180.47,307.57l-11.46-2.04
	 M180.47,307.57l-0.18,0.71 M306.26,298.77l10.3-6.66 M319.49,282.25l-2.93,9.86 M239.72,299.84l10.3-2.49 M248.25,290.69l1.87,6.66
	 M151.78,330.4l-15.19-4 M134.55,321.96l2.04,4.44 M167.77,210.21l0.44-0.36 M204.28,340.34l-16.61-0.71 M187.14,339.46l0.53,0.18
	 M153.74,242.72l-3.11,6.57 M153.74,252.76l-3.11-3.46 M229.51,308.1l11.64-1.78 M239.72,299.84l1.42,6.4 M155.42,233.13l-3.2,6.22
	 M153.74,242.72l-1.51-3.38 M229.51,308.1l0.09,0.44 M229.51,308.1l0.09,0.44 M153.74,252.76l-3.02,6.75 M155.51,262.97l-4.71-3.38
	 M169.46,336.17l-16.08-2.84 M151.78,330.4l1.6,2.93 M291.07,312.54l12.53-5.77 M306.26,298.77l-2.66,7.99 M204.28,340.34
	l16.61-0.36 M221.34,339.81l-0.44,0.18 M187.14,339.46l-16.61-1.78 M169.46,336.17l1.15,1.51 M158.44,223.8l-3.2,6.04
	 M155.42,233.13l-0.18-3.29 M155.51,262.97l-2.75,6.93 M159.07,273.1l-6.4-3.2 M240.08,203.28l-0.53-0.18 M204.19,340.17l0.09,0.18
	 M216.8,193.24l-0.44-0.09 M274.46,323.38l14.39-4.8 M291.07,312.54l-2.22,6.04 M159.07,273.1l-2.31,6.93 M164.75,282.96l-7.99-2.93
	 M192.55,308.9v0.18 M221.34,339.81l16.7-1.42 M239.01,336.88l-0.98,1.42 M239.01,336.88l-0.98,1.42 M199.31,189.07l-0.09,0.27
	 M195.75,193.33h0.18 M258.82,253.82l3.55-3.38 M259.35,243.79l3.02,6.66 M259.35,243.79l2.04-3.38 M258.11,234.1l3.2,6.31
	 M217.43,309.08L217.43,309.08 M256.96,331.46l15.63-3.64 M274.46,323.38l-1.87,4.44 M162.8,215.09l-3.11,5.6 M158.44,223.8
	l1.24-3.02 M164.75,282.96l-2.04,6.84 M172.3,292.38l-9.59-2.49 M239.01,336.88l16.52-2.58 M256.96,331.46l-1.42,2.84 M256.6,263.95
	l5.15-3.29 M258.82,253.82l2.93,6.84 M181.63,301.08l-1.15,6.48 M192.55,308.9l-12.08-1.33 M172.3,292.38l-1.6,6.75 M181.63,301.08
	l-10.93-1.95 M204.9,309.34L204.9,309.34 M258.11,234.1l0.53-3.29 M255.36,224.78l3.29,6.04 M252.43,273.99l6.75-3.11 M256.6,263.95
	l2.58,6.93 M193.09,192.09l-0.27,0.62 M192.38,193.77l0.27-0.09 M176.65,199.64l-0.89,1.6 M228.71,301.53l0.89,6.48 M217.43,309.08
	l12.17-0.98 M228.71,301.53l0.89,6.48 M246.3,283.76l8.35-2.75 M252.43,273.99l2.22,7.02 M227.64,195.11l-0.36-0.09 M204.19,340.17
	l-17.06-0.71 M186.51,338.03l0.62,1.33 M238.3,293l9.86-2.31 M246.3,283.76l1.95,6.93 M228.71,301.53l11.1-1.78 M238.3,293
	l1.42,6.75 M255.36,224.78l-0.71-3.11 M251.45,216.07l3.2,5.6 M167.95,207.19l-3.02,5.15 M164.75,212.7l0.18-0.36 M204.19,340.17
	l17.14-0.36 M221.78,338.39l-0.44,1.33 M237.5,198.66l0.27,0.44 M193.09,302.32l-0.53,6.57 M204.9,309.34l-12.35-0.53 M204.1,338.75
	l0.09,1.33 M204.9,309.34l12.44-0.27 M216.89,302.59l0.44,6.48 M186.51,338.03l-17.06-1.87 M168.3,333.33l1.15,2.84 M204.99,302.77
	l-0.09,6.57 M182.69,294.24l-1.07,6.75 M193.09,302.32l-11.46-1.24 M156.58,246.01l-2.93,6.75 M158.09,256.04l-4.44-3.29
	 M156.84,236.32l-3.11,6.4 M156.58,246.01l-2.93-3.29 M158.09,256.04l-2.66,6.93 M161.46,266.08l-6.04-3.11 M158.62,226.91
	l-3.2,6.22 M156.84,236.32l-1.42-3.2 M173.81,285.36l-1.51,7.02 M182.69,294.24l-10.39-1.87 M161.46,266.08l-2.4,7.02 M166.7,275.94
	l-7.64-2.84 M168.3,333.33l-16.61-2.93 M150.18,326.04l1.6,4.35 M221.78,338.39l17.32-1.51 M239.99,334.13l-0.98,2.84
	 M239.99,334.13l-0.98,2.84 M166.7,275.94l-2.04,7.11 M173.81,285.36l-9.06-2.4 M227.73,294.69l0.98,6.84 M216.89,302.59l11.73-0.98
	 M227.73,294.69l0.98,6.84 M171.68,203.63l-0.71,1.15 M167.95,207.19l0.27-0.18 M150.18,326.04l-15.63-4.09 M132.59,315.92
	l1.95,6.04 M161.73,217.94l-3.29,5.86 M158.62,226.91l-0.18-3.11 M132.59,315.92l-14.12-5.24 M116.16,302.95l2.31,7.82
	 M116.16,302.95l-12.17-6.13 M101.24,286.96l2.75,9.86 M101.24,286.96l-9.77-7.02 M227.73,294.69l10.66-1.69 M236.88,285.98
	l1.42,7.02 M253.94,257.02l4.89-3.2 M255.89,247.07l2.93,6.75 M255.89,247.07l3.38-3.29 M256.16,237.21l3.11,6.57 M250.12,266.97
	l6.4-2.93 M253.94,257.02l2.66,6.93 M193.8,295.4l-0.62,6.84 M204.99,302.77l-11.9-0.53 M236.88,285.98l9.42-2.22 M244.43,276.65
	l1.87,7.11 M244.43,276.65l7.99-2.66 M250.12,266.97l2.22,7.11 M256.16,237.21l1.95-3.11 M254.91,227.8l3.2,6.31 M231.2,192.53
	l0.09,0.18 M239.99,334.13l16.97-2.58 M258.38,327.11l-1.33,4.35 M204.99,302.77l11.9-0.18 M216.54,295.66l0.44,6.93 M204.1,338.75
	l-17.59-0.71 M185.98,335.28l0.53,2.84 M165.91,209.68l-3.11,5.42 M161.73,217.94l1.07-2.84 M205.08,295.93l-0.09,6.84
	 M215.56,189.24h-0.18 M212.36,188.98h-0.44 M254.91,227.8l0.44-3.02 M252.16,218.91l3.2,5.95 M204.1,338.75l17.59-0.36
	 M222.13,335.64l-0.44,2.75 M258.38,327.11l16.08-3.73 M276.41,317.43l-1.95,6.04 M183.76,287.13l-1.15,7.11 M193.8,295.4
	l-11.1-1.15 M204.01,336.08l0.09,2.75 M276.41,317.43l14.75-4.89 M293.38,304.72l-2.22,7.82 M252.16,218.91l-0.71-2.84
	 M248.25,210.56l3.11,5.51 M226.75,287.58l0.98,7.11 M216.54,295.66l11.19-0.98 M226.75,287.58l0.98,7.11 M175.41,278.25l-1.6,7.2
	 M183.76,287.13l-9.95-1.78 M293.38,304.72l12.97-5.95 M308.83,289.09l-2.58,9.77 M169.01,205.5l-1.07,1.69 M225.24,190.84
	l-0.36-0.09 M168.75,268.75l-2.04,7.2 M175.41,278.25l-8.71-2.31 M238.39,199.1l-0.89-0.53 M235.02,194.22l0.53,0.98 M308.83,289.09
	l10.66-6.75 M163.95,258.98l-2.4,7.11 M168.75,268.75l-7.2-2.66 M160.84,249.12l-2.75,6.93 M163.95,258.98l-5.77-2.93
	 M185.98,335.28l-17.59-1.87 M167.24,329.06l1.15,4.26 M159.6,239.34l-3.02,6.75 M160.84,249.12l-4.26-3.02 M194.33,288.29
	l-0.53,7.2 M205.08,295.93l-11.37-0.53 M226.75,287.58l10.13-1.6 M235.46,278.78l1.33,7.2 M159.95,229.93l-3.11,6.4 M159.6,239.34
	l-2.75-3.02 M205.08,295.93l11.46-0.27 M216.01,288.47l0.44,7.2 M187.94,190.93l0.71-0.18 M243.45,202.92l1.24,1.95 M205.17,288.73
	l-0.09,7.2 M161.82,220.78l-3.2,6.04 M159.95,229.93l-1.33-3.02 M235.46,278.78l8.97-2.13 M242.48,269.46l1.95,7.2 M222.13,335.64
	l17.85-1.6 M240.97,329.86l-0.98,4.17 M240.97,329.86l-0.98,4.17 M242.48,269.46l7.64-2.49 M247.81,259.78l2.31,7.2 M247.81,259.78
	l6.13-2.75 M251.36,250l2.58,7.02 M251.36,250l4.62-2.93 M253.05,240.23l2.93,6.75 M164.93,212.25l-3.2,5.6 M161.82,220.78
	l-0.09-2.93 M253.05,240.23l3.11-3.02 M253.14,230.91l3.02,6.4 M184.92,279.85l-1.15,7.28 M194.33,288.29l-10.57-1.07
	 M167.24,329.06l-17.06-3.02 M148.67,320.18l1.51,5.95 M253.14,230.91l1.78-3.02 M251.72,221.76l3.2,6.04 M183.58,192.18l0.44-0.18
	 M225.78,280.29l0.98,7.28 M216.01,288.47l10.66-0.89 M225.78,280.29l0.98,7.28 M204.01,336.08l-18.12-0.8 M185.27,331.02l0.62,4.17
	 M176.92,270.88l-1.51,7.28 M184.92,279.85l-9.5-1.69 M251.72,221.76l0.44-2.93 M248.96,213.14l3.2,5.69 M231.82,192.89l-0.44-0.18
	 M169.1,204.52l-3.2,5.15 M164.93,212.25l0.98-2.58 M204.01,336.08l18.12-0.36 M222.67,331.37l-0.44,4.26 M194.95,280.92l-0.62,7.28
	 M205.17,288.73l-10.84-0.53 M170.79,261.46l-2.04,7.28 M176.92,270.88l-8.17-2.13 M240.97,329.86l17.41-2.75 M259.8,321.33
	l-1.42,5.86 M205.17,288.73l10.84-0.27 M215.65,281.18l0.44,7.28 M148.67,320.18L132.68,316 M130.64,308.19l2.04,7.73
	 M211.48,185.34h-0.18 M204.01,331.82l0.09,4.17 M225.78,280.29l9.77-1.51 M234.04,271.5l1.42,7.28 M205.26,281.36l-0.09,7.37
	 M166.35,251.87l-2.4,7.2 M170.79,261.46l-6.84-2.49 M199.13,185.51l0.8-0.09 M248.96,213.14l-0.62-2.58 M245.05,205.32l3.2,5.24
	 M163.6,242.19l-2.75,6.84 M166.35,251.87l-5.51-2.75 M179.76,193.69l0.18-0.09 M162.53,232.86l-3.02,6.48 M163.6,242.19l-4-2.93
	 M234.04,271.5l8.44-2.04 M240.61,262.17l1.87,7.28 M163.15,223.62l-3.11,6.31 M162.53,232.86l-2.58-2.93 M130.64,308.19
	l-14.48-5.24 M113.76,293.35l2.4,9.59 M240.61,262.17l7.2-2.4 M245.59,252.67l2.22,7.2 M185.98,272.48l-1.07,7.37 M194.95,280.92
	l-10.04-1.07 M235.73,194.66l-0.71-0.44 M245.59,252.67l5.77-2.58 M248.69,243.08l2.66,6.93 M165.02,215l-3.2,5.86 M163.15,223.62
	l-1.24-2.84 M259.8,321.33l16.61-3.91 M278.19,309.7l-1.87,7.64 M245.05,205.32l-1.6-2.4 M240.43,198.13l3.02,4.8 M224.8,272.83
	l0.98,7.46 M215.65,281.18l10.13-0.89 M224.8,272.83l0.98,7.46 M248.69,243.08l4.35-2.84 M250.12,233.66l2.93,6.57 M250.12,233.66
	l3.02-2.84 M250.03,224.51l3.02,6.4 M185.27,331.02l-18.12-1.95 M166.17,323.29l1.07,5.77 M113.76,293.35l-12.44-6.4 M178.52,263.51
	l-1.6,7.37 M185.98,272.48l-8.97-1.6 M223.82,185.51l0.27,0.44 M168.21,206.92l-3.2,5.33 M165.02,215l-0.09-2.66 M195.49,273.54
	l-0.53,7.46 M205.26,281.36l-10.3-0.44 M250.03,224.51l1.6-2.75 M248.43,215.8l3.2,5.95 M205.26,281.36l10.39-0.18 M215.12,273.72
	l0.44,7.46 M205.35,273.99l-0.09,7.46 M222.67,331.37l18.3-1.51 M241.86,324l-0.89,5.86 M241.86,324l-0.89,5.86 M224.8,272.83
	l9.24-1.33 M232.62,264.04l1.42,7.46 M172.75,254.18l-2.04,7.2 M178.52,263.51l-7.82-2.13 M278.19,309.7l15.1-4.97 M295.69,295.13
	l-2.31,9.59 M188.2,184.71l-0.44,0.71 M248.43,215.8l0.44-2.66 M245.67,207.72l3.2,5.42 M172.21,199.64l-3.11,4.89 M168.21,206.92
	l0.89-2.49 M168.66,244.85l-2.31,7.02 M172.75,254.18l-6.4-2.4 M232.62,264.04l8.08-1.87 M238.83,254.89l1.87,7.28 M166.26,235.52
	l-2.66,6.75 M168.66,244.85l-5.06-2.58 M187.05,265.02l-1.15,7.46 M195.49,273.54l-9.59-0.98 M165.55,226.38l-3.02,6.4
	 M166.26,235.52l-3.73-2.66 M204.01,331.82l-18.65-0.8 M184.74,325.24l0.53,5.77 M245.67,207.72l-0.62-2.49 M241.94,200.26
	l3.11,4.97 M205.52,179.21l-0.09,0.8 M204.46,182.05h0.18 M238.83,254.89l6.75-2.22 M243.28,245.56l2.22,7.11 M211.12,182.14
	l-0.53-0.09 M295.69,295.13l13.24-6.04 M223.91,265.46l0.89,7.46 M215.12,273.72l9.68-0.89 M223.91,265.46l0.89,7.46 M204.01,331.82
	l18.65-0.44 M223.02,325.69l-0.36,5.69 M166.17,323.29l-17.5-3.2 M146.98,312.54l1.6,7.55 M200.9,181.25l-0.27,0.98 M200.37,182.32
	l0.36-0.09 M166.26,217.67l-3.11,6.04 M165.55,226.38l-2.4-2.75 M214.94,182.4l-0.44-0.09 M214.23,181.25l0.09,0.27 M184.83,185.96
	l-0.71,0.98 M243.28,245.56l5.42-2.49 M246.12,236.32l2.58,6.75 M203.92,326.13l0.09,5.69 M246.12,236.32l4-2.58 M247.27,227.17
	l2.93,6.48 M196.2,265.99l-0.62,7.55 M205.35,273.99l-9.77-0.44 M168.21,209.41l-3.2,5.6 M166.26,217.67l-1.24-2.66 M180.21,256.13
	l-1.6,7.37 M187.05,265.02l-8.53-1.51 M205.35,273.99l9.77-0.18 M214.76,266.17l0.44,7.55 M220.18,183.2l-0.53-0.09 M217.6,180.09
	l0.36,0.62 M241.94,200.26l-1.51-2.13 M237.32,193.69l3.02,4.44 M247.27,227.17l2.84-2.66 M246.92,218.47l3.11,6.04 M205.43,266.44
	l-0.09,7.55 M223.91,265.46l8.71-1.33 M231.2,256.67l1.42,7.37 M241.86,324l17.94-2.75 M261.22,313.7l-1.42,7.55 M171.41,201.77
	l-3.2,5.15 M168.21,209.41l-0.09-2.49 M174.79,247.07l-2.04,7.2 M180.21,256.13l-7.37-1.95 M246.92,218.47l1.51-2.58 M245.23,210.21
	l3.2,5.6 M221.25,180.89l0.09,0.18 M182.07,187.47l-1.33,1.87 M177.99,192.26l0.44-0.27 M171.06,237.92l-2.4,6.93 M174.79,247.07
	l-6.13-2.22 M231.2,256.67l7.64-1.78 M236.88,247.61l1.95,7.2 M146.98,312.54l-16.43-4.35 M128.6,298.77l2.04,9.5 M245.23,210.21
	l0.44-2.49 M242.39,202.57l3.29,5.24 M188.2,257.64l-1.15,7.46 M196.2,265.99l-9.06-0.98 M169.01,228.86l-2.75,6.66 M171.06,237.92
	l-4.8-2.4 M175.41,195.02l-3.2,4.62 M171.41,201.77l0.8-2.13 M235.73,192.18l-0.44-0.36 M188.82,183.56l-0.62,1.07 M187.76,184.8
	l0.44-0.18 M222.93,258l0.98,7.46 M214.76,266.17l9.15-0.8 M222.93,258l0.98,7.46 M236.88,247.61l6.4-2.13 M240.97,238.54l2.31,7.02
	 M168.48,220.07l-3.02,6.31 M169.01,228.86l-3.46-2.49 M224.89,182.4l0.44,0.71 M242.39,202.57l-0.44-2.22 M238.75,195.64l3.2,4.62
	 M196.73,258.53l-0.53,7.46 M205.43,266.44l-9.24-0.44 M240.97,238.54l5.15-2.22 M243.45,229.66l2.66,6.66 M184.74,325.24
	l-18.57-1.95 M165.02,315.83l1.15,7.55 M169.37,211.81l-3.11,5.86 M168.48,220.07l-2.22-2.4 M205.43,266.44l9.33-0.18
	 M214.23,258.71l0.44,7.55 M181.72,248.85l-1.51,7.28 M188.2,257.64l-8.08-1.42 M205.52,258.89l-0.09,7.55 M209.61,179.21h-1.42
	 M208.1,179.21h-1.42 M203.57,179.3l1.6-0.09 M243.45,229.66l3.82-2.49 M244.43,220.87l2.84,6.31 M261.22,313.7l16.97-4
	 M280.14,300.28l-1.95,9.5 M179.94,189.07l-1.95,2.58 M184.38,186.22l0.44-0.18 M171.5,204.17l-3.2,5.24 M169.37,211.81l-1.15-2.4
	 M222.93,258l8.17-1.33 M229.69,249.29l1.42,7.37 M216.89,180.01l-0.36-0.09 M223.02,325.69l18.83-1.69 M242.83,316.63l-0.98,7.46
	 M242.83,316.63l-0.98,7.46 M244.43,220.87l2.49-2.49 M243.9,212.61l3.02,5.86 M128.6,298.77l-14.92-5.42 M176.74,239.97l-2.04,7.11
	 M181.72,248.85l-6.93-1.78 M228.09,184.09l0.8,1.07 M238.75,195.64l-1.33-1.95 M234.39,189.69l3.02,4.09 M221.25,180.89l-0.62-0.18
	 M243.9,212.61l1.33-2.4 M242.12,204.79l3.11,5.42 M174.61,197.06l-3.2,4.8 M171.5,204.17l-0.09-2.31 M189.27,250.27l-1.07,7.37
	 M196.73,258.53l-8.53-0.98 M173.46,231.17l-2.4,6.75 M176.74,239.97l-5.69-2.13 M229.69,249.29l7.2-1.69 M235.02,240.59l1.87,7.11
	 M221.96,250.54l0.98,7.46 M214.23,258.71l8.71-0.71 M221.96,250.54l0.98,7.46 M203.92,326.13l-19.19-0.89 M184.12,317.78l0.62,7.46
	 M181.27,188l0.8-0.62 M221.6,180.98l-0.36-0.18 M220.89,180.36l0.44,0.53 M171.68,222.47l-2.75,6.4 M173.46,231.17l-4.53-2.31
	 M242.12,204.79l0.36-2.22 M239.19,197.77l3.2,4.8 M235.02,240.59l5.95-2.04 M238.75,231.79l2.22,6.75 M203.92,326.13l19.19-0.44
	 M223.56,318.23l-0.44,7.46 M178.52,190.84l-3.11,4.18 M174.61,197.06l0.8-2.04 M197.26,251.07l-0.53,7.46 M205.52,258.89
	l-8.79-0.36 M171.41,214.12l-2.93,5.95 M171.68,222.47l-3.2-2.4 M233.33,188.71l-0.89-0.8 M205.52,258.89l8.79-0.18 M213.87,251.25
	l0.44,7.46 M280.14,300.28l15.55-5.15 M183.32,241.65l-1.6,7.2 M189.27,250.27l-7.55-1.33 M203.84,318.67l0.09,7.46 M238.75,231.79
	l4.71-2.13 M240.88,223.18l2.58,6.48 M205.61,251.43l-0.09,7.55 M172.48,206.3l-3.11,5.51 M171.41,214.12l-2.04-2.31 M239.19,197.77
	l-0.44-2.13 M235.46,191.38l3.2,4.26 M222.31,179.12l0.62,0.89 M165.02,315.83l-18.03-3.29 M145.47,303.12l1.51,9.42 M221.96,250.54
	l7.73-1.24 M228.35,242.19l1.33,7.2 M240.88,223.18l3.55-2.22 M241.5,214.83l2.93,6.04 M174.7,199.1l-3.2,4.97 M172.48,206.3
	l-1.07-2.13 M178.79,233.13l-2.04,6.84 M183.32,241.65l-6.48-1.69 M182.96,185.51l-3.02,3.64 M178.52,190.84l1.33-1.78
	 M241.5,214.83l2.31-2.22 M240.79,207.01l3.02,5.6 M208.9,176.81l-3.2-0.09 M205.79,174.77l-0.18,1.95 M204.64,176.81l1.07-0.09
	 M186.87,182.94l0.44-0.27 M211.65,176.99h-0.53 M210.14,176.9l-0.89-0.09 M208.99,175.03l0.09,0.53 M190.42,242.9l-1.15,7.28
	 M197.26,251.07l-8.08-0.89 M212.27,175.65l0.09,0.27 M212.63,176.72l0.18,0.27 M235.46,191.38l-1.15-1.78 M231.28,185.96l3.02,3.64
	 M228.35,242.19l6.66-1.6 M233.15,233.66l1.87,6.93 M229.6,184.45l-2.31-1.33 M224.71,180.18l0.44,0.44 M175.85,224.6l-2.31,6.57
	 M178.79,233.13l-5.33-1.95 M240.79,207.01l1.24-2.22 M238.92,199.82l3.2,4.97 M242.83,316.63l18.39-2.93 M262.73,304.37l-1.42,9.33
	 M177.81,192.62l-3.2,4.44 M174.7,199.1l-0.09-2.13 M221.07,243.25l0.98,7.28 M213.87,251.25l8.08-0.71 M221.07,243.25l0.98,7.28
	 M197.8,177.52l0.8-0.18 M214.94,175.39l0.09,0.18 M215.47,176.36l0.44,0.62 M174.43,216.25l-2.75,6.22 M175.85,224.6l-4.09-2.13
	 M233.15,233.66l5.51-1.78 M236.44,225.13l2.22,6.66 M197.97,243.7l-0.62,7.37 M205.61,251.43l-8.26-0.27 M238.92,199.82l0.36-2.04
	 M235.99,193.24l3.2,4.44 M196.02,177.07l-0.71,0.89 M194.24,178.23l1.07-0.27 M205.61,251.43l8.26-0.18 M213.34,243.87l0.44,7.37
	 M184.2,184.54l0.62-0.53 M174.34,208.43l-3.02,5.6 M174.43,216.25l-3.02-2.13 M205.7,244.14l-0.09,7.28 M220.18,178.5l-0.71-0.18
	 M218.94,177.61l0.44,0.62 M184.83,234.73l-1.51,6.93 M190.42,242.9l-7.11-1.33 M181.72,187.02l-3.11,3.82 M177.81,192.62l0.71-1.78
	 M236.44,225.13l4.44-2.04 M238.21,216.96l2.66,6.22 M231.28,185.96l-1.69-1.51 M226.75,181.34l0.71,0.71 M221.07,243.25l7.28-1.07
	 M226.93,235.17l1.42,7.02 M175.68,201.15l-3.11,5.15 M174.34,208.43l-1.87-2.13 M192.11,178.94l0.18-0.09 M235.99,193.24
	l-0.44-1.87 M232.35,187.56l3.11,3.82 M238.21,216.96l3.29-2.13 M238.66,209.14l2.93,5.69 M223.02,179.38l-0.71-0.27 M180.83,226.38
	l-2.04,6.75 M184.83,234.73l-6.04-1.6 M145.47,303.12l-16.88-4.44 M177.9,194.49l-3.2,4.62 M175.68,201.15l-0.98-2.04
	 M184.12,317.78l-19.1-2.04 M163.95,306.5l1.15,9.33 M238.66,209.14l2.13-2.13 M237.68,201.77l3.11,5.24 M191.49,235.88l-1.15,7.11
	 M197.97,243.7l-7.55-0.8 M185.98,182.32l-3.02,3.2 M181.72,187.02l1.24-1.51 M226.93,235.17l6.31-1.51 M231.28,226.91l1.95,6.75
	 M192.2,177.43l-1.24,1.15 M189.36,180.09l0.44-0.18 M178.25,218.2l-2.4,6.4 M180.83,226.38l-4.97-1.78 M220.18,236.15l0.89,7.11
	 M213.34,243.87l7.64-0.62 M220.18,236.15l0.89,7.11 M207.92,174.77h-2.13 M205.88,174.05l-0.09,0.71 M205.17,174.77h0.62
	 M237.68,201.77l1.24-1.95 M235.64,195.11l3.2,4.71 M210.32,174.94l-0.44-0.09 M209.34,174.85l-0.44-0.09 M208.72,174.14l0.18,0.62
	 M232.35,187.56l-1.07-1.6 M228.26,182.76l3.02,3.29 M181.1,188.62l-3.29,4 M177.9,194.49l-0.09-1.87 M223.56,318.23l19.28-1.69
	 M243.81,307.3l-0.98,9.33 M243.81,307.3l-0.98,9.33 M200.19,175.21l1.15-0.09 M225.78,180.81l-1.07-0.62 M222.22,177.79l1.15,1.07
	 M214.94,175.39l-0.8-0.09 M213.43,175.3l-1.51-0.18 M211.21,173.7l0.09,0.18 M211.48,174.05l0.09,0.18 M198.51,236.68l-0.53,7.11
	 M205.7,244.14l-7.73-0.36 M177.1,210.39l-2.66,5.86 M178.25,218.2l-3.82-1.95 M231.28,226.91l5.24-1.78 M234.13,218.82l2.31,6.4
	 M205.7,244.14l7.73-0.18 M212.99,236.77l0.44,7.2 M200.73,173.97l-0.44,0.62 M197,175.83l0.71-0.18 M205.79,236.86l-0.18,7.2
	 M213.52,173.88l0.44,0.53 M214.14,174.5l0.36,0.44 M235.64,195.11l0.36-1.78 M232.79,189.16l3.2,4.09 M262.73,304.37l17.41-4.09
	 M186.43,227.8l-1.6,6.84 M191.49,235.88l-6.66-1.15 M177.36,203.01l-3.02,5.42 M177.1,210.39l-2.75-1.95 M187.05,181.43l0.44-0.44
	 M234.13,218.82l4.09-1.87 M235.64,211.01l2.58,5.95 M197.8,175.03l-0.8,0.89 M196.29,176.01l0.71-0.18 M184.83,183.56l-3.11,3.38
	 M181.1,188.62l0.53-1.69 M220.18,236.15l6.75-0.98 M225.42,228.24l1.42,6.84 M215.92,174.32l1.33,1.33 M178.7,196.35l-3.02,4.89
	 M177.36,203.01l-1.69-1.87 M228.26,182.76l-1.51-1.33 M223.91,178.76l2.84,2.58 M203.84,318.67l-19.72-0.89 M183.58,308.54
	l0.53,9.24 M235.64,211.01l3.02-1.87 M235.73,203.72l2.93,5.42 M232.79,189.16l-0.44-1.6 M229.15,184.09l3.2,3.46 M182.78,219.89
	l-2.04,6.48 M186.43,227.8l-5.6-1.42 M203.84,318.67l19.72-0.44 M223.91,308.99l-0.44,9.24 M192.64,228.95l-1.15,6.84
	 M198.51,236.68l-7.02-0.8 M181.1,190.31l-3.2,4.18 M178.7,196.35l-0.8-1.78 M235.73,203.72l1.95-1.95 M234.66,196.88l3.02,4.89
	 M222.22,177.79l-2.13-0.98 M218.23,175.3l1.87,1.51 M225.42,228.24l5.77-1.33 M229.42,220.42l1.87,6.48 M219.2,229.22l0.98,6.93
	 M212.99,236.77l7.2-0.62 M219.2,229.22l0.98,6.93 M203.75,309.43l0.09,9.24 M188.91,179.47l-3.02,2.84 M184.83,183.56l1.15-1.33
	 M180.65,212.25l-2.4,6.04 M182.78,219.89l-4.62-1.69 M234.66,196.88l1.07-1.78 M232.44,190.84l3.2,4.26 M194.6,175.48l-2.4,1.95
	 M190.96,178.14l1.24-0.62 M229.15,184.09l-0.89-1.33 M225.24,179.92l3.02,2.84 M199.13,229.66l-0.62,7.02 M205.79,236.86
	l-7.28-0.18 M184.38,185.07l-3.2,3.64 M181.1,190.31v-1.69 M179.85,204.88l-2.75,5.6 M180.65,212.25l-3.55-1.78 M205.79,236.86
	l7.2-0.18 M212.54,229.75l0.44,6.93 M229.42,220.42l4.71-1.6 M231.91,212.7l2.22,6.04 M223.91,178.76l-1.69-0.98 M221.25,176.99
	l0.98,0.71 M208.54,173.25h-2.49 M206.06,172.9v0.36 M203.48,173.43l2.58-0.18 M211.12,173.52l-2.58-0.18 M208.28,172.28l0.09,0.27
	 M205.88,229.93l-0.09,6.93 M204.01,172.72l-0.44,0.71 M202.41,173.52l1.07-0.18 M188.02,221.22l-1.6,6.57 M192.64,228.95
	l-6.22-1.15 M213.52,173.88l-2.4-0.36 M210.85,173.08l0.36,0.36 M232.44,190.84l0.36-1.69 M229.51,185.51l3.29,3.64 M180.3,198.04
	l-3.02,4.97 M179.85,204.88l-2.49-1.78 M201.53,173.17l-0.53,0.53 M199.75,173.97l1.24-0.27 M231.91,212.7l3.82-1.78 M232.97,205.41
	l2.66,5.6 M215.92,174.32l-2.31-0.53 M212.27,172.72l1.24,1.15 M219.2,229.22l6.31-0.98 M224,221.58l1.42,6.66 M193.09,176.28
	l-2.75,2.13 M188.91,179.47l1.42-1.07 M187.94,180.72l-3.11,2.93 M184.38,185.07l0.44-1.42 M163.95,306.5l-18.39-3.29
	 M181.89,191.91l-3.11,4.44 M180.3,198.04l-1.6-1.78 M197.08,174.68l1.6-0.53 M232.97,205.41l2.75-1.78 M232.88,198.66l2.93,5.06
	 M225.24,179.92l-1.24-1.15 M221.07,176.54l2.93,2.13 M184.83,213.76l-2.04,6.13 M188.02,221.22l-5.24-1.33 M217.87,175.03
	l-2.04-0.62 M214.67,173.52l1.24,0.8 M229.51,185.51l-0.36-1.33 M225.95,181.07l3.2,3.02 M193.71,222.29l-1.07,6.75 M199.13,229.66
	l-6.48-0.62 M232.88,198.66l1.78-1.78 M231.55,192.44l3.02,4.44 M184.38,186.49l-3.2,3.82 M181.89,191.91l-0.71-1.6 M198.59,173.43
	l-0.98,0.62 M194.6,175.48l1.87-0.71 M224,221.58l5.42-1.24 M227.55,214.21l1.87,6.22 M218.23,222.56l0.98,6.66 M212.54,229.75
	l6.57-0.62 M218.23,222.56l0.98,6.66 M183.05,206.48l-2.4,5.69 M184.83,213.76l-4.18-1.51 M219.65,175.74l-1.78-0.71 M216.8,174.23
	l1.15,0.71 M191.93,177.25l-3.02,2.22 M187.94,180.72l0.98-1.24 M243.81,307.3l18.92-2.93 M231.55,192.44l0.89-1.6 M229.24,186.93
	l3.2,3.91 M199.75,222.91l-0.53,6.75 M205.88,229.93l-6.75-0.27 M187.58,181.87l-3.2,3.2 M184.38,186.49v-1.42 M205.88,229.93
	l6.66-0.18 M212.1,223.09l0.44,6.75 M225.95,181.07l-0.71-1.15 M222.13,177.52l3.02,2.4 M182.61,199.73l-2.75,5.15 M183.05,206.48
	l-3.2-1.69 M227.55,214.21l4.35-1.42 M229.6,206.92l2.22,5.77 M197.17,173.97l-2.49,1.51 M193.09,176.28l1.51-0.8 M205.97,223.18
	l-0.09,6.75 M189.53,215l-1.51,6.22 M193.71,222.29l-5.69-1.07 M221.07,176.54l-1.33-0.89 M217.07,174.23l2.58,1.51 M229.24,186.93
	l0.27-1.42 M226.22,182.32l3.2,3.2 M183.32,193.42l-3.02,4.62 M182.61,199.73l-2.22-1.69 M208.28,172.28h-2.04 M206.41,171.74
	l-0.18,0.53 M204.1,172.28l2.13-0.09 M229.6,206.92l3.38-1.51 M230.4,200.17l2.58,5.24 M210.23,172.37l-2.04-0.18 M207.92,171.74
	l0.36,0.53 M218.23,222.56l5.77-0.98 M222.58,215.36l1.42,6.31 M204.81,171.83l-0.44,0.27 M212.27,172.72l-2.04-0.36 M209.43,171.83
	l0.8,0.53 M191.22,178.14l-3.2,2.49 M187.58,181.87l0.44-1.15 M185,187.82l-3.11,4.09 M183.32,193.42l-1.42-1.51 M203.3,171.92
	l-1.24,0.62 M200.28,172.99l1.87-0.36 M195.84,174.68l-2.75,1.69 M191.93,177.25l1.24-0.98 M230.4,200.17l2.4-1.51 M229.95,193.95
	l2.93,4.71 M214.05,173.08l-1.78-0.44 M210.85,172.01l1.33,0.62 M186.87,207.9l-2.04,5.86 M189.53,215l-4.71-1.24 M222.13,177.52
	l-1.15-0.98 M218.23,174.94l2.84,1.69 M226.22,182.32l-0.36-1.24 M222.76,178.5l3.11,2.49 M201.97,172.28l-1.69,0.71 M198.59,173.43
	l1.69-0.44 M194.78,215.89l-1.15,6.4 M199.75,222.91l-6.04-0.62 M229.95,193.95l1.6-1.51 M228.44,188.36l3.11,4.09 M215.74,173.61
	l-1.69-0.53 M212.27,172.28l1.78,0.8 M187.58,183.12l-3.2,3.38 M185,187.82l-0.62-1.33 M222.58,215.36l4.97-1.15 M225.6,208.25
	l1.95,5.95 M217.25,216.16l0.98,6.4 M212.1,223.09l6.13-0.53 M217.25,216.16l0.98,6.4 M185.36,201.15l-2.31,5.33 M186.87,207.9
	l-3.82-1.33 M200.64,172.63l-2.13,0.8 M197.17,173.97l1.42-0.62 M194.95,175.39l-3.02,1.78 M191.22,178.14l0.71-0.98 M228.44,188.36
	l0.8-1.42 M226.13,183.56l3.11,3.38 M183.58,308.54l-19.63-2.04 M217.07,174.23l-1.33-0.62 M213.43,172.72l2.22,0.89 M200.37,216.52
	l-0.62,6.4 M205.97,223.18l-6.31-0.27 M190.78,179.21l-3.2,2.66 M187.58,183.12v-1.24 M185.27,194.84l-2.66,4.89 M185.36,201.15
	l-2.84-1.42 M205.97,223.18l6.13-0.18 M211.65,216.6l0.44,6.4 M225.6,208.25l4-1.33 M227.38,201.59l2.22,5.33 M222.76,178.5
	l-0.62-0.98 M219.11,175.65l3.02,1.87 M206.06,216.78l-0.09,6.4 M199.57,173.08l-2.4,0.98 M195.84,174.68l1.24-0.62 M191.22,209.05
	l-1.6,5.95 M194.78,215.89l-5.24-0.98 M226.13,183.56l0.18-1.24 M223.02,179.56l3.2,2.75 M186.16,189.24l-2.93,4.18 M185.27,194.84
	l-1.95-1.42 M218.23,174.94l-1.15-0.71 M214.5,173.17l2.58,0.98 M227.38,201.59l3.02-1.42 M227.82,195.28l2.66,4.89 M217.25,216.16
	l5.33-0.8 M221.16,209.32l1.33,6.04 M223.91,308.99l19.9-1.78 M194.33,176.19l-3.11,2.04 M190.78,179.21l0.44-0.98 M188.11,184.36
	l-3.11,3.55 M186.16,189.24l-1.24-1.33 M227.82,195.28l2.13-1.33 M227.02,189.69l2.93,4.26 M207.92,171.74h-1.51 M206.59,171.66
	l-0.18,0.09 M204.81,171.83l1.51-0.09 M209.43,171.83l-1.51-0.09 M207.48,171.66l0.44,0.09 M198.68,173.52l-2.84,1.07
	 M194.95,175.39l0.89-0.8 M205.52,171.74l-0.62,0.09 M203.3,171.92l1.51-0.18 M188.82,202.39l-2.04,5.51 M191.22,209.05l-4.35-1.15
	 M210.85,172.01l-1.42-0.18 M208.54,171.74l0.89,0.09 M223.02,179.56l-0.27-0.98 M219.56,176.45l3.2,2.13 M204.55,171.92l-1.24,0.09
	 M201.97,172.28l1.33-0.27 M219.11,175.65l-0.89-0.71 M215.38,173.7l2.84,1.24 M227.02,189.69l1.33-1.33 M225.33,184.71l3.02,3.64
	 M212.27,172.28l-1.33-0.27 M209.52,171.92l1.33,0.18 M190.78,180.18l-3.2,2.93 M188.11,184.36l-0.53-1.24 M195.93,209.94
	l-1.15,6.04 M200.37,216.52l-5.51-0.62 M221.16,209.32l4.44-1.07 M223.73,202.75l1.87,5.51 M203.57,172.01l-1.6,0.18 M200.64,172.63
	l1.24-0.36 M216.27,210.03l0.98,6.04 M211.65,216.6l5.51-0.53 M216.27,210.03l0.98,6.04 M187.85,196.17l-2.4,4.97 M188.82,202.39
	l-3.46-1.24 M213.43,172.72l-1.24-0.44 M210.41,172.1l1.87,0.18 M225.33,184.71l0.71-1.15 M222.85,180.54l3.2,2.93 M197.97,174.05
	l-3.02,1.33 M194.33,176.19l0.62-0.71 M202.77,172.28l-2.13,0.36 M199.57,173.08l1.15-0.44 M193.98,176.99l-3.2,2.13 M190.78,180.18
	v-0.98 M200.9,210.39l-0.53,6.04 M206.06,216.78l-5.69-0.27 M187.94,190.58l-2.75,4.35 M187.85,196.17l-2.58-1.33 M214.5,173.17
	l-1.07-0.44 M211.3,172.37l2.13,0.36 M219.56,176.45l-0.44-0.8 M216.01,174.23l3.02,1.33 M223.73,202.75l3.64-1.15 M225.07,196.53
	l2.31,5.06 M206.06,216.78l5.6-0.18 M211.21,210.56l0.44,6.04 M203.75,309.43l-20.16-0.89 M206.15,210.65l-0.09,6.13 M222.85,180.54
	l0.18-0.98 M219.83,177.25l3.2,2.31 M189.18,185.51l-3.02,3.73 M187.94,190.58l-1.78-1.33 M192.73,203.37l-1.51,5.6 M195.93,209.94
	l-4.71-0.89 M202.06,172.54l-2.49,0.53 M198.68,173.52l0.89-0.53 M225.07,196.53l2.75-1.24 M225.15,190.93l2.66,4.44 M215.38,173.7
	l-0.89-0.53 M211.92,172.72l2.58,0.53 M203.75,309.43l20.16-0.44 M191.22,181.25l-3.11,3.11 M189.18,185.51l-1.07-1.15
	 M216.27,210.03l4.89-0.71 M219.74,203.72l1.42,5.6 M197.44,174.68l-3.11,1.51 M193.98,176.99l0.36-0.89 M225.15,190.93l1.95-1.24
	 M224.18,185.87l2.93,3.82 M201.44,172.9l-2.75,0.62 M197.97,174.05l0.71-0.53 M219.83,177.25l-0.27-0.8 M216.45,174.85l3.11,1.6
	 M190.87,197.33l-2.04,5.06 M192.73,203.37l-3.82-0.98 M194.06,177.79l-3.29,2.4 M191.22,181.25l-0.44-0.98 M224.18,185.87
	l1.24-1.15 M222.31,181.6l3.02,3.11 M216.01,174.23l-0.62-0.62 M212.54,173.08l2.93,0.62 M207.48,171.66h-0.98 M206.77,172.19
	l-0.27-0.53 M205.52,171.74l1.07-0.09 M208.54,171.74l-1.07-0.09 M207.21,172.19l0.36-0.53 M197,204.17l-1.07,5.69 M200.9,210.39
	l-4.97-0.53 M206.23,172.19l-0.71-0.44 M204.55,171.92l0.98-0.18 M209.52,171.92l-0.98-0.18 M207.66,172.28l0.89-0.53
	 M219.74,203.72l4-0.98 M221.87,197.59l1.87,5.15 M205.7,172.28l-1.24-0.36 M203.57,172.01l0.98-0.18 M222.31,181.6l0.53-0.98
	 M219.65,178.05l3.2,2.49 M190.24,191.64l-2.4,4.53 M190.87,197.33l-3.02-1.15 M210.41,172.1l-0.89-0.18 M208.19,172.28l1.33-0.44
	 M215.38,204.35l0.89,5.69 M211.21,210.56l5.06-0.53 M215.38,204.35l0.89,5.69 M200.9,173.25l-3.02,0.8 M197.44,174.68l0.44-0.62
	 M197.17,175.3l-3.2,1.78 M194.06,177.79l-0.09-0.8 M205.26,172.28l-1.69-0.27 M202.77,172.28l0.8-0.18 M211.3,172.37l-0.89-0.27
	 M208.63,172.37l1.78-0.27 M190.69,186.58l-2.75,4 M190.24,191.64l-2.22-1.07 M216.45,174.85l-0.44-0.62 M212.99,173.43l3.02,0.89
	 M221.87,197.59l3.11-1.07 M222.76,192l2.22,4.53 M219.65,178.05l0.18-0.8 M216.54,175.48l3.29,1.78 M201.53,204.7l-0.62,5.69
	 M206.15,210.65l-5.24-0.18 M204.81,172.46l-2.13-0.18 M202.06,172.54l0.71-0.27 M192.11,182.23l-3.02,3.29 M190.69,186.58
	l-1.51-1.07 M211.92,172.72l-0.62-0.27 M209.08,172.54l2.22-0.18 M206.15,210.65l5.06-0.09 M210.85,204.79l0.44,5.77 M206.23,204.88
	l-0.09,5.77 M222.76,192l2.31-1.07 M222.58,186.93l2.58,4 M194.33,198.22l-1.6,5.24 M197,204.17l-4.26-0.8 M194.42,178.58
	l-3.11,2.58 M192.11,182.23l-0.89-0.98 M204.46,172.63l-2.4-0.09 M201.44,172.9l0.62-0.36 M200.64,173.61l-3.11,0.98 M197.17,175.3
	l0.27-0.62 M212.54,173.08l-0.53-0.36 M209.43,172.72h2.49 M222.58,186.93l1.6-1.07 M221.25,182.49l2.93,3.29 M216.54,175.48
	l-0.09-0.62 M213.25,173.79l3.2,1.07 M215.38,204.35l4.35-0.62 M218.32,198.48l1.42,5.24 M197.26,175.83l-3.2,1.95 M194.42,178.58
	l-0.36-0.8 M221.25,182.49l1.07-0.98 M219.2,178.94l3.11,2.66 M204.1,172.72l-2.75,0.18 M200.9,173.25l0.44-0.36 M192.91,192.62
	l-2.04,4.71 M194.33,198.22l-3.46-0.89 M212.99,173.43l-0.44-0.36 M209.7,172.81l2.84,0.18 M219.2,178.94l0.44-0.89 M216.45,176.1
	l3.2,1.95 M200.46,174.05l-3.2,1.24 M197.26,175.83l-0.09-0.62 M204.01,172.99l-3.02,0.27 M200.64,173.61l0.36-0.36 M192.55,187.56
	l-2.31,4.09 M192.91,192.62l-2.66-0.98 M198.06,198.93l-1.15,5.24 M201.53,204.7l-4.62-0.53 M218.32,198.48l3.64-0.89 M220,192.89
	l1.95,4.71 M216.45,176.1l0.09-0.62 M213.34,174.23l3.2,1.33 M213.25,173.79l-0.27-0.36 M209.97,173.08l3.02,0.36 M193.35,183.12
	l-2.66,3.46 M192.55,187.56l-1.87-0.98 M207.21,172.19h-0.44 M206.94,173.17l-0.18-0.98 M206.23,172.19h0.53 M207.66,172.28
	l-0.44-0.09 M206.94,173.17l0.27-0.98 M206.94,173.17l-0.71-0.98 M205.7,172.28l0.44-0.09 M214.41,199.1l0.98,5.24 M210.85,204.79
	l4.62-0.44 M214.41,199.1l0.98,5.24 M208.19,172.28l-0.44-0.09 M206.94,173.17l0.71-0.98 M195.13,179.38l-3.02,2.84 M193.35,183.12
	l-1.24-0.89 M206.94,173.17l-1.24-0.98 M205.26,172.28l0.44-0.09 M208.63,172.37l-0.44-0.09 M206.94,173.17l1.24-0.89 M220,192.89
	l2.84-0.98 M220.54,187.82l2.22,4.09 M206.94,173.17l-1.69-0.89 M204.81,172.46l0.44-0.18 M197.53,176.54l-3.11,2.13 M195.13,179.38
	l-0.71-0.8 M209.08,172.54l-0.44-0.18 M206.94,173.17l1.69-0.8 M203.84,173.17l-3.2,0.44 M200.46,174.05l0.18-0.44 M206.94,173.17
	l-2.13-0.71 M204.46,172.63l0.44-0.18 M220.54,187.82l2.04-0.98 M219.91,183.38l2.66,3.55 M202.15,199.37l-0.53,5.33 M206.23,204.88
	l-4.71-0.18 M209.43,172.72l-0.44-0.18 M206.94,173.17l2.13-0.62 M213.34,174.23l-0.09-0.44 M209.97,173.25l3.2,0.53 M200.55,174.5
	l-3.2,1.33 M197.53,176.54l-0.27-0.62 M219.91,183.38l1.33-0.89 M218.4,179.65l2.93,2.93 M206.23,204.88l4.62-0.09 M210.32,199.46
	l0.44,5.33 M206.94,173.17l-2.49-0.62 M204.1,172.72l0.36-0.18 M218.4,179.65l0.8-0.71 M216.09,176.63l3.02,2.22 M195.93,193.42
	l-1.6,4.8 M198.06,198.93l-3.82-0.71 M209.7,172.81l-0.27-0.18 M206.94,173.17l2.49-0.53 M206.32,199.46l-0.09,5.33 M216.09,176.63
	l0.36-0.62 M213.25,174.68l3.2,1.42 M206.94,173.17l-2.84-0.44 M204.01,172.99l0.18-0.18 M203.75,173.34l-3.29,0.71 M200.55,174.5
	l-0.09-0.44 M209.97,173.08l-0.27-0.18 M206.94,173.17l2.75-0.36 M214.41,199.1l3.82-0.62 M216.8,193.69l1.42,4.89 M213.25,174.68
	l0.09-0.44 M210.05,173.43l3.2,0.8 M206.94,173.17l-3.02-0.18 M203.84,173.17l0.18-0.18 M194.86,188.36l-2.04,4.26 M195.93,193.42
	l-3.02-0.8 M209.97,173.25l-0.09-0.18 M206.94,173.17l3.02-0.18 M194.95,183.91l-2.4,3.64 M194.86,188.36l-2.31-0.8 M198.06,177.07
	l-2.93,2.31 M196.11,180.09l-0.98-0.71 M200.64,174.85l-3.11,1.69 M198.06,177.07l-0.44-0.62 M196.11,180.09l-2.75,2.93
	 M194.95,183.91l-1.6-0.8 M206.94,173.17h-3.11 M203.75,173.34l0.09-0.18 M203.75,173.52l-3.2,0.98 M200.64,174.85l-0.18-0.36
	 M210.05,173.43l-0.09-0.18 M206.94,173.17l3.02,0.09 M216.8,193.69l3.11-0.71 M218.14,188.62l1.87,4.35 M199.22,194.04l-1.15,4.89
	 M202.15,199.37l-4-0.44 M215.47,177.25l0.62-0.62 M212.99,175.03l3.11,1.69 M212.99,175.03l0.27-0.36 M210.05,173.61l3.11,0.98
	 M206.94,173.17l-3.2,0.18 M203.75,173.52v-0.18 M217.34,180.36l1.07-0.71 M215.47,177.25l2.93,2.4 M218.14,188.62l2.4-0.71
	 M218.23,184.18l2.31,3.64 M210.05,173.61v-0.18 M206.94,173.17l3.11,0.18 M218.23,184.18l1.69-0.8 M217.34,180.36l2.58,3.02
	 M213.43,194.13l0.98,4.89 M210.32,199.46l4.09-0.36 M213.43,194.13l0.98,4.89 M206.94,173.17l-3.2,0.36 M203.84,173.79l-0.09-0.18
	 M206.94,173.17 M207.83,174.68l-0.89-1.42 M208.28,174.59l-1.33-1.33 M208.72,174.5l-1.78-1.33 M209.08,174.32l-2.13-1.15
	 M209.43,174.23l-2.49-0.98 M209.79,174.05l-2.84-0.89 M209.97,173.88l-3.02-0.62 M210.05,173.61l-3.11-0.44 M203.84,173.79
	l3.11-0.62 M204.01,173.97l3.02-0.8 M204.19,174.14l2.75-0.98 M204.55,174.23l2.4-1.07 M204.9,174.41l2.04-1.24 M205.35,174.59
	l1.6-1.33 M205.79,174.68l1.15-1.42 M206.32,174.68l0.62-1.51 M206.86,174.68l0.09-1.51 M207.3,174.68l-0.36-1.51 M207.83,174.68
	l-0.89-1.42 M203.84,173.79l-3.11,1.07 M200.99,175.3l-0.36-0.44 M209.97,173.88l0.18-0.18 M200.99,175.3l-3.02,1.78 M198.86,177.61
	l-0.8-0.53 M212.63,175.39l0.36-0.36 M209.97,173.88l3.02,1.15 M202.77,194.4l-0.62,4.97 M206.32,199.46l-4.18-0.18 M204.01,173.97
	l-0.18-0.18 M197.44,189.07l-1.51,4.35 M199.22,194.04l-3.29-0.62 M209.79,174.05l0.18-0.18 M206.32,199.46l4-0.09 M209.97,194.4
	l0.44,4.97 M198.86,177.61l-2.75,2.49 M197.35,180.81l-1.24-0.62 M214.67,177.79l0.8-0.53 M212.63,175.39l2.84,1.87 M206.41,194.49
	l-0.09,4.97 M204.19,174.14l-0.27-0.18 M200.99,175.3l3.02-1.33 M197.35,180.81l-2.4,3.11 M196.91,184.63l-1.95-0.71 M196.91,184.63
	l-2.04,3.73 M197.44,189.07l-2.58-0.71 M213.43,194.13l3.38-0.53 M215.47,189.24l1.33,4.44 M201.44,175.65l-0.44-0.36
	 M209.43,174.23l0.36-0.18 M212.63,175.39l-2.93-1.33 M215.92,180.89l1.42-0.53 M214.67,177.79l2.66,2.58 M212.1,175.74l0.53-0.36
	 M204.55,174.23l-0.36-0.18 M201.44,175.65l2.75-1.51 M209.08,174.32l0.36-0.18 M212.1,175.74l-2.66-1.51 M216.27,184.8l1.95-0.62
	 M215.92,180.89l2.22,3.29 M215.47,189.24l2.66-0.62 M216.27,184.8l1.87,3.73 M201.44,175.65l-2.66,1.95 M199.75,178.14l-0.98-0.53
	 M204.9,174.41l-0.44-0.18 M202.15,175.92l2.4-1.69 M208.72,174.5l0.44-0.18 M211.39,176.01l-2.22-1.69 M202.15,175.92l-0.62-0.27
	 M200.37,189.6l-1.15,4.44 M202.77,194.4l-3.55-0.36 M213.7,178.23l0.98-0.53 M212.1,175.74l2.58,2.04 M205.35,174.59l-0.44-0.18
	 M202.95,176.19l2.04-1.78 M211.39,176.01l0.71-0.27 M208.28,174.59l0.44-0.09 M210.59,176.28l-1.87-1.78 M199.75,178.14l-2.4,2.66
	 M198.86,181.25l-1.51-0.53 M212.54,189.69l0.98,4.44 M209.97,194.4l3.55-0.27 M212.54,189.69l0.98,4.44 M205.79,174.68l-0.44-0.09
	 M203.84,176.45l1.51-1.87 M207.83,174.68l0.44-0.09 M209.7,176.54l-1.33-1.95 M206.32,174.68l-0.44-0.09 M204.72,176.54l1.15-1.95
	 M199.04,185.16l-1.6,3.91 M200.37,189.6l-2.93-0.53 M207.3,174.68l0.53-0.09 M208.72,176.63l-0.89-2.04 M208.72,176.63l-0.89-2.04
	 M198.86,181.25l-2.04,3.29 M199.04,185.16l-2.13-0.62 M202.95,176.19l-0.8-0.27 M199.75,178.14l2.31-2.13 M206.86,174.68h-0.53
	 M205.7,176.72l0.53-2.04 M214.32,181.52l1.6-0.62 M213.7,178.23l2.22,2.66 M206.86,174.68h0.44 M207.74,176.72l-0.44-2.04
	 M206.77,176.81l0.09-2.13 M200.9,178.5l-1.15-0.44 M203.3,189.87l-0.53,4.44 M206.41,194.49l-3.64-0.18 M210.59,176.28l0.8-0.27
	 M213.7,178.23l-2.31-2.22 M206.41,194.49l3.55-0.09 M209.43,189.95l0.44,4.44 M212.54,189.69l3.02-0.44 M214.05,185.34l1.42,3.91
	 M214.05,185.34l2.22-0.53 M214.32,181.52l1.95,3.29 M212.54,178.58l1.24-0.36 M206.5,190.04l-0.09,4.44 M203.84,176.45l-0.89-0.18
	 M200.9,178.5l2.04-2.31 M209.7,176.54l0.89-0.18 M212.54,178.58l-1.95-2.31 M200.9,178.5l-2.04,2.75 M200.64,181.78l-1.69-0.53
	 M201.44,185.6l-1.07,4 M203.3,189.87l-3.02-0.27 M202.24,178.85l-1.24-0.27 M204.72,176.54l-0.89-0.18 M202.24,178.85l1.6-2.4
	 M212.54,181.87l1.78-0.36 M212.54,178.58l1.87,2.93 M200.64,181.78l-1.51,3.38 M201.44,185.6l-2.31-0.44 M208.72,176.63l0.98-0.18
	 M211.12,178.94l-1.42-2.49 M211.65,185.69l0.89,4 M209.43,189.95l3.02-0.27 M211.65,185.69l0.89,4 M211.12,178.94l1.33-0.36
	 M205.7,176.72l-1.07-0.18 M203.66,179.12l1.07-2.49 M211.65,185.69l2.4-0.36 M212.54,181.87l1.42,3.46 M207.74,176.72l0.98-0.09
	 M209.7,179.21l-0.98-2.49 M209.7,179.21l-0.98-2.49 M206.77,176.81l-1.07-0.09 M205.08,179.3l0.62-2.49 M203.92,185.87l-0.53,4.09
	 M206.5,190.04l-3.11-0.18 M206.77,176.81l0.98-0.09 M208.19,179.3l-0.44-2.58 M203.66,179.12l-1.42-0.27 M206.68,179.3l0.09-2.49
	 M200.64,181.78l1.6-2.93 M202.5,182.05l-1.95-0.27 M206.5,190.04l3.02-0.09 M209.08,185.87l0.44,4.09 M209.7,179.21l1.42-0.18
	 M212.54,181.87l-1.42-2.93 M206.59,185.96l-0.09,4.09 M210.68,182.23l1.95-0.36 M202.5,182.05l-1.15,3.55 M203.92,185.87
	l-2.49-0.18 M210.68,182.23l0.98,3.46 M209.08,185.87l2.58-0.18 M210.68,182.23l0.98,3.46 M205.08,179.3l-1.42-0.18 M202.5,182.05
	l1.15-2.93 M208.19,179.3l1.51-0.18 M210.68,182.23l-0.98-3.02 M210.68,182.23l-0.98-3.02 M204.55,182.32l-2.04-0.18 M206.68,179.3
	l-1.6-0.09 M204.55,182.32l0.53-3.02 M204.55,182.32l-0.62,3.55 M206.59,185.96l-2.66-0.18 M208.63,182.4l2.04-0.18 M206.68,179.3
	h1.42 M208.63,182.4l-0.44-3.02 M206.59,185.96l2.49-0.09 M208.63,182.4l0.44,3.55 M206.59,182.4l0.09-3.11 M206.59,182.4
	l-0.09,3.55 M206.59,182.4l-2.13-0.18 M206.59,182.4l2.04-0.09"/>
<path class="st2" d="M448.86,142.65h128.91v34.33h-88.1v62.51h81.94v33.68h-81.94v96.19h-40.81V142.65z"/>
<path class="st2" d="M617.21,142.65h39.84v38.22h-39.84V142.65z M617.21,207.42h39.84v161.94h-39.84V207.42z"/>
<path class="st2" d="M686.51,207.42h115.3v31.74l-75.46,99.76h77.41v30.45H684.57v-32.39l73.52-99.76h-71.58V207.42z"/>
<path class="st2" d="M953.39,284.51h42.75c-0.44,26.13-8.1,47.61-23,64.45c-15.12,17.71-35.52,26.45-61.22,26.23
	c-29.8-0.43-52.58-12.31-68.34-35.63c-13.6-19.43-20.41-47.29-20.41-83.56c0-36.28,6.8-64.13,20.41-83.56
	c15.76-23.32,38.54-35.19,68.34-35.63c25.91-0.43,46.2,8.31,60.89,26.23c14.03,16.84,21.05,37.89,21.05,63.16h-41.46
	c1.3-15.76-1.84-29.15-9.39-40.16c-7.77-10.79-18.36-15.76-31.74-14.9c-17.49,0.65-30.01,9.61-37.57,26.88
	c-5.18,12.1-7.77,31.2-7.77,57.33c0,25.26,2.59,43.84,7.77,55.71c7.56,18.57,20.29,28.07,38.22,28.5c15.76,0,27.21-6.37,34.33-19.11
	C951.02,310.96,953.39,298.98,953.39,284.51z"/>
<path class="st2" d="M1020.44,288.39c0-26.12,6.48-47.07,19.43-62.83c13.17-15.98,31.09-23.97,53.76-23.97
	c22.67,0,40.59,7.99,53.76,23.97c12.96,15.76,19.43,36.71,19.43,62.83c0,26.13-6.48,47.07-19.43,62.83
	c-13.17,15.98-31.09,23.97-53.76,23.97c-22.67,0-40.6-7.99-53.76-23.97C1026.92,335.47,1020.44,314.52,1020.44,288.39z
	 M1062.22,287.75c0,14.69,1.3,25.91,3.89,33.68c1.94,6.05,4.8,10.85,8.58,14.41c3.78,3.56,7.12,5.78,10.04,6.64
	c2.92,0.87,5.88,1.3,8.91,1.3c13.17,0,22.35-7.45,27.53-22.35c2.59-7.77,3.89-19,3.89-33.68c0-14.68-1.3-25.91-3.89-33.68
	c-5.18-14.9-14.36-22.35-27.53-22.35c-3.03,0-5.99,0.44-8.91,1.3c-2.92,0.86-6.26,3.08-10.04,6.64c-3.78,3.56-6.64,8.37-8.58,14.41
	C1063.52,261.84,1062.22,273.07,1062.22,287.75z"/>
<path class="st2" d="M1208.21,142.65h39.84v38.22h-39.84V142.65z M1208.21,207.42h39.84v161.94h-39.84V207.42z"/>
<path class="st2" d="M1286.91,207.42h37.89l1.94,16.52c3.02-5.83,7.66-10.47,13.93-13.93c7.99-4.75,16.95-7.13,26.88-7.13
	c19.64-0.21,34.11,6.8,43.4,21.05c1.72,2.59,3.13,5.46,4.21,8.58c1.08,3.13,1.94,5.83,2.59,8.1c0.65,2.27,1.13,5.4,1.46,9.39
	c0.32,4,0.49,6.69,0.49,8.1c0,1.41,0,4.43,0,9.07c0,4.65,0,7.08,0,7.29v94.9h-40.81v-94.58c0-13.39-0.76-22.02-2.27-25.91
	c-4.1-9.5-11.23-14.25-21.38-14.25c-10.8,0-18.78,4.75-23.97,14.25c-3.03,5.4-4.53,16.19-4.53,32.39v88.1h-39.84V207.42z"/>
<rect x="1188.29" y="207.42" class="st2" width="39.84" height="38.22"/>
<rect x="597.29" y="207.42" class="st2" width="39.84" height="38.22"/>
</svg>
