<?xml version="1.0" encoding="utf-8"?>
<!-- Generator: Adobe Illustrator 26.0.2, SVG Export Plug-In . SVG Version: 6.00 Build 0)  -->
<svg version="1.1" id="Слой_1" xmlns="http://www.w3.org/2000/svg" xmlns:xlink="http://www.w3.org/1999/xlink" x="0px" y="0px"
	 viewBox="0 0 1894.21 1268.16" style="enable-background:new 0 0 1894.21 1268.16;" xml:space="preserve">
<style type="text/css">
	.st0{stroke:#C1358B;stroke-width:2;}
	.st1{opacity:0.45;}
	.st2{fill:none;stroke:#389EA0;stroke-width:2;}
</style>
<rect x="-315.91" y="-114.53" class="st0" width="2439.39" height="1528.83"/>
<g class="st1">
	<path class="st2" d="M900.45,606.41L900.45,606.41 M1277.83,664.42L1277.83,664.42 M414.39,681.75l9.33-2 M1492.52,720.43
		l-1.33-0.67 M1509.19,693.09l-40.67-12.67 M747.76,387.72L747.76,387.72 M1431.85,573.74l-24.67-5.33 M399.05,644.42l53.34-14.67
		 M805.1,652.42l-1.33,4 M1525.19,655.75l-86.01-26.67 M1431.85,573.74l-8,27.34 M338.38,745.76l60.01-23.34 M414.39,681.75
		l3.33,6.67 M485.06,503.73l38-7.33 M445.72,728.43L445.72,728.43 M356.38,762.43l22-8 M383.05,596.41l102.01-28 M485.06,503.73
		l9.33,46.01 M319.71,719.09l94.68-36.67 M399.05,644.42l16,37.34 M1445.18,513.07l-76.01-16.67 M1328.5,412.39l-0.67,7.33
		 M1579.2,757.76l-86.68-37.34 M1491.19,721.76l1.33-1.33 M1509.19,693.09l-16.67,27.34 M1541.86,608.41l-110.01-34 M1445.18,513.07
		l-13.34,60.67 M1559.87,774.43l-47.34-20 M301.7,682.42l97.35-38 M383.05,596.41l16,48.01 M1598.54,731.76l-89.34-38.67
		 M1525.19,655.75l-16,37.34 M1541.2,783.1l-10.67-4.67 M807.1,646.42v1.33 M804.44,652.42L804.44,652.42 M1328.5,412.39l-5.33-1.33
		 M367.71,536.4l118.02-33.34 M472.39,431.06l12.67,72.68 M1617.87,696.42l-92.68-40.01 M1541.86,608.41l-16,48.01 M472.39,431.06
		l96.01-18.67 M597.08,317.04l3.33,36 M283.04,635.08l100.01-39.34 M367.71,536.4l16,60.01 M368.38,767.77l-12-5.33 M283.04,801.77
		l73.34-39.34 M338.38,745.76l18,16.67 M1558.53,548.4l-113.35-35.34 M1458.52,440.39l-13.34,72.68 M262.37,786.43l76.01-40.67
		 M319.71,719.09l18.67,26.67 M1458.52,440.39l-130.02-28 M1339.17,324.37l-10,88.01 M304.37,809.77l56.78-31.12 M241.7,761.1
		l78.01-42.01 M301.7,682.42l18,36.67 M1637.21,649.08l-95.35-40.67 M1558.53,548.4l-16.67,60.01 M1628.54,815.77l-68.68-41.34
		 M1541.2,783.1l18.67-8.67 M1579.2,757.76l-19.34,16 M1131.14,638.42l-4.67-0.67 M1649.88,800.44l-70.68-42.01 M1598.54,731.76
		l-19.34,26 M622.41,661.75l-2,4 M324.37,809.1l23.34-12.67 M1607.87,822.44l-66.68-39.34 M1533.86,783.1h7.33 M597.08,317.04
		l25.34-2.67 M221.03,725.76l80.68-43.34 M283.04,635.08l18.67,47.34 M1671.88,775.77l-73.34-44.01 M1617.87,696.42l-19.34,36
		 M351.71,464.39l120.68-33.34 M460.39,343.71l12,87.34 M1339.17,324.37l-69.34-10 M265.03,577.07l102.68-40.01 M351.71,464.39
		l16,72.01 M1585.87,821.77l-40.01-24 M1692.55,741.09l-74.68-45.34 M1637.21,649.08l-19.34,47.34 M1575.2,477.06l-116.68-36.67
		 M1472.52,353.71l-14,86.68 M913.78,577.07L913.78,577.07 M1656.54,591.08l-98.01-42.01 M1575.2,477.06l-16,71.34 M460.39,343.71
		l136.68-26.67 M200.36,680.42l82.68-45.34 M265.03,577.07l18,58.67 M621.08,662.42l1.33-0.67 M1547.2,803.77l-2-0.67
		 M304.37,809.77l-21.34-7.33 M227.03,845.78l56.01-44.01 M262.37,786.43l20.67,16 M203.69,831.77l58.67-45.34 M241.7,761.1
		l20.67,24.67 M1472.52,353.71l-133.35-29.34 M324.37,809.1l-20.67,0.67 M249.03,851.78l54.67-42.01 M181.69,807.77l60.67-46.67
		 M221.03,725.76l21.34,35.34 M1713.89,695.76l-76.68-46.67 M1656.54,591.08l-19.34,58.01 M342.38,803.1l-17.34,6 M271.7,850.44
		l53.34-41.34 M1679.21,860.44l-50.67-45.34 M1607.87,822.44l21.34-7.33 M1649.88,800.44l-21.34,15.34 M1702.55,846.44l-52.67-46.01
		 M1671.88,775.77l-22,24.67 M246.36,505.06l105.35-40.67 M336.38,378.38l16,86.01 M1656.54,866.44l-48.67-44.01 M1585.87,821.77
		l22,0.67 M336.38,378.38l124.68-34.67 M159.02,774.43l61.34-48.01 M200.36,680.42l20.67,45.34 M1725.22,823.77l-54.01-48.01
		 M1692.55,741.09l-21.34,34.67 M179.69,622.41l85.34-45.34 M246.36,505.06l18.67,71.34 M293.7,841.77l44.67-34 M1633.88,864.44
		l-48.01-42.01 M1564.53,814.44l21.34,7.33 M1675.21,519.07l-100.01-42.01 M1591.87,391.05l-16.67,86.01 M1591.87,391.05
		l-119.35-37.34 M1610.54,855.11l-46.01-40.67 M1555.2,807.77l9.33,6.67 M1748.56,789.77l-55.34-48.67 M1713.89,695.76l-21.34,45.34
		 M1735.89,637.75l-79.34-47.34 M1675.21,519.07l-18.67,71.34 M365.05,789.1l1.33-1.33 M330.37,816.44l3.33-2 M137.02,729.76
		l63.34-49.34 M179.69,622.41l20.67,58.01 M249.03,851.78l-22.67-6 M193.69,887.11l33.34-41.34 M203.69,831.77l22.67,14
		 M271.7,850.44l-22.67,1.33 M213.03,897.12l36-45.34 M169.69,874.45l34.67-42.67 M181.69,807.77l22.67,24 M293.7,841.77
		l-22.67,8.67 M235.7,894.45l35.34-44.01 M141.68,857.78l40.01-50.01 M159.02,774.43l22.67,33.34 M227.69,420.39l108.01-42.01
		 M158.35,552.4l87.34-47.34 M227.69,420.39l18,84.68 M1771.23,745.76l-57.34-50.67 M1735.89,637.75l-22,57.34 M1697.88,888.45
		l-18.67-28 M1656.54,866.44l22.67-6 M1702.55,846.44l-22.67,14 M1677.88,897.78l-21.34-31.34 M1633.88,864.44l22.67,2
		 M1721.89,875.78l-19.34-29.34 M1725.22,823.77l-22.67,22.67 M317.04,827.11l-22.67,14.67 M259.7,884.45l34-42.67 M1661.21,905.78
		l-28-41.34 M1610.54,855.11l22.67,9.33 M113.68,673.09l66.01-50.67 M158.35,552.4l21.34,70.01 M1694.55,435.06l-102.68-44.01
		 M117.68,825.11l41.34-50.67 M137.02,729.76l22.67,44.67 M1748.56,858.44l-23.34-34.67 M1748.56,789.77l-22.67,33.34
		 M1756.56,568.41l-81.34-49.34 M1694.55,435.06l-19.34,84.01 M1639.88,897.78l-28.67-42.67 M1587.87,839.77l22.67,15.34
		 M339.04,807.1l-22.67,20 M283.7,867.78l33.34-41.34 M1793.9,690.42l-58.67-52.01 M1756.56,568.41l-21.34,69.34 M1780.56,838.44
		l-32-48.01 M1771.23,745.76l-22.67,44.01 M1344.5,638.42l-1.33-0.67 M235.7,894.45l-22.67,3.33 M1615.21,881.78l-28-42.01
		 M1564.53,818.44l22.67,21.34 M93.68,782.43l42.67-52.67 M113.68,673.09l22.67,56.67 M141.68,857.78l2,1.33 M259.7,884.45l-24,10
		 M231.7,906.45l4-12.67 M354.38,789.77l-15.34,16.67 M307.04,845.78l32-39.34 M138.35,469.06l90.01-48.01 M91.68,604.41
		l67.34-52.01 M138.35,469.06l20.67,83.34 M141.02,857.78L141.02,857.78 M117.68,825.11l24,32.67 M283.7,867.78l-23.34,16
		 M248.36,914.45l11.33-30.67 M1806.56,799.77l-35.34-54.01 M1793.9,690.42l-22.67,56.01 M1591.2,859.11l-26.67-40.01
		 M1541.86,793.1l22.67,25.34 M1639.88,897.78l18.67,8.67 M1777.89,485.73l-83.34-50.67 M307.04,845.78l-23.34,22 M267.03,910.45
		l16-42.01 M70.34,727.76l43.34-54.01 M91.68,604.41l22.67,68.68 M1643.21,913.78l-3.33-16 M1615.21,881.78l24,16 M1817.23,621.75
		l-60.67-53.34 M1777.89,485.73l-21.34,82.68 M113.01,837.77l4-12.67 M93.68,782.43l23.34,42.67 M1567.87,831.77l-26-38.67
		 M1518.53,763.1l22.67,30 M1045.13,483.73l-2-0.67 M1625.21,921.78l-9.33-40.01 M1591.2,859.11l24,22.67 M330.37,819.1
		l-23.34,26.67 M291.7,887.11l15.34-41.34 M1831.23,745.76l-36.67-55.34 M1817.23,621.75l-22.67,68.68 M1806.56,799.77l-18.67,33.34
		 M81.68,815.1l12-32.67 M70.34,727.76l23.34,54.67 M69.01,521.73l68.68-53.34 M1601.87,900.45l-10-42.01 M1567.87,831.77
		l23.34,27.34 M267.03,910.45l-9.33,7.33 M1543.86,800.44l-24.67-36.67 M354.38,788.43l-23.34,30.67 M316.37,859.11l14.67-39.34
		 M47,659.75l44.67-55.34 M69.01,521.73l22.67,82.68 M1809.9,813.1l-3.33-13.34 M1831.23,745.76l-24,54.01 M291.7,887.11
		l-24.67,23.34 M267.7,921.78l-0.67-11.33 M1839.9,539.74l-62.01-54.01 M1577.2,871.78l-9.33-40.01 M1543.86,800.44l24,31.34
		 M1854.57,678.42l-37.34-56.67 M1839.9,539.74l-22.67,82.01 M50.34,780.43l20-53.34 M47,659.75l23.34,68.01 M1601.87,900.45
		l22.67,22 M316.37,859.11l-24,28 M293.04,929.12l-1.33-42.01 M378.38,753.76l-24,34.67 M340.38,826.44l14-38 M1553.2,839.11
		l-9.33-38.67 M1519.86,765.76l23.34,34.67 M1595.87,933.12l5.33-32.67 M1577.2,871.78l24,28.67 M1839.9,783.77l-9.33-38.67
		 M1854.57,678.42l-23.34,67.34 M340.38,826.44l-24,32.67 M317.04,899.12l-1.33-40.01 M23.67,579.07l46.01-56.67 M401.72,716.43
		l-23.34,37.34 M364.38,790.43l14-36.67 M293.04,929.12l-2,1.33 M1570.53,911.78l6.67-39.34 M1553.2,839.11l24,33.34 M25,717.76
		l22-58.01 M23.67,579.07L47,659.75 M1528.53,801.77l-8.67-36.67 M1495.86,727.76l24,38 M364.38,790.43l-24,36 M341.71,865.11
		l-1.33-38.67 M1878.57,597.74l-38.67-58.01 M1595.2,941.79L1595.2,941.79 M317.04,899.12l-24,30 M294.37,931.79l-1.33-2.67
		 M1787.23,949.79l-2,2.67 M75.68,892.45l5.33,8.67 M1546.53,877.11l6.67-38.67 M1528.53,801.77l24.67,36.67 M425.72,675.75
		l-23.34,40.01 M388.38,751.76l13.34-35.34 M1869.24,736.43l-14.67-58.01 M1878.57,597.74l-24,80.01 M25,717.76l21.34,58.01
		 M1570.53,911.78l18.67,24 M341.71,865.11l-24,34 M335.71,937.79l-18-39.34 M235.7,1085.81l-2.67-2.67 M388.38,751.76l-24,39.34
		 M365.71,827.11l-1.33-36.67 M1504.53,762.43l-8.67-34.67 M1471.85,687.09l24,40.67 M1776.56,967.12l10-17.34 M1549.2,949.12
		l22-37.34 M1546.53,877.11l24,34 M1869.24,736.43l-5.33,14.67 M1075.14,377.05l-3.33-0.67 M1522.53,839.11l6-36.67 M1504.53,762.43
		l24,39.34 M1710.55,1045.8l-3.33,1.33 M78.34,898.45l-2.67-6 M73.68,887.78l2.67,4.67 M365.71,827.11l-24,37.34 M359.04,903.12
		l-17.34-38 M449.06,634.41l-23.34,42.01 M413.05,709.76l12.67-33.34 M1,638.42l22.67-60.01 M335.71,937.79l-4.67,6.67
		 M191.02,1062.47l-44.01-49.34 M123.68,985.13l23.34,27.34 M1703.88,1052.47l6.67-6.67 M413.05,709.76l-24,42.01 M389.72,786.43
		l-1.33-35.34 M1525.19,914.45l22-37.34 M1522.53,839.11l24,38.67 M1480.52,720.43l-8.67-33.34 M1448.52,643.75l23.34,42.67
		 M26.34,749.1L25,717.76 M1,638.42l24,79.34 M1779.89,963.79l31.34-54.01 M1835.23,858.44l-24,51.34 M359.04,903.12l-23.34,35.34
		 M346.38,950.46l-10.67-12.67 M1498.52,797.77l6-35.34 M1480.52,720.43l24,42.01 M389.72,786.43l-24,40.67 M382.38,863.78
		l-16.67-36.67 M1683.21,1077.8l50.01-48.01 M1755.89,1001.8l-22.67,27.34 M1893.24,657.75l-14.67-60.01 M169.02,1036.47
		l-45.34-50.67 M100.35,946.45l22.67,38.67 M473.06,591.08l-24,43.34 M437.72,666.42l11.33-32 M1525.19,914.45l22.67,34.67
		 M77.01,896.45l-25.34-56.01 M27.67,776.43l24,64.01 M1501.19,875.11l21.34-36.67 M1498.52,797.77l24,41.34 M1867.91,743.76
		l1.33-7.33 M1893.24,657.75l-24,78.68 M437.72,666.42l-24.67,43.34 M414.39,743.1l-2-33.34 M1630.54,1099.14L1630.54,1099.14
		 M382.38,863.78l-23.34,39.34 M391.05,939.12l-32-36.67 M275.03,1123.14l-61.34-44.67 M191.02,1062.47l22.67,16 M1455.85,676.42
		l-8-32.67 M1423.85,600.41l24,43.34 M1150.48,353.71l-2.67-0.67 M1704.55,1051.8l51.34-49.34 M1779.89,963.79l-23.34,38.67
		 M414.39,743.1l-24.67,43.34 M406.38,821.11l-16-34.67 M1531.2,1020.46L1531.2,1020.46 M1474.52,754.43l5.33-33.34 M1455.85,676.42
		l24,44.01 M1487.19,949.79l37.34-35.34 M1501.19,875.11l23.34,39.34 M1802.56,914.45l32.67-56.01 M1859.24,795.1l-24,63.34
		 M1593.87,1136.48l67.34-43.34 M1683.21,1077.8l-22,16 M147.02,999.13l-46.67-52.01 M77.01,896.45l23.34,50.67 M254.36,1108.48
		l-63.34-46.01 M169.02,1036.47l22.67,26 M1530.53,1021.13L1530.53,1021.13 M1478.52,832.44l20-34.67 M1474.52,754.43l23.34,43.34
		 M391.05,939.12l-12.67,21.34 M406.38,821.11l-23.34,42.01 M413.05,898.45l-30.67-34.67 M496.4,546.4l-23.34,44.67 M461.72,621.08
		l11.33-30.67 M3.67,698.42L1,638.42 M461.72,621.08l-24,45.34 M438.39,698.42l-0.67-32 M509.06,531.07l1.33-1.33 M1466.52,909.12
		l35.34-33.34 M1478.52,832.44l22.67,42.67 M1487.19,949.79l9.33,16 M438.39,698.42l-24,45.34 M429.05,777.1l-14.67-33.34
		 M1613.87,1121.81l69.34-44.67 M1704.55,1051.8l-22,26 M1725.89,1015.13l54.01-51.34 M1802.56,914.45l-22.67,49.34 M1431.18,631.08
		l-7.33-30.67 M1400.51,555.74l23.34,45.34 M337.04,1150.48l-41.34-22 M53.67,833.77l-26-57.34 M3.67,698.42l24,78.01
		 M1450.52,708.42l5.33-32 M1431.18,631.08l24.67,45.34 M413.05,898.45l-22.67,40.67 M438.39,973.12l-47.34-33.34 M234.36,1083.81
		l-66.01-47.34 M147.02,999.13l22,37.34 M429.05,777.1l-22.67,44.67 M435.72,854.44l-29.34-33.34 M1455.19,787.1l19.34-33.34
		 M1450.52,708.42l24,45.34 M1882.57,717.09l10-60.01 M354.38,1163.15l-79.34-40.01 M254.36,1108.48l20.67,14.67 M1443.18,978.46
		l44.01-28.67 M1466.52,909.12l21.34,41.34 M125.01,949.79l-48.01-54.01 M53.67,833.77l23.34,62.67 M1444.52,865.11l34-32.67
		 M1455.19,787.1l22.67,45.34 M1825.23,851.78l34-56.67 M1882.57,717.09l-23.34,77.34 M485.73,575.07l-24,46.01 M463.06,652.42
		l-1.33-30.67 M520.4,501.73l-23.34,44.67 M485.73,575.07l10.67-28.67 M435.72,854.44l-22.67,44.01 M457.72,931.12l-44.67-32.67
		 M1633.21,1097.81l72.01-46.01 M1725.89,1015.13l-21.34,36.67 M438.39,973.12l-2,2.67 M463.06,652.42l-24,46.01 M452.39,730.43
		l-14-32 M1509.86,1175.15l84.01-38.67 M1613.87,1121.81l-20,14.67 M336.38,1149.81l-81.34-41.34 M234.36,1083.81l20,24.67
		 M1407.18,585.08l-6.67-29.34 M1376.51,510.4l24,45.34 M1426.52,661.75l4.67-30.67 M1407.18,585.08l24,46.01 M452.39,730.43
		l-23.34,46.67 M457.72,808.44l-28.67-31.34 M1416.51,940.45l49.34-31.34 M1444.52,865.11l22,44.01 M1747.89,967.12l54.67-52.67
		 M1825.23,851.78l-22.67,62.67 M1431.85,739.76l18.67-31.34 M1426.52,661.75l24,46.67 M214.36,1047.8l-67.34-48.67 M125.01,949.79
		l22.67,48.67 M457.72,931.12l-20,42.01 M450.39,979.13l-12-6.67 M457.72,808.44l-22.67,46.01 M478.39,885.78l-42.67-31.34
		 M1422.51,818.44l32.67-30.67 M1431.85,739.76l23.34,47.34 M1526.53,1161.82l86.68-39.34 M1633.21,1097.81l-19.34,24.67
		 M1416.51,940.45l18.67,40.01 M509.73,529.07l-24,46.01 M487.06,604.41l-1.33-29.34 M1652.54,1062.47l73.34-47.34 M1747.89,967.12
		l-22,48.01 M29.67,757.1L3,697.76 M487.06,604.41l-24,48.01 M476.39,681.75l-13.34-30 M543.74,457.06l-23.34,44.67 M509.73,529.07
		l10-27.34 M1397.18,895.11l47.34-30.67 M1422.51,818.44l22,46.67 M448.39,1197.82l-94.01-34.67 M336.38,1149.81l18,13.33
		 M318.37,1125.81l-84.01-42.01 M214.36,1047.8l20.67,36 M478.39,885.78l-20.67,45.34 M515.73,959.79l-58.01-28.67 M476.39,681.75
		l-23.34,48.01 M479.73,760.43l-27.34-30.67 M1402.51,613.75l4.67-28.67 M1383.18,537.74l24,47.34 M102.35,888.45l-48.67-54.67
		 M29.67,757.1l23.34,76.68 M1383.18,537.74l-6.67-27.34 M1352.51,465.73l24,45.34 M1409.18,691.76l17.34-30 M1402.51,613.75
		l24,48.01 M1355.84,968.46l60.67-28 M1397.18,895.11l19.34,45.34 M479.73,760.43l-22,48.01 M499.06,838.44l-41.34-30
		 M556.4,1216.49l-13.34-3.33 M1410.51,1207.82l99.35-32.67 M1526.53,1161.82l-16.67,13.34 M1401.18,769.77l30.67-30
		 M1409.18,691.76l22.67,48.01 M515.73,959.79l-13.34,31.34 M1544.53,1138.48l88.68-40.67 M1652.54,1062.47l-20,35.34
		 M1849.24,775.77l34-58.67 M193.69,999.79l-68.68-50.01 M102.35,888.45l22.67,61.34 M433.05,1185.15l-97.35-36 M318.37,1125.81
		l17.34,24 M567.74,1228.49l-12.67-3.33 M499.06,838.44l-20.67,48.01 M533.73,913.78l-54.67-27.34 M1311.17,1222.49l72.01-17.34
		 M1377.84,847.78l45.34-29.34 M1401.18,769.77l22,48.01 M1355.84,968.46l10.67,28 M1769.23,905.78l56.01-54.01 M1849.24,775.77
		l-23.34,76.01 M511.06,556.4l-24,48.01 M499.73,633.08l-12.67-28.67 M534.4,483.73l-24,45.34 M511.06,556.4l-1.33-27.34
		 M499.73,633.08l-23.34,48.67 M502.4,711.09l-26-29.34 M1289.16,1235.83l14-3.33 M1339.17,921.78l58.67-26.67 M1377.84,847.78
		l20,48.01 M567.07,413.05l-23.34,44.67 M534.4,483.73l9.33-26 M1425.18,1195.15l101.35-33.34 M1544.53,1138.48l-17.34,23.34
		 M533.73,913.78l-17.34,46.01 M584.41,985.13l-68.68-25.34 M300.37,1091.81l-86.01-44.01 M193.69,999.79l20.67,48.01 M502.4,711.09
		l-22.67,49.34 M519.07,789.1l-39.34-28 M555.74,1226.49l-107.35-28 M433.05,1185.15l15.34,12.67 M1671.88,1015.13l75.34-48.01
		 M1769.23,905.78l-22,61.34 M1377.84,565.07l4.67-27.34 M1359.17,491.06l24,46.67 M1385.84,642.42l16-28.67 M1377.84,565.07
		l24,48.01 M1359.17,491.06l-6.67-25.34 M1328.5,421.05l23.34,44.67 M1379.18,719.76l29.34-28 M1385.84,642.42l22.67,49.34
		 M1283.83,992.46l72.01-24 M1339.17,921.78l16.67,46.67 M584.41,985.13l-6.67,19.34 M519.07,789.1l-20,49.34 M551.74,865.11
		l-52.67-26.67 M418.39,1162.48l-99.35-36.67 M300.37,1091.81l18,34 M1358.51,797.77l42.67-27.34 M1379.18,719.76l22,50.01
		 M1300.5,1233.82l110.68-26 M1425.18,1195.15l-14.67,12.67 M1561.2,1103.81l92.01-42.01 M1671.88,1015.13l-19.34,47.34
		 M681.75,1249.16l-113.35-20.67 M555.74,1226.49l12,2 M1283.83,992.46l5.33,16 M551.74,865.11l-18,48.67 M599.08,937.79
		l-66.01-24.67 M1321.84,873.11l55.34-25.34 M1358.51,797.77l19.34,50.01 M544.4,1214.49l-111.35-28.67 M418.39,1162.48l15.34,22.67
		 M535.07,509.07l-24,48.01 M523.07,583.74l-12-27.34 M1173.82,1253.83l116.01-18 M1300.5,1233.82l-10.67,2 M523.07,583.74
		l-23.34,49.34 M524.4,661.08l-24.67-27.34 M1439.18,1173.15l105.35-34.67 M1561.2,1103.81l-16.67,34 M599.08,937.79l-15.34,47.34
		 M662.42,1005.8l-78.01-20.67 M558.4,437.06l-24,46.01 M535.07,509.07l-1.33-25.34 M1269.83,944.45l68.68-22.67 M1321.84,873.11
		l16.67,48.67 M1137.81,1150.48L1137.81,1150.48 M1137.81,1150.48L1137.81,1150.48 M80.34,813.77L30.34,757.1 M524.4,661.08
		l-22.67,50.67 M539.73,738.43l-37.34-27.34 M591.74,369.71l-24,43.34 M558.4,437.06l9.33-24.67 M173.69,940.45l-71.34-51.34
		 M80.34,813.77l22.67,74.68 M662.42,1005.8l-2.67,10.67 M1063.14,1157.15l74.68-6.67 M673.75,1247.16l-118.02-20.67 M544.4,1214.49
		l11.33,12 M539.73,738.43l-20.67,50.67 M569.74,814.44l-50.67-25.34 M1203.82,1011.13l80.01-18.67 M1269.83,944.45l14,48.01
		 M1362.51,592.41l16-27.34 M1354.51,517.07l23.34,48.01 M1354.51,517.07l4-26 M1334.5,445.72l24,45.34 M1311.17,1221.82
		l114.01-26.67 M1439.18,1173.15l-14,22 M1357.84,669.75l28.67-27.34 M1362.51,592.41l23.34,50.01 M1338.5,745.76l41.34-26
		 M1357.84,669.75l22,50.67 M569.74,814.44l-18,50.67 M614.41,888.45l-62.67-23.34 M1203.82,1011.13l2.67,9.33 M802.44,1261.83
		l-120.68-13.33 M673.75,1247.16l8,1.33 M1334.5,445.72l-6-24.67 M1304.5,376.38l24,44.67 M282.37,1045.13l-88.68-45.34
		 M173.69,940.45l20,60.01 M631.08,306.37l-1.33,2.67 M1179.82,1252.49l120.02-18.67 M1311.17,1221.82l-10.67,12 M803.1,1261.16
		L803.1,1261.16 M1304.5,821.77l54.01-24.67 M1338.5,745.76l20,51.34 M614.41,888.45l-15.34,50.01 M674.42,957.79l-74.68-19.34
		 M1051.13,1264.5l122.68-10.67 M1179.82,1252.49l-6.67,1.33 M1179.82,1252.49l-6.67,1.33 M403.05,1129.14l-102.68-37.34
		 M282.37,1045.13l18,46.67 M1256.49,894.45l66.01-22 M1304.5,821.77l17.34,50.67 M1791.23,831.11l58.01-55.34 M674.42,957.79
		l-12,48.01 M747.76,1021.13l-86.01-15.34 M747.76,1021.13l-1.33,5.33 M1691.88,955.12l77.34-50.01 M1791.23,831.11l-22,74.01
		 M1192.49,963.12l77.34-18.67 M1256.49,894.45l14,50.01 M532.4,1192.49l-114.01-30 M403.05,1129.14l15.34,33.34 M926.45,1267.16
		l-124.68-5.33 M797.77,1260.5l4,1.33 M547.07,534.4l-23.34,49.34 M547.07,609.74l-23.34-26 M1115.81,1025.13l87.34-13.34
		 M1192.49,963.12l10.67,48.01 M559.74,462.39l-24,46.67 M547.07,534.4l-11.33-25.34 M1115.81,1025.13l0.67,3.33 M1115.81,1025.13
		l0.67,3.33 M547.07,609.74l-22.67,50.67 M560.4,686.42l-35.34-25.34 M665.08,1235.83l-120.68-21.34 M532.4,1192.49l12,22
		 M1577.87,1058.47l94.01-43.34 M1691.88,955.12l-20,60.01 M926.45,1267.16l124.68-2.67 M1054.47,1263.16l-3.33,1.33 M797.77,1260.5
		l-124.68-13.34 M665.08,1235.83l8.67,11.33 M582.41,392.38l-24,45.34 M559.74,462.39l-1.33-24.67 M560.4,686.42l-20.67,52.01
		 M587.07,762.43l-48.01-24 M925.78,1265.83l0.67,1.33 M1453.19,1139.81l108.01-36 M1577.87,1058.47l-16.67,45.34 M587.07,762.43
		l-17.34,52.01 M629.75,836.44l-60.01-22 M838.44,1031.13v1.33 M1054.47,1263.16l125.35-10.67 M1187.15,1241.16l-7.33,10.67
		 M1187.15,1241.16l-7.33,10.67 M1335.84,617.75l26.67-25.34 M1339.84,542.4l22.67,50.01 M1339.84,542.4l15.34-25.34 M1330.5,469.73
		l24,47.34 M1025.13,1032.47L1025.13,1032.47 M1321.84,1200.49l117.35-27.34 M1453.19,1139.81l-14,33.34 M615.08,327.04
		l-23.34,42.01 M582.41,392.38l9.33-22.67 M629.75,836.44l-15.34,51.34 M686.42,907.12l-72.01-18.67 M1187.15,1241.16l124.02-19.34
		 M1321.84,1200.49l-10.67,21.34 M1319.17,693.76l38.67-24.67 M1335.84,617.75l22,51.34 M756.43,972.46l-8.67,48.67 M838.44,1031.13
		l-90.68-10 M686.42,907.12l-12,50.67 M756.43,972.46l-82.01-14.67 M931.12,1034.47L931.12,1034.47 M1330.5,469.73l4-24.67
		 M1309.83,399.72l24.67,45.34 M1287.83,769.1l50.67-23.34 M1319.17,693.76l19.34,52.01 M719.09,211.03l-6.67,12 M1109.81,975.79
		l6.67,48.67 M1025.13,1032.47l91.35-7.33 M1109.81,975.79l6.67,48.67 M1241.83,842.44l62.67-20.67 M1287.83,769.1l16.67,52.67
		 M925.78,1265.83l-128.02-5.33 M793.1,1249.83l4.67,10 M1181.82,911.78l74.01-17.34 M1241.83,842.44l14.67,52.01 M1109.81,975.79
		l83.34-13.34 M1181.82,911.78l10.67,50.67 M1309.83,399.72l-5.33-23.34 M1280.5,334.38l24,42.01 M653.75,267.7l-22.67,38.67
		 M629.75,309.04l1.33-2.67 M925.78,1265.83l128.68-2.67 M1057.8,1252.49l-3.33,10 M842.44,981.79l-4,49.34 M931.12,1034.47
		l-92.68-4 M925.12,1255.16l0.67,10 M931.12,1034.47l93.35-2 M1021.13,983.79l3.33,48.67 M793.1,1249.83l-128.02-14 M656.42,1214.49
		l8.67,21.34 M931.79,985.13l-0.67,49.34 M764.43,921.12l-8,50.67 M842.44,981.79l-86.01-9.33 M568.41,559.07l-22,50.67
		 M579.74,634.41l-33.34-24.67 M570.41,486.4l-23.34,48.01 M568.41,559.07l-22-24.67 M579.74,634.41l-20,52.01 M605.08,709.76
		l-45.34-23.34 M583.74,415.72l-24,46.67 M570.41,486.4l-10.67-24 M697.76,854.44l-11.33,52.67 M764.43,921.12l-78.01-14
		 M605.08,709.76l-18,52.67 M644.41,783.77l-57.34-21.34 M656.42,1214.49l-124.68-22 M520.4,1159.82l12,32.67 M1057.8,1252.49
		l130.02-11.33 M1194.49,1220.49l-7.33,21.34 M1194.49,1220.49l-7.33,21.34 M644.41,783.77l-15.34,53.34 M697.76,854.44l-68.01-18
		 M1102.47,924.45l7.33,51.34 M1021.13,983.79l88.01-7.33 M1102.47,924.45l7.33,51.34 M653.75,267.7l2-1.33 M520.4,1159.82
		l-117.35-30.67 M388.38,1083.81l14.67,45.34 M607.08,348.38l-24.67,44.01 M583.74,415.72l-1.33-23.34 M388.38,1083.81
		l-106.01-39.34 M265.03,986.46l17.34,58.67 M265.03,986.46l-91.35-46.01 M153.02,866.44l20.67,74.01 M153.02,866.44l-73.34-52.67
		 M1102.47,924.45l80.01-12.67 M1171.15,859.11l10.67,52.67 M1299.17,641.75l36.67-24 M1313.83,567.07l22,50.67 M1313.83,567.07
		l25.34-24.67 M1315.83,493.06l23.34,49.34 M1270.5,716.43l48.01-22 M1299.17,641.75l20,52.01 M847.77,929.79l-4.67,51.34
		 M931.79,985.13l-89.34-4 M1171.15,859.11l70.68-16.67 M1227.82,789.1l14,53.34 M1227.82,789.1l60.01-20 M1270.5,716.43
		l16.67,53.34 M1315.83,493.06l14.67-23.34 M1306.5,422.39l24,47.34 M1194.49,1220.49l127.35-19.34 M1332.5,1167.82l-10,32.67
		 M931.79,985.13l89.34-1.33 M1018.46,931.79l3.33,52.01 M925.12,1255.16l-132.02-5.33 M789.1,1229.16l4,21.34 M638.41,286.37
		l-23.34,40.67 M607.08,348.38l8-21.34 M932.45,933.79l-0.67,51.34 M1306.5,422.39l3.33-22.67 M1285.83,355.71l24,44.67
		 M925.12,1255.16l132.02-2.67 M1060.47,1231.82l-3.33,20.67 M1332.5,1167.82l120.68-28 M1467.85,1095.14l-14.67,45.34
		 M772.43,867.78l-8.67,53.34 M847.77,929.79l-83.34-8.67 M924.45,1235.16l0.67,20.67 M1467.85,1095.14l110.68-36.67 M1595.2,999.79
		l-16.67,58.67 M1285.83,355.71l-5.33-21.34 M1256.49,293.04l23.34,41.34 M1095.14,871.11l7.33,53.34 M1018.46,931.79l84.01-7.33
		 M1095.14,871.11l7.33,53.34 M709.76,801.1l-12,54.01 M772.43,867.78l-74.68-13.34 M1595.2,999.79l97.35-44.67 M1711.22,882.45
		l-19.34,73.34 M661.75,255.03l-8,12.67 M1083.8,145.02l-2.67-0.67 M659.75,729.76l-15.34,54.01 M709.76,801.1l-65.34-17.34
		 M1711.22,882.45l80.01-50.67 M623.75,656.42l-18,53.34 M659.75,729.76l-54.01-20 M600.41,582.41l-20.67,52.01 M623.75,656.42
		l-43.34-22 M789.1,1229.16l-132.02-14 M648.42,1182.48l8.67,32 M591.07,509.07l-22.67,50.67 M600.41,582.41l-32-22.67
		 M851.77,876.45l-4,54.01 M932.45,933.79l-85.34-4 M1095.14,871.11l76.01-12 M1160.48,805.1l10,54.01 M593.74,438.39l-23.34,48.01
		 M591.07,509.07l-20.67-22.67 M932.45,933.79l86.01-2 M1014.46,877.78l3.33,54.01 M1220.49,235.7l9.33,14.67 M933.12,879.78
		l-0.67,54.01 M607.74,369.71l-24,45.34 M593.74,438.39l-10-22.67 M1160.48,805.1l67.34-16 M1213.15,735.09l14.67,54.01
		 M1060.47,1231.82l134.02-12 M1201.82,1188.49l-7.33,31.34 M1201.82,1188.49l-7.33,31.34 M1213.15,735.09l57.34-18.67
		 M1253.16,662.42l17.34,54.01 M1253.16,662.42l46.01-20.67 M1279.83,589.08l19.34,52.67 M1279.83,589.08l34.67-22 M1292.5,515.73
		l22,50.67 M631.08,305.71l-24,42.01 M607.74,369.71l-0.67-22 M1292.5,515.73l23.34-22.67 M1293.16,445.72l22.67,48.01 M781.1,813.1
		l-8.67,54.67 M851.77,876.45l-79.34-8 M648.42,1182.48l-128.02-22.67 M509.06,1115.81l11.33,44.67 M1293.16,445.72l13.34-22.67
		 M1282.5,377.05l24,45.34 M1087.81,816.44l7.33,54.67 M1014.46,877.78l80.01-6.67 M1087.81,816.44l7.33,54.67 M924.45,1235.16
		l-136.02-6 M783.77,1197.15l4.67,31.34 M721.09,745.76l-11.33,54.67 M781.1,813.1l-71.34-12.67 M1282.5,377.05l3.33-22
		 M1261.83,312.37l24,42.67 M662.42,247.7l-24,38.67 M631.08,305.71l7.33-19.34 M924.45,1235.16l136.02-2.67 M1064.47,1199.82
		l-3.33,32 M856.44,821.11l-4.67,54.67 M933.12,879.78l-81.34-4 M675.09,675.09l-15.34,54.67 M721.09,745.76l-61.34-16
		 M1201.82,1188.49l130.68-20.67 M1343.17,1124.48l-10.67,44.01 M933.12,879.78l81.34-2 M1011.8,823.11l3.33,54.67 M509.06,1115.81
		l-120.02-31.34 M373.71,1025.8l15.34,58.01 M924.45,1203.15l0.67,31.34 M1087.81,816.44l73.34-11.33 M1149.81,750.43l10.67,54.67
		 M933.79,824.44l-0.67,55.34 M641.75,603.08l-18,54.01 M675.09,675.09l-51.34-18.67 M1261.83,312.37l-4.67-19.34 M1232.49,253.7
		l24,39.34 M621.08,530.4l-20.67,51.34 M641.75,603.08l-41.34-20.67 M613.08,460.39l-22.67,48.67 M621.08,530.4l-30-22
		 M1149.81,750.43l63.34-15.34 M1199.15,680.42l14,54.67 M617.74,391.05l-23.34,47.34 M613.08,460.39l-19.34-22 M373.71,1025.8
		l-108.68-39.34 M247.03,914.45l18,72.01 M1199.15,680.42l54.01-18 M1236.49,609.08l16.67,54.01 M789.1,757.76l-8,55.34
		 M856.44,821.11l-75.34-8 M1236.49,609.08l43.34-19.34 M1259.83,537.07l20,52.01 M631.75,326.38l-24,44.01 M617.74,391.05
		l-9.33-21.34 M1343.17,1124.48l124.68-29.34 M1481.19,1037.13l-14,57.34 M1232.49,253.7l-12-18 M1197.82,199.69l22.67,36
		 M1080.47,760.43l7.33,56.01 M1011.8,823.11l76.01-6.67 M1080.47,760.43l7.33,56.01 M1259.83,537.07l32.67-21.34 M1270.5,466.39
		l22,49.34 M1270.5,466.39l22.67-21.34 M1269.83,397.72l22.67,48.01 M783.77,1197.15l-136.02-14.67 M640.41,1139.15l8,43.34
		 M247.03,914.45l-93.35-48.01 M733.09,690.42l-12,55.34 M789.1,757.76l-67.34-12 M655.75,265.7l-24,40.01 M631.75,326.38l-0.67-20
		 M860.44,765.76l-4,56.01 M933.79,824.44l-77.34-3.33 M1269.83,397.72l12-20.67 M1257.83,332.38l24,44.67 M933.79,824.44
		l78.01-1.33 M1007.79,767.1l3.33,56.01 M934.45,769.1l-0.67,56.01 M1064.47,1199.82l137.35-11.33 M1208.49,1144.48l-6.67,44.01
		 M1208.49,1144.48l-6.67,44.01 M1080.47,760.43l69.34-10 M1139.15,694.42l10.67,56.01 M689.75,620.41l-15.34,54.01 M733.09,690.42
		l-58.67-16 M1481.19,1037.13l113.35-37.34 M1612.54,927.79l-17.34,72.01 M1257.83,332.38l3.33-20 M1237.16,271.7l24,40.67
		 M685.75,211.03l-23.34,36.67 M655.75,265.7l6.67-18.67 M659.08,550.4l-17.34,52.67 M689.75,620.41l-48.01-18 M1139.15,694.42
		l60.67-14 M1185.82,625.75l14,54.67 M641.08,480.39l-20,50.67 M659.08,550.4l-38-19.34 M797.1,701.76l-8.67,56.01 M860.44,765.76
		l-72.01-7.33 M635.75,411.72l-22.67,48.01 M641.08,480.39l-28-20 M924.45,1203.15l-140.02-6 M779.77,1153.81l4,43.34
		 M1237.16,271.7l-4.67-18.67 M1209.15,215.69l23.34,37.34 M1185.82,625.75l50.67-16.67 M1219.16,555.74l16.67,53.34
		 M1612.54,927.79l99.35-45.34 M1073.8,705.09l6.67,56.01 M1007.79,767.1l72.68-6.67 M1073.8,705.09l6.67,56.01 M924.45,1203.15
		l140.02-3.33 M1067.14,1157.15l-2.67,42.67 M640.41,1139.15l-131.35-24 M496.4,1058.47l12,56.67 M641.08,346.38l-23.34,45.34
		 M635.75,411.72l-18-20.67 M1219.16,555.74l40.67-18.67 M1240.49,486.4l19.34,50.67 M923.78,1160.48l0.67,42.67 M1240.49,486.4
		l30-19.34 M1249.16,417.72l22,48.67 M865.78,709.09l-4.67,56.67 M934.45,769.1l-73.34-3.33 M655.75,284.37l-24,42.01
		 M641.08,346.38l-9.33-20 M745.76,635.08l-12,55.34 M797.1,701.76l-64.01-11.33 M934.45,769.1l73.34-1.33 M1005.13,710.42
		l3.33,56.67 M1209.15,215.69l-11.33-16 M1174.48,166.35l22.67,33.34 M1249.16,417.72l21.34-20 M1246.49,352.38l23.34,45.34
		 M935.12,712.42l-0.67,56.67 M1073.8,705.09l65.34-10 M1128.48,639.08l10.67,55.34 M1208.49,1144.48l134.68-20.67 M1353.84,1067.14
		l-10.67,56.67 M679.75,227.03l-24,38.67 M655.75,284.37l-0.67-18.67 M705.09,567.07l-15.34,54.01 M745.76,635.08l-55.34-14.67
		 M1246.49,352.38l11.33-19.34 M1233.82,290.37l24,42.01 M677.09,498.4l-18,52.01 M705.09,567.07l-46.01-16.67 M1128.48,639.08
		l57.34-13.34 M1171.15,571.07l14.67,54.01 M496.4,1058.47l-123.35-32.67 M358.38,955.12l15.34,71.34 M1233.82,290.37l3.33-18.67
		 M1212.49,233.03l24.67,39.34 M805.77,646.42l-8.67,56.01 M865.78,709.09l-68.01-7.33 M661.75,430.39l-20.67,50.01 M677.09,498.4
		l-36-18 M709.76,176.36l-24,34.67 M679.75,227.03l6-16 M1066.47,649.08l7.33,56.01 M1005.13,710.42l68.68-6 M1066.47,649.08
		l7.33,56.01 M1171.15,571.07l48.01-16 M1201.82,503.06l17.34,52.67 M657.75,364.38l-22.67,47.34 M661.75,430.39l-26-18.67
		 M1212.49,233.03l-3.33-16.67 M1185.15,181.02l24,34.67 M869.78,653.08l-4,56.01 M935.12,712.42l-69.34-3.33 M1201.82,503.06
		l38.67-16.67 M1220.49,436.39l20,50.01 M779.77,1153.81l-139.35-14.67 M631.75,1083.14l8.67,56.67 M664.42,302.37l-23.34,44.01
		 M657.75,364.38l-16.67-18 M935.12,712.42l70.01-1.33 M1001.13,654.42l3.33,56.67 M757.1,580.41l-11.33,54.67 M805.77,646.42
		l-60.67-10.67 M935.79,655.75l-0.67,56.67 M1220.49,436.39l28.67-18.67 M1227.82,370.38l21.34,47.34 M1353.84,1067.14l127.35-30
		 M1495.86,966.46l-14.67,71.34 M743.76,131.68l-14.67,19.34 M680.42,245.03l-24,39.34 M664.42,302.37l-8.67-18 M1066.47,649.08
		l61.34-10 M1117.14,583.74l10.67,55.34 M1067.14,1157.15l141.35-12.67 M1215.82,1089.14l-7.33,56.01 M1215.82,1089.14l-7.33,56.01
		 M1227.82,370.38l18.67-18.67 M1223.82,308.37l22.67,44.01 M358.38,955.12l-112.01-40.67 M719.76,513.73l-15.34,53.34
		 M757.1,580.41l-52.01-13.34 M1185.15,181.02l-10-14.67 M1152.48,136.35l22.67,30.67 M1223.82,308.37l10-18 M1210.49,249.7
		l23.34,40.67 M703.76,191.69l-24,36 M680.42,245.03l-0.67-17.34 M813.77,591.08l-8,55.34 M869.78,653.08l-64.01-7.33
		 M695.09,447.72l-18,50.67 M719.76,513.73l-42.67-16 M1117.14,583.74l54.01-12.67 M1157.15,518.4l14,53.34 M1059.13,593.08
		l7.33,56.01 M1001.13,654.42l65.34-5.33 M1059.13,593.08l7.33,56.01 M923.78,1160.48l-144.02-6.67 M775.1,1097.81l4.67,56.01
		 M681.75,382.38l-20.67,48.01 M695.09,447.72l-34-17.34 M1210.49,249.7l2.67-16.67 M1188.48,197.03l24,36 M1157.15,518.4
		l44.67-15.34 M1185.15,452.39l16.67,50.67 M923.78,1160.48l144.02-3.33 M1071.14,1101.14l-3.33,56.01 M733.09,145.02l-23.34,31.34
		 M703.76,191.69l6-15.34 M873.78,597.08l-4,56.01 M935.79,655.75l-66.01-2.67 M679.75,319.71l-22,44.67 M681.75,382.38l-24-18
		 M1144.48,129.02l-6.67-6 M935.79,655.75l66.01-1.33 M998.46,598.41l3.33,56.01 M1495.86,966.46l116.68-38.67 M769.1,526.4
		l-12,54.01 M813.77,591.08l-56.67-10 M923.12,1104.47l0.67,56.01 M1185.15,452.39l35.34-16 M1201.15,387.72l19.34,48.67
		 M936.45,599.74l-0.67,56.67 M687.75,261.03l-23.34,41.34 M679.75,319.71l-15.34-17.34 M1188.48,197.03l-3.33-16 M1160.48,149.02
		l24,32 M631.75,1083.14l-135.35-24.67 M485.06,987.79l11.33,70.68 M1059.13,593.08l58.01-9.33 M1107.14,530.4l10,54.01
		 M1201.15,387.72l26.67-16.67 M1205.82,325.04l22,45.34 M704.42,207.03l-24,37.34 M687.75,261.03l-8-16 M735.09,462.39
		l-15.34,51.34 M769.1,526.4l-48.67-12.67 M766.43,105.01l-22.67,27.34 M733.09,145.02l10-13.34 M1205.82,325.04l17.34-16.67
		 M1200.49,266.37l22.67,42.01 M822.44,535.74l-8.67,54.67 M873.78,597.08l-60.67-6.67 M1160.48,149.02l-8.67-13.34 M1129.14,108.35
		l22.67,27.34 M1107.14,530.4l50.01-12 M1143.15,466.39l14,52.01 M713.09,398.38l-17.34,49.34 M735.09,462.39l-40.01-14.67
		 M1200.49,266.37l9.33-16.67 M1186.48,212.36l24,37.34 M1215.82,1089.14l138.02-22 M1365.17,997.13l-10.67,70.01 M727.76,158.35
		l-24,33.34 M704.42,207.03l-0.67-16 M1052.47,538.4l7.33,54.67 M998.46,598.41l60.67-5.33 M1052.47,538.4l7.33,54.67
		 M702.42,335.71l-20.67,46.67 M713.09,398.38l-30.67-16 M1143.15,466.39l41.34-13.34 M1167.82,402.38l16.67,50.01 M879.11,541.74
		l-4.67,55.34 M936.45,599.74l-62.01-2 M1186.48,212.36l2.67-15.34 M1164.48,163.02l24,33.34 M936.45,599.74l62.01-1.33
		 M994.46,543.07l3.33,55.34 M701.76,277.04l-22.67,42.01 M702.42,335.71l-22.67-16 M937.12,545.07l-0.67,54.67 M780.43,474.39
		L769.1,526.4 M822.44,535.74l-53.34-10 M757.1,116.35l-23.34,28.67 M727.76,158.35l5.33-13.34 M1167.82,402.38l33.34-15.34
		 M1181.15,341.04l20,46.67 M1129.14,108.35l-12.67-11.33 M1095.14,73.68l5.33,5.33 M1052.47,538.4l54.67-8 M1096.47,477.73
		l10.67,52.67 M711.76,222.36l-23.34,38.67 M701.76,277.04l-14-16 M1164.48,163.02l-3.33-14 M1137.14,120.35l23.34,28.67
		 M1181.15,341.04l24.67-16 M1184.48,282.37l22,42.67 M750.43,411.72l-15.34,50.67 M780.43,474.39l-45.34-12 M485.06,987.79
		l-126.68-33.34 M728.43,172.36l-24,34.67 M711.76,222.36l-7.33-15.34 M775.1,1097.81l-143.35-15.34 M623.75,1013.13l8.67,70.01
		 M1184.48,282.37l16-16 M1177.15,227.03l23.34,39.34 M830.44,483.06l-8.67,53.34 M879.11,541.74l-56.67-6 M789.1,81.01l-22.67,24
		 M757.1,116.35l9.33-11.33 M1096.47,477.73l47.34-11.33 M1129.14,415.72l14.67,50.67 M731.09,350.38l-18,48.01 M750.43,411.72
		l-37.34-13.34 M1045.8,485.06l6.67,53.34 M994.46,543.07l57.34-4.67 M1045.8,485.06l6.67,53.34 M1177.15,227.03l9.33-14.67
		 M1161.81,177.02l24,35.34 M1137.14,120.35l-8-12 M1106.47,84.34l22.67,24.67 M752.43,128.35l-24.67,30 M728.43,172.36l-0.67-14
		 M1071.14,1101.14l144.69-12.67 M1223.16,1019.13l-7.33,70.01 M1223.16,1019.13l-7.33,70.01 M883.11,489.06l-4,53.34
		 M937.12,545.07l-58.01-2.67 M722.42,291.7l-20,44.01 M731.09,350.38l-28.67-14.67 M1129.14,415.72l39.34-13.34 M1150.48,355.05
		l17.34,48.01 M937.12,545.07l58.01-1.33 M991.79,489.73l3.33,54.01 M937.79,490.4l-1.33,54.01 M1161.81,177.02l2.67-13.34
		 M1140.48,132.35l24,30.67 M1365.17,997.13l130.68-30.67 M792.43,422.39l-12,51.34 M830.44,483.06l-50.01-8.67 M724.43,236.36
		l-22.67,40.67 M722.42,291.7l-20.67-14.67 M1150.48,355.05l30.67-14 M1161.81,296.37l19.34,44.67 M780.43,90.34l-23.34,25.92
		 M752.43,128.35l4.13-11.43 M1045.8,485.06l50.67-7.33 M1085.14,425.72l10.67,51.34 M734.43,186.36l-22.67,36.67 M724.43,236.36
		l-12.67-14 M1106.47,84.34l-11.33-10 M1073.8,54.34l21.34,19.34 M923.12,1104.47l-148.02-6.67 M771.1,1028.47l4,69.34
		 M1161.81,296.37l22.67-14 M1162.48,241.7l22,40.67 M1140.48,132.35l-3.33-12 M1113.14,94.35l24,26 M765.1,363.05l-15.34,48.67
		 M792.43,422.39l-42.01-10.67 M923.12,1104.47l148.02-3.33 M1073.8,1031.8l-3.33,69.34 M839.11,431.06l-8.67,51.34 M883.11,489.06
		l-52.67-6 M752.43,141.02l-24,31.34 M734.43,186.36l-6-13.34 M1162.48,241.7l14.67-14.67 M1154.48,190.36l22.67,36.67
		 M1061.14,47.01l-16-7.33 M1031.13,28.34l14,11.33 M1085.14,425.72l43.34-10 M1115.14,367.05l14,48.67 M1038.47,433.06l7.33,52.01
		 M991.79,489.73l54.01-4.67 M1038.47,433.06l7.33,52.01 M922.45,1035.13l0.67,69.34 M811.1,59.67l-22.67,21.34 M780.43,90.34
		l8.67-10 M749.1,305.71l-18,45.34 M765.1,363.05l-34.67-12.67 M1154.48,190.36l8-13.34 M1137.81,145.02l24,32 M853.78,29.67
		l-18.67,12.29 M1113.14,94.35l-6.67-10 M1083.8,63.01l22.67,21.34 M887.78,436.39l-4.67,52.67 M937.79,490.4l-54.67-1.33
		 M777.1,101.68l-24,27.34 M752.43,141.02v-12.67 M743.09,250.37l-20.67,42.01 M749.1,305.71l-26.67-13.34 M937.79,490.4l54.01-1.33
		 M988.46,437.06l3.33,52.01 M1115.14,367.05l35.34-12 M1133.81,309.04l16.67,45.34 M1073.8,54.34l-12.67-7.33 M1053.8,41.01
		l7.33,5.33 M958.46,13h-18.67 M939.79,10.33V13 M920.45,14.34L939.79,13 M977.79,15l-19.34-1.33 M956.46,5.67l0.67,2
		 M938.45,438.39l-0.67,52.01 M804.44,373.05l-12,49.34 M839.11,431.06l-46.67-8.67 M1137.81,145.02l2.67-12.67 M1115.81,105.01
		l24.67,27.34 M746.43,199.03l-22.67,37.34 M743.09,250.37l-18.67-13.34 M1133.81,309.04l28.67-13.34 M1141.81,254.37l20,42.01
		 M1038.47,433.06l47.34-7.33 M1074.47,375.71l10.67,50.01 M842.44,35.67l-20.67,16 M811.1,59.67l10.67-8 M803.77,69.01l-23.34,22
		 M777.1,101.68l3.33-10.67 M623.75,1013.13l-138.02-24.67 M758.43,153.02l-23.34,33.34 M746.43,199.03l-12-13.34 M1141.81,254.37
		l20.67-13.34 M1141.15,203.69l22,38 M1083.8,63.01l-9.33-8.67 M1052.47,37.67l22,16 M780.43,317.04l-15.34,46.01 M804.44,373.05
		l-39.34-10 M1028.46,26.34l-15.34-4.67 M1004.46,15l9.33,6 M1115.81,105.01l-2.67-10 M1089.14,71.68l24,22.67 M847.11,381.05
		l-8,50.67 M887.78,436.39l-48.67-4.67 M1141.15,203.69l13.34-13.34 M1131.14,157.02l22.67,33.34 M777.1,112.35l-24,28.67
		 M758.43,153.02l-5.33-12 M883.78,14.34L876.44,19 M853.78,29.67l14-5.33 M1074.47,375.71l40.67-9.33 M1101.14,320.37l14,46.67
		 M1031.13,383.05l7.33,50.01 M988.46,437.06l49.34-4.67 M1031.13,383.05l7.33,50.01 M767.1,262.37l-18,42.67 M780.43,317.04
		l-31.34-11.33 M1041.8,31.67l-13.33-5.33 M1020.46,20.34l8.67,5.33 M833.77,43.01L811.1,59.67 M803.77,69.01l7.33-9.33
		 M1223.16,1019.13l142.02-22 M1131.14,157.02l6.67-12 M1113.81,115.68l24,29.34 M892.45,385.72l-4,50.67 M938.45,438.39l-50.67-2
		 M801.1,77.68l-24,24 M777.1,112.35v-10.67 M938.45,438.39l50.01-1.33 M985.13,387.05l3.33,50.67 M1089.14,71.68l-5.33-8.67
		 M1060.47,45.01l22.67,18 M763.76,211.69l-20.67,38.67 M767.1,262.37l-24-12.67 M1101.14,320.37l32.67-10.67 M1116.48,265.7
		l16.67,43.34 M873.11,18.34l-18.67,11.33 M842.44,35.67l11.33-6 M939.12,387.72l-0.67,50.67 M815.77,326.38l-11.33,46.67
		 M847.11,381.05l-42.67-8 M1052.47,37.67l-10-6.67 M1022.46,20.34l19.34,11.33 M1113.81,115.68l2-10.67 M1091.14,81.01l24,24
		 M769.1,164.35l-22.67,34.67 M763.76,211.69l-16.67-12.67 M956.46,5.67h-15.34 M942.45,1.67l-1.33,4 M925.12,5.67l16-0.67
		 M1116.48,265.7l25.34-11.33 M1122.48,215.03l19.34,39.34 M971.12,6.33L955.79,5 M953.79,1.67l2.67,4 M1031.13,383.05l43.34-7.33
		 M1063.8,329.04l10.67,47.34 M930.45,2.33l-3.33,2 M986.46,9l-15.34-2.67 M965.12,2.33l6,4 M828.44,49.67l-24,18.67 M801.1,77.68
		l3.33-8.67 M781.77,122.35l-23.34,30.67 M769.1,164.35l-10.67-11.33 M919.12,3l-9.33,4.67 M896.45,11l14-2.67 M863.11,23.67
		l-20.67,12.67 M833.77,43.01l9.33-7.33 M1122.48,215.03l18-11.33 M1119.14,168.35l22,35.34 M999.79,11.67l-13.34-3.33 M975.79,3.67
		l10,4.67 M795.77,273.03l-15.34,44.01 M815.77,326.38l-35.34-9.33 M1060.47,45.01l-8.67-7.33 M1031.13,25.67l21.34,12.67
		 M1091.14,81.01l-2.67-9.33 M1065.14,52.34l23.34,18.67 M909.12,5.67L896.45,11 M883.78,14.34L896.45,11 M855.11,333.04
		l-8.67,48.01 M892.45,385.72l-45.34-4.67 M1119.14,168.35l12-11.33 M1107.81,126.35l23.34,30.67 M1012.46,15.67l-12.67-4
		 M986.46,5.67l13.34,6 M801.1,87.01l-24,25.34 M781.77,122.35l-4.67-10 M1063.8,329.04l37.34-8.67 M1086.47,275.7l14.67,44.67
		 M1023.8,335.04l7.33,48.01 M985.13,387.05l46.01-4 M1023.8,335.04l7.33,48.01 M784.43,222.36l-17.34,40.01 M795.77,273.03
		l-28.67-10 M899.11,8.33l-16,6 M873.11,18.34l10.67-4.67 M856.44,29l-22.67,13.34 M828.44,49.67l5.33-7.33 M1107.81,126.35l6-10.67
		 M1090.47,90.34l23.34,25.34 M771.1,1028.47l-147.35-15.34 M1022.46,20.34l-10-4.67 M995.13,9l16.67,6.67 M897.11,337.71
		l-4.67,48.01 M939.12,387.72l-47.34-2 M825.1,57.67l-24,20 M801.1,87.01v-9.33 M783.77,175.02l-20,36.67 M784.43,222.36
		l-21.34-10.67 M939.12,387.72l46.01-1.33 M981.79,338.38l3.33,48.01 M1086.47,275.7l30-10 M1099.81,225.7l16.67,40.01
		 M1065.14,52.34l-4.67-7.33 M1037.8,31l22.67,14 M939.79,339.71l-0.67,48.01 M891.11,11.67l-18,7.33 M863.11,23.67l9.33-4.67
		 M828.44,281.7l-12,44.67 M855.11,333.04l-39.34-7.33 M1090.47,90.34l1.33-9.33 M1067.14,60.34l24,20.67 M790.43,133.02l-22,31.34
		 M783.77,175.02l-14.67-10.67 M1031.13,25.67l-8.67-5.33 M1003.13,12.33l19.34,7.33 M1099.81,225.7l22.67-10.67 M1103.14,178.36
		l20,36.67 M1023.8,335.04l40.01-6 M1053.13,283.7l10,45.34 M1073.8,1031.8l149.35-13.34 M851.77,35l-23.34,15.34 M825.1,57.67
		l3.33-7.33 M805.1,96.35l-23.34,26.67 M790.43,133.02l-9.33-10 M1103.14,178.36l16-10 M1097.14,136.35l22,32 M953.79,1.67h-11.33
		 M943.79,1l-1.33,0.67 M930.45,2.33l11.33-0.67 M965.12,2.33l-11.33-0.67 M950.45,1l3.33,0.67 M884.45,15l-21.34,8 M856.44,29
		l6.67-6 M935.79,1.67l-4.67,0.67 M919.12,3l11.33-1.33 M810.44,231.7l-15.34,41.34 M828.44,281.7l-32.67-8.67 M975.79,3.67
		l-10.67-1.33 M958.46,1.67l6.67,0.67 M1067.14,60.34l-2-7.33 M1041.13,37l24,16 M928.45,3l-9.33,0.67 M909.12,5.67l10-2 M1037.8,31
		l-6.67-5.33 M1009.8,16.34l21.34,9.33 M1097.14,136.35l10-10 M1084.47,99.01l22.67,27.34 M986.46,5.67l-10-2 M965.79,3l10,1.33
		 M825.1,65.01l-24,22 M805.1,96.35l-4-9.33 M863.78,288.37l-8.67,45.34 M897.11,337.71l-41.34-4.67 M1053.13,283.7l33.34-8
		 M1072.47,234.36l14,41.34 M921.12,3.67l-12,1.33 M899.11,8.33l9.33-2.67 M1016.46,289.04l7.33,45.34 M981.79,338.38l41.34-4
		 M1016.46,289.04l7.33,45.34 M803.1,185.02l-18,37.34 M810.44,231.7l-26-9.33 M995.13,9l-9.33-3.33 M972.46,4.33l14,1.33
		 M1084.47,99.01l5.33-8.67 M1065.8,67.68l24,22 M879.11,19l-22.67,10 M851.77,35l4.67-5.33 M915.12,5.67l-16,2.67 M891.11,11.67
		l8.67-3.33 M849.11,41.01l-24,16 M825.1,65.01v-7.33 M901.11,291.7l-4,45.34 M939.79,339.71l-42.67-2 M803.77,143.02l-20.67,32.67
		 M803.1,185.02l-19.34-10 M1003.13,12.33l-8-3.33 M979.12,6.33l16,2.67 M1041.13,37l-3.33-6 M1014.46,20.34l22.67,10
		 M1072.47,234.36l27.34-8.67 M1082.47,187.69l17.34,38 M939.79,339.71l42.01-1.33 M978.46,293.04l3.33,45.34 M922.45,1035.13
		l-151.35-6.67 M940.45,293.7l-0.67,46.01 M1065.8,67.68l1.33-7.33 M1043.13,43.01l24,17.34 M813.1,105.01l-22.67,28 M803.77,143.02
		l-13.34-10 M839.77,239.03l-11.33,42.01 M863.78,288.37l-35.34-6.67 M909.78,7.67l-18.67,4 M884.45,15l6.67-4 M1082.47,187.69
		l20.67-9.33 M1083.14,145.69l20,33.34 M1009.8,16.34l-6.67-4 M983.79,9l19.34,4 M922.45,1035.13l151.35-3.33 M828.44,73.01
		L805.1,96.35 M813.1,105.01l-8-8.67 M1016.46,289.04l36.67-5.33 M1042.47,241.7l10.67,42.01 M875.11,23.67L851.77,35 M849.11,41.01
		l2.67-6.67 M1083.14,145.69l14.67-9.33 M1075.8,107.68l22,28.67 M905.12,10.33L884.45,15 M879.11,19l5.33-4 M1043.13,43.01l-2-6
		 M1017.8,25l23.34,12 M825.77,193.69l-15.34,38 M839.77,239.03l-28.67-7.33 M849.77,47.01l-24.67,18 M828.44,73.01l-3.33-7.33
		 M1075.8,107.68l9.33-8.67 M1061.8,75.68l22.67,23.34 M1014.46,20.34l-4.67-4.67 M988.46,11.67l22,4.67 M950.45,1h-7.33 M945.12,5
		l-2-4 M935.79,1.67l8-0.67 M958.46,1.67l-8-0.67 M948.45,5l2.67-4 M871.78,245.03l-8,42.67 M901.11,291.7l-37.34-4 M941.12,5
		l-5.33-3.33 M928.45,3l7.33-1.33 M965.79,3l-7.33-1.33 M951.79,5.67l6.67-4 M1042.47,241.7l30-7.33 M1058.47,195.69l14,38.67
		 M937.12,5.67L927.78,3 M921.12,3.67l7.33-1.33 M1061.8,75.68l4-7.33 M1041.8,49.01l24,18.67 M821.1,151.02l-18,34 M825.77,193.69
		l-22.67-8.67 M972.46,4.33L965.79,3 M955.79,5.67l10-3.33 M1009.8,246.36l6.67,42.67 M978.46,293.04l38-4 M1009.8,246.36
		l6.67,42.67 M901.11,13l-22.67,6 M875.11,23.67l3.33-4.67 M873.11,28.34l-24,13.34 M849.77,47.01l-0.67-6 M933.79,5.67l-12.67-2
		 M915.12,5.67l6-1.33 M979.12,6.33l-6.67-2 M959.12,6.33l13.34-2 M824.44,113.01l-20.67,30 M821.1,151.02l-16.67-8 M1017.8,25
		l-3.33-4.67 M991.79,14.34l22.67,6.67 M1058.47,195.69l23.34-8 M1065.14,153.69l16.67,34 M1041.8,49.01l1.33-6 M1018.46,29.67
		l24.67,13.34 M905.78,249.03l-4.67,42.67 M940.45,293.7l-39.34-1.33 M930.45,7l-16-1.33 M909.78,7.67l5.33-2 M835.11,80.34
		l-22.67,24.67 M824.44,113.01l-11.33-8 M983.79,9l-4.67-2 M962.46,7.67l16.67-1.33 M940.45,293.7l38-0.67 M975.79,249.7l3.33,43.34
		 M941.12,250.37l-0.67,43.34 M1065.14,153.69l17.34-8 M1063.8,115.68l19.34,30 M851.77,200.36l-12,39.34 M871.78,245.03l-32-6
		 M852.44,53.01l-23.34,19.34 M835.11,80.34l-6.67-7.33 M927.78,8.33l-18-0.67 M905.12,10.33l4.67-2.67 M899.11,15.67L875.78,23
		 M873.11,28.34l2-4.67 M988.46,11.67l-4-2.67 M965.12,9h18.67 M1063.8,115.68l12-8 M1053.8,82.34l22,24.67 M1018.46,29.67
		L1017.8,25 M993.79,17l24,8 M1009.8,246.36l32.67-4.67 M1031.8,202.36l10.67,39.34 M873.78,32.34l-24,14.67 M852.44,53.01l-2.67-6
		 M1053.8,82.34l8-7.33 M1038.47,55.67l23.34,20 M925.12,9l-20.67,1.33 M901.11,13l3.33-2.67 M841.11,158.35l-15.34,35.34
		 M851.77,200.36l-26-6.67 M991.79,14.34l-3.33-2.67 M967.12,9.67L988.46,11 M1038.47,55.67l3.33-6.67 M1017.8,34.34l24,14.67
		 M897.78,19l-24,9.33 M873.78,32.34l-0.67-4.67 M924.45,11l-22.67,2 M899.11,15.67l2.67-2.67 M838.44,120.35l-17.34,30.67
		 M841.11,158.35l-20-7.33 M879.78,205.69l-8.67,39.34 M905.78,249.03l-34.67-4 M1031.8,202.36l27.34-6.67 M1044.47,160.35
		l14.67,35.34 M1017.8,34.34l0.67-4.67 M994.46,20.34l24,10 M993.79,17l-2-2.67 M969.12,11.67l22.67,2.67 M844.44,87.01l-20,26
		 M838.44,120.35l-14-7.33 M948.45,5h-3.33 M946.45,12.33L945.12,5 M941.12,5h4 M951.79,5.67L948.45,5 M946.45,12.33l2-7.33
		 M946.45,12.33L941.12,5 M937.12,5.67L940.45,5 M1002.46,207.03l7.33,39.34 M975.79,249.7l34.67-3.33 M1002.46,207.03l7.33,39.34
		 M955.79,5.67L952.45,5 M946.45,12.33L951.79,5 M857.78,59.01l-22.67,21.34 M844.44,87.01l-9.33-6.67 M946.45,12.33L937.12,5
		 M933.79,5.67L937.12,5 M959.12,6.33l-3.33-0.67 M946.45,12.33l9.33-6.67 M1044.47,160.35l21.34-7.33 M1048.47,122.35l16.67,30.67
		 M946.45,12.33l-12.67-6.67 M930.45,7l3.33-1.33 M875.78,37.67l-23.34,16 M857.78,59.01l-5.33-6 M962.46,7.67l-3.33-1.33
		 M946.45,12.33l12.67-6 M923.12,12.33l-24,3.33 M897.78,19l1.33-3.33 M946.45,12.33l-16-5.33 M927.78,8.33L931.12,7
		 M1048.47,122.35l15.34-7.33 M1043.8,89.01l20,26.67 M910.45,209.03l-4,40.01 M941.12,250.37l-35.34-1.33 M965.12,9l-3.33-1.33
		 M946.45,12.33l16-4.67 M994.46,20.34L993.79,17 M969.12,13l24,4 M898.45,22.34l-24,10 M875.78,37.67l-2-4.67 M1043.8,89.01
		l10-6.67 M1032.46,61.01l22,22 M941.12,250.37l34.67-0.67 M971.79,209.69l3.33,40.01 M946.45,12.33l-18.67-4.67 M925.12,9
		l2.67-1.33 M1032.46,61.01l6-5.33 M1015.13,38.34l22.67,16.67 M863.78,164.35l-12,36 M879.78,205.69l-28.67-5.33 M967.12,9.67
		l-2-1.33 M946.45,12.33l18.67-4 M941.79,209.69l-0.67,40.01 M1015.13,38.34l2.67-4.67 M993.79,23.67l24,10.67 M946.45,12.33
		L925.12,9 M924.45,11l1.33-1.33 M922.45,13.67L897.78,19 M898.45,22.34L897.78,19 M969.12,11.67l-2-1.33 M946.45,12.33l20.67-2.67
		 M1002.46,207.03l28.67-4.67 M1020.46,166.35l10.67,36.67 M993.79,23.67l0.67-3.33 M969.79,14.34l24,6 M946.45,12.33L923.78,11
		 M923.12,12.33l1.33-1.33 M855.78,126.35l-15.34,32 M863.78,164.35l-22.67-6 M969.12,13l-0.67-1.33 M946.45,12.33L969.12,11
		 M856.44,93.01l-18,27.34 M855.78,126.35l-17.34-6 M879.78,41.67l-22,17.34 M865.11,64.34l-7.33-5.33 M899.11,25l-23.34,12.67
		 M879.78,41.67L876.44,37 M865.11,64.34l-20.67,22 M856.44,93.01l-12-6 M946.45,12.33h-23.34 M922.45,13.67l0.67-1.33 M922.45,15
		l-24,7.33 M899.11,25l-1.33-2.67 M969.79,14.34L969.12,13 M946.45,12.33L969.12,13 M1020.46,166.35l23.34-5.33 M1030.46,128.35
		l14,32.67 M888.45,169.02l-8.67,36.67 M910.45,209.03l-30-3.33 M1010.46,43.01l4.67-4.67 M991.79,26.34L1015.13,39 M991.79,26.34
		l2-2.67 M969.79,15.67L993.13,23 M946.45,12.33l-24,1.33 M922.45,15v-1.33 M1024.46,66.34l8-5.33 M1010.46,43.01l22,18
		 M1030.46,128.35l18-5.33 M1031.13,95.01l17.34,27.34 M969.79,15.67v-1.33 M946.45,12.33l23.34,1.33 M1031.13,95.01l12.67-6
		 M1024.46,66.34l19.34,22.67 M995.13,169.69l7.33,36.67 M971.79,209.69l30.67-2.67 M995.13,169.69l7.33,36.67 M946.45,12.33
		l-24,2.67 M923.12,17l-0.67-1.33 M946.45,12.33 M953.12,23.67L946.45,13 M956.46,23l-10-10 M959.79,22.34l-13.34-10 M962.46,21
		l-16-8.67 M965.12,20.34L946.45,13 M967.79,19l-21.34-6.67 M969.12,17.67L946.45,13 M969.79,15.67l-23.34-3.33 M923.12,17
		l23.34-4.67 M924.45,18.34l22.67-6 M925.78,19.67l20.67-7.33 M928.45,20.34l18-8 M931.12,21.67l15.34-9.33 M934.45,23l12-10
		 M937.79,23.67L946.45,13 M941.79,23.67l4.67-11.33 M945.79,23.67l0.67-11.33 M949.12,23.67l-2.67-11.33 M953.12,23.67L946.45,13
		 M923.12,17l-23.34,8 M901.78,28.34L899.11,25 M969.12,17.67l1.33-1.33 M901.78,28.34l-22.67,13.34 M885.78,45.67l-6-4 M989.13,29
		l2.67-2.67 M969.12,17.67l22.67,8.67 M915.12,171.69l-4.67,37.34 M941.79,209.69l-31.34-1.33 M924.45,18.34L923.12,17
		 M875.11,131.68l-11.33,32.67 M888.45,169.02l-24.67-4.67 M967.79,19l1.33-1.33 M941.79,209.69l30-0.67 M969.12,171.69l3.33,37.34
		 M885.78,45.67l-20.67,18.67 M874.44,69.68l-9.33-4.67 M1004.46,47.01l6-4 M989.13,29l21.34,14 M942.45,172.36l-0.67,37.34
		 M925.78,19.67l-2-1.33 M901.78,28.34l22.67-10 M874.44,69.68l-18,23.34 M871.11,98.35l-14.67-5.33 M871.11,98.35l-15.34,28
		 M875.11,131.68l-19.34-5.33 M995.13,169.69l25.34-4 M1010.46,133.02l10,33.34 M905.12,31l-3.33-2.67 M965.12,20.34l2.67-1.33
		 M989.13,29l-22-10 M1013.8,70.34l10.67-4 M1004.46,47.01l20,19.34 M985.13,31.67l4-2.67 M928.45,20.34L925.78,19 M905.12,31
		l20.67-11.33 M962.76,21.35l2.67-1.33 M985.13,31.67l-20-11.33 M1016.46,99.68l14.67-4.67 M1013.8,70.34l16.67,24.67
		 M1010.46,133.02l20-4.67 M1016.46,99.68l14,28 M905.12,31l-20,14.67 M892.45,49.67l-7.33-4 M931.12,21.67l-3.33-1.33 M910.45,33
		l18-12.67 M959.79,22.34l3.33-1.33 M979.79,33.67L963.12,21 M910.45,33l-4.67-2 M897.11,135.68l-8.67,33.34 M915.12,171.69
		l-26.67-2.67 M997.13,50.34l7.33-4 M985.13,31.67l19.34,15.34 M934.45,23l-3.33-1.33 M916.45,35l15.34-13.34 M979.79,33.67l5.33-2
		 M956.46,23l3.33-0.67 M973.79,35.67l-14-13.34 M892.45,49.67l-18,20 M885.78,73.01l-11.33-4 M988.46,136.35l7.33,33.34
		 M969.12,171.69l26.67-2 M988.46,136.35l7.33,33.34 M937.79,23.67L934.45,23 M923.12,37l11.33-14 M953.12,23.67l3.33-0.67
		 M967.12,37.67l-10-14.67 M941.79,23.67L938.45,23 M929.78,37.67L938.45,23 M887.11,102.35l-12,29.34 M897.11,135.68l-22-4
		 M949.12,23.67l4-0.67 M959.79,38.34L953.12,23 M959.79,38.34L953.12,23 M885.78,73.01l-15.34,24.67 M887.11,102.35l-16-4.67
		 M916.45,35l-6-2 M892.45,49.67l17.34-16 M945.79,23.67h-4 M937.12,39l4-15.34 M1001.79,75.01l12-4.67 M997.13,50.34l16.67,20
		 M945.79,23.67h3.33 M952.45,39l-3.33-15.34 M945.12,39.67l0.67-16 M901.11,52.34l-8.67-3.33 M919.12,137.68l-4,33.34
		 M942.45,172.36l-27.34-1.33 M973.79,35.67l6-2 M997.13,50.34l-17.34-16.67 M942.45,172.36l26.67-0.67 M965.12,138.35l3.33,33.34
		 M988.46,136.35l22.67-3.33 M999.79,103.68l10.67,29.34 M999.79,103.68l16.67-4 M1001.79,75.01l14.67,24.67 M988.46,53.01
		l9.33-2.67 M943.12,139.02l-0.67,33.34 M923.12,37l-6.67-1.33 M901.11,52.34L916.45,35 M967.12,37.67l6.67-1.33 M988.46,53.01
		l-14.67-17.34 M901.11,52.34l-15.34,20.67 M899.11,77.01l-12.67-4 M905.12,105.68l-8,30 M919.12,137.68l-22.67-2 M911.12,55.01
		l-9.33-2 M929.78,37.67l-6.67-1.33 M911.12,55.01l12-18 M988.46,77.68l13.34-2.67 M988.46,53.01l14,22 M899.11,77.01l-11.33,25.34
		 M905.12,105.68l-17.34-3.33 M959.79,38.34l7.33-1.33 M977.79,55.67L967.12,37 M981.79,106.35l6.67,30 M965.12,138.35l22.67-2
		 M981.79,106.35l6.67,30 M977.79,55.67l10-2.67 M937.12,39l-8-1.33 M921.78,57.01l8-18.67 M981.79,106.35l18-2.67 M988.46,77.68
		l10.67,26 M952.45,39l7.33-0.67 M967.12,57.67L959.79,39 M967.12,57.67L959.79,39 M945.12,39.67l-8-0.67 M932.45,58.34l4.67-18.67
		 M923.78,107.68l-4,30.67 M943.12,139.02l-23.34-1.33 M945.12,39.67l7.33-0.67 M955.79,58.34L952.45,39 M921.78,57.01l-10.67-2
		 M944.45,58.34l0.67-18.67 M899.11,77.01l12-22 M913.12,79.01l-14.67-2 M943.12,139.02l22.67-0.67 M962.46,107.68l3.33,30.67
		 M967.12,57.67l10.67-1.33 M988.46,77.68l-10.67-22 M943.79,108.35l-0.67,30.67 M974.46,80.34l14.67-2.67 M913.12,79.01
		l-8.67,26.67 M923.78,107.68l-18.67-1.33 M974.46,80.34l7.33,26 M962.46,107.68l19.34-1.33 M974.46,80.34l7.33,26 M932.45,58.34
		l-10.67-1.33 M913.12,79.01l8.67-22 M955.79,58.34l11.33-1.33 M974.46,80.34l-7.33-22.67 M974.46,80.34l-7.33-22.67 M928.45,81.01
		l-15.34-1.33 M944.45,58.34l-12-0.67 M928.45,81.01l4-22.67 M928.45,81.01l-4.67,26.67 M943.79,108.35l-20-1.33 M959.12,81.68
		l15.34-1.33 M944.45,58.34h10.67 M959.12,81.68l-3.33-22.67 M943.79,108.35l18.67-0.67 M959.12,81.68l3.33,26.67 M943.79,81.68
		l0.67-23.34 M943.79,81.68l-0.67,26.67 M943.79,81.68l-16-1.33 M943.79,81.68l15.34-0.67"/>
</g>
</svg>
