<svg xmlns="http://www.w3.org/2000/svg" xmlns:xlink="http://www.w3.org/1999/xlink" width="96" height="96" viewBox="0 0 96 96"><g id="surface70501682"><path style="stroke:none;fill-rule:nonzero;fill:#959da5;fill-opacity:1" d="M 11.660156 47.230469 C 36.796875 36.175781 69.324219 22.691406 73.8125 20.824219 C 85.59375 15.941406 89.207031 16.878906 87.402344 27.695312 C 86.109375 35.46875 82.375 61.207031 79.398438 77.226562 C 77.632812 86.726562 73.671875 87.851562 67.441406 83.742188 C 64.445312 81.765625 49.324219 71.765625 46.042969 69.414062 C 43.046875 67.277344 38.914062 64.703125 44.097656 59.632812 C 45.941406 57.824219 58.027344 46.285156 67.445312 37.300781 C 68.679688 36.121094 67.128906 34.183594 65.707031 35.128906 C 53.011719 43.546875 35.410156 55.230469 33.171875 56.753906 C 29.789062 59.050781 26.539062 60.105469 20.703125 58.429688 C 16.296875 57.160156 11.988281 55.652344 10.3125 55.074219 C 3.859375 52.859375 5.390625 49.988281 11.660156 47.230469 Z M 11.660156 47.230469"/></g></svg>